<svg width="288" height="293" viewBox="0 0 288 293" fill="none" xmlns="http://www.w3.org/2000/svg">
<path fill-rule="evenodd" clip-rule="evenodd" d="M12.8359 121.39H56.0271C56.0271 99.7829 64.7947 80.2218 78.9734 66.06L48.4356 35.5557C26.4426 57.5226 12.8386 87.8714 12.8386 121.39H12.8359Z" fill="#333333"/>
<path fill-rule="evenodd" clip-rule="evenodd" d="M48.4375 35.5548L78.9753 66.0591C93.1539 51.8973 112.738 43.14 134.371 43.14V0C100.813 0 70.4305 13.5852 48.4375 35.5521V35.5548Z" fill="black"/>
<path fill-rule="evenodd" clip-rule="evenodd" d="M78.8982 176.645C64.7625 162.491 56.0271 142.96 56.0271 121.39H12.8359C12.8359 154.871 26.4104 185.19 48.3604 207.152L78.8982 176.648V176.645Z" fill="#4D4D4D"/>
<path fill-rule="evenodd" clip-rule="evenodd" d="M78.8971 176.645L48.3594 207.149C48.4883 207.278 48.6199 207.406 48.7487 207.535L48.9689 207.755L134.32 293L134.366 292.954V242.773V199.636C112.695 199.636 93.0785 190.849 78.8971 176.645Z" fill="#666666"/>
<path fill-rule="evenodd" clip-rule="evenodd" d="M134.367 199.636V242.774V292.954L217.363 210.062L220.304 207.221L189.763 176.72C175.585 190.882 156 199.639 134.367 199.639V199.636Z" fill="#666666"/>
<path fill-rule="evenodd" clip-rule="evenodd" d="M220.301 35.5548L189.763 66.0591C175.585 51.8973 156 43.14 134.367 43.14V0C167.926 0 198.308 13.5852 220.301 35.5521V35.5548Z" fill="black"/>
<path fill-rule="evenodd" clip-rule="evenodd" d="M133.317 118.458V86.685L66.9377 20.3872L0 20.2665L98.3052 118.458H133.317Z" fill="#FF6600"/>
<path fill-rule="evenodd" clip-rule="evenodd" d="M255.895 121.39H212.704C212.704 99.7829 203.936 80.2218 189.758 66.06L220.296 35.5557C242.289 57.5226 255.893 87.8714 255.893 121.39H255.895Z" fill="#1A1A1A"/>
<path fill-rule="evenodd" clip-rule="evenodd" d="M189.836 176.645C203.972 162.491 212.707 142.96 212.707 121.39H255.898C255.898 154.871 242.324 185.19 220.374 207.152L189.836 176.648V176.645Z" fill="#333333"/>
<path fill-rule="evenodd" clip-rule="evenodd" d="M153.93 109.147V140.923L220.309 207.221L287.246 207.339L188.941 109.147H153.93Z" fill="#FF6600"/>
</svg>
