<svg width="184" height="46" viewBox="0 0 184 46" fill="none" xmlns="http://www.w3.org/2000/svg">
<path d="M23 0C10.3567 0 0 10.2222 0 23C0 35.6433 10.2222 46 23 46C35.6433 46 46 35.7778 46 23C46 10.3567 35.6433 0 23 0ZM23 44.117C11.2982 44.117 1.88303 34.7018 1.88303 23C1.88303 11.2982 11.2982 1.88304 23 1.88304C34.7018 1.88304 44.117 11.2982 44.117 23C44.2515 34.7018 34.7018 44.117 23 44.117Z" fill="#797D81"/>
<path d="M23.0003 40.2173C23.8073 40.2173 24.2108 39.6793 24.3453 39.0067C24.4798 39.2758 24.7488 39.5448 25.0179 39.6793C25.2869 39.6793 25.6904 39.6793 25.9594 39.5448C26.2284 39.4103 26.4974 39.1413 26.6319 38.8722C26.7664 38.6032 26.7664 38.1997 26.6319 37.9307C27.0354 38.4687 27.5734 38.6032 28.2459 38.3342C29.0529 37.9307 29.322 37.3927 28.9184 36.5857C27.9769 34.2991 27.0354 32.1471 26.0939 29.8605C25.9594 29.5915 25.9594 29.457 25.8249 29.188C25.6904 29.0535 25.6904 28.919 25.5559 28.7845C25.5559 28.65 25.4214 28.65 25.2869 28.5155C26.7664 28.65 27.4389 29.188 27.8424 29.457C27.9769 29.5915 27.9769 29.5915 28.3804 29.457C28.5149 29.457 28.7839 29.457 28.9184 29.457C29.0529 29.5915 29.3219 29.726 29.4564 29.726C29.9945 30.1296 30.5325 30.5331 31.0705 30.9366C31.3395 31.2056 31.6085 31.4746 31.6085 31.8781C31.6085 32.1471 30.8015 32.8196 30.667 33.0886C30.129 33.6266 30.936 34.4336 32.012 34.4336C31.743 34.1646 31.6085 33.8956 31.743 33.6266C31.8775 33.6266 32.012 33.6266 32.281 33.4921C32.55 33.3576 32.4155 32.6851 32.55 32.5506C32.9535 32.1471 34.0295 32.1471 34.8366 32.1471C35.1056 32.1471 35.5091 32.0126 35.3746 31.6091C35.7781 31.6091 35.9126 32.0126 35.9126 32.2816C36.3161 32.0126 36.5851 31.0711 35.2401 30.8021C35.5091 30.5331 35.9126 30.5331 36.1816 30.8021C36.4506 30.3986 35.7781 29.726 34.7021 30.1296C34.7021 30.1296 34.164 29.457 32.819 31.0711C32.6845 30.9366 32.4155 30.8021 32.281 30.6676C31.743 30.1295 30.398 28.7845 30.398 28.7845C30.398 27.9775 30.2635 26.498 29.3219 25.691C28.9184 25.2874 28.5149 25.1529 27.5734 24.8839C27.5734 24.8839 27.9769 24.2114 28.1114 23.9424C28.9184 24.7494 30.5325 25.0184 30.5325 23.6734C31.8775 25.0184 33.088 24.2114 33.088 23.4044C33.088 23.8079 33.2225 24.2114 33.357 24.6149C33.4915 25.0184 34.1641 26.767 35.6436 26.767C35.6436 27.305 35.6436 29.3225 37.5266 29.726C37.6611 29.726 37.6611 29.726 37.7956 29.8605C38.6026 30.8021 41.6962 31.7436 41.9652 31.4746C41.6962 31.3401 41.2927 31.0711 41.2927 29.995C41.2927 29.3225 41.1582 25.5565 41.1582 20.3108C41.1582 18.4278 41.0237 12.3752 34.9711 11.5681C34.0296 11.4336 33.2225 11.5681 32.4155 12.1062C31.3395 12.9132 30.8015 14.2582 31.474 15.7377V15.8722C31.743 16.2757 31.6085 16.5448 31.3395 16.8138C30.8015 17.3518 30.2635 17.6208 29.591 17.7553C29.1874 17.7553 28.7839 17.6208 28.5149 17.3518C27.8424 16.6793 27.4389 15.8722 27.1699 14.9307C26.9009 13.1822 27.3044 12.2407 27.3044 12.1062C27.8424 11.1646 28.7839 10.3576 29.9945 10.3576C30.5325 9.2816 32.1465 9.6851 32.1465 9.6851C32.55 9.81961 32.6845 9.81961 32.819 10.0886C32.819 10.0886 33.4915 9.0126 32.819 8.60909C32.1465 8.20558 30.667 8.07107 30.667 8.07107C30.667 7.39856 29.5909 6.86055 27.4389 7.26406C25.0178 7.66757 24.4798 6.72604 24.4798 6.72604C24.3453 7.93657 25.2869 8.47458 25.5559 8.74359C24.6143 9.81961 23.2693 11.8372 23.0003 14.6617C22.7313 11.8372 21.3863 9.81961 20.4448 8.74359C20.7138 8.60908 21.6553 7.93657 21.5208 6.72604C21.5208 6.72604 20.9828 7.66757 18.5617 7.26406C16.5442 6.86055 15.3336 7.39856 15.3336 8.07107C15.3336 8.07107 13.8541 8.20558 13.1816 8.60909C12.5091 9.0126 13.1816 10.0886 13.1816 10.0886C13.3161 9.95411 13.4506 9.81961 13.8541 9.6851C13.8541 9.6851 15.4681 9.2816 16.0062 10.3576C17.2167 10.4921 18.1582 11.1646 18.6962 12.1062C18.6962 12.1062 19.2342 13.0477 18.8307 14.9307C18.6962 15.8722 18.1582 16.6793 17.4857 17.3518C17.2167 17.6208 16.8132 17.8898 16.4097 17.7553C15.7372 17.6208 15.1991 17.3518 14.6611 16.8138C14.3921 16.5448 14.2576 16.2757 14.5266 15.8722V15.7377C15.1991 14.2582 14.6611 12.9132 13.5851 12.1062C12.7781 11.5681 11.9711 11.4336 11.0295 11.5681C5.11142 12.3752 4.84242 18.4278 4.84242 20.3108C4.84242 25.5565 4.70792 29.3225 4.70792 29.995C4.70792 31.0711 4.30441 31.3401 4.0354 31.4746C4.43891 31.7436 7.53247 30.8021 8.20499 29.8605C8.20499 29.8605 8.33949 29.726 8.47399 29.726C10.357 29.3225 10.357 27.305 10.357 26.767C11.8366 26.767 12.5091 25.0184 12.6436 24.6149C12.7781 24.2114 12.9126 23.8079 12.9126 23.4044C12.9126 24.2114 14.1231 24.8839 15.4681 23.6734C15.4681 25.0184 17.0822 24.7494 17.8892 23.9424C18.0237 24.2114 18.4272 24.8839 18.4272 24.8839C17.4857 25.0184 17.0822 25.2874 16.6787 25.691C15.6026 26.6325 15.6026 28.112 15.6026 28.7845C15.6026 28.7845 14.2576 30.1295 13.7196 30.6676C13.5851 30.8021 13.3161 30.9366 13.1816 31.0711C11.7021 29.457 11.2986 30.1296 11.2986 30.1296C10.2225 29.726 9.68452 30.3986 9.81902 30.8021C10.088 30.5331 10.4915 30.6676 10.7605 30.8021C9.28101 31.0711 9.68452 32.1471 10.088 32.2816C10.088 32.0126 10.2225 31.6091 10.626 31.6091C10.626 32.0126 10.895 32.1471 11.164 32.1471C11.8366 32.1471 13.0471 32.1471 13.4506 32.5506C13.7196 32.6851 13.5851 33.3576 13.7196 33.4921C13.8541 33.6266 14.1231 33.6266 14.2576 33.6266C14.2576 33.8956 14.2576 34.0301 13.9886 34.4336C15.0646 34.5681 15.7371 33.6266 15.3336 33.0886C15.0646 32.8196 14.3921 32.1471 14.3921 31.8781C14.3921 31.6091 14.6611 31.2056 14.9301 30.9366C15.4681 30.5331 16.0062 30.1296 16.5442 29.726C16.6787 29.5915 16.8132 29.457 17.0822 29.457C17.2167 29.3225 17.4857 29.3225 17.6202 29.457C18.0237 29.5915 18.0237 29.5915 18.1582 29.457C18.5617 29.188 19.2342 28.65 20.7138 28.5155C20.5793 28.5155 20.5793 28.65 20.4448 28.7845C20.3103 28.919 20.3103 29.0535 20.1758 29.188C20.0412 29.3225 20.0412 29.5915 19.9067 29.8605C18.9652 32.1471 18.0237 34.2991 17.0822 36.5857C16.8132 37.3927 17.0822 37.9307 17.7547 38.3342C18.2927 38.6032 18.9652 38.4687 19.3687 37.9307C19.2342 38.3342 19.2342 38.6032 19.3687 38.8722C19.5032 39.1413 19.7722 39.4103 20.0412 39.5448C20.3102 39.6793 20.7138 39.6793 20.9828 39.6793C21.3863 39.5448 21.5208 39.4103 21.6553 39.0067C21.7898 39.6793 22.1933 40.2173 23.0003 40.2173Z" fill="#797D81"/>
<path d="M61.7374 14.9257C62.948 14.9257 65.638 14.7912 67.1175 14.6567C67.1175 14.9257 67.1175 15.3293 67.1175 15.4638C67.1175 15.5983 67.1175 16.0018 67.1175 16.2708C65.7725 16.1363 63.6205 16.0018 62.948 16.0018C62.41 16.0018 60.6614 16.0018 59.5854 16.1363V21.7854H60.7959C63.217 21.7854 68.0591 22.1889 68.0591 26.3585C68.0591 29.7211 65.2345 31.2006 61.6029 31.2006C61.1994 31.2006 59.7199 31.2006 58.6439 31.2006C58.2403 31.2006 57.7023 31.2006 57.2988 31.2006C57.4333 28.645 57.4333 25.2825 57.4333 22.4579C57.4333 19.9023 57.4333 16.0018 57.2988 14.7912C58.7784 14.7912 61.1994 14.9257 61.7374 14.9257ZM59.5854 29.9901C60.1234 29.9901 60.9304 29.9901 61.4684 29.9901C64.1585 29.9901 65.638 28.7795 65.638 26.3585C65.638 23.8029 63.755 22.9959 59.4509 22.9959V29.9901H59.5854Z" fill="#797D81"/>
<path d="M70.6147 21.1156C71.5563 20.0396 73.1703 19.5016 74.5153 19.5016C76.9364 19.5016 78.5504 20.7121 78.5504 23.5367V29.1858C78.5504 30.3963 78.8194 30.6653 79.2229 30.6653C79.3574 30.6653 79.6264 30.6653 79.7609 30.5308L79.8954 31.0688C79.2229 31.4723 78.5504 31.4724 78.1469 31.4724C77.3399 31.4724 76.9364 31.0688 76.8019 30.5308L76.6674 29.9928C75.4568 30.9343 74.1118 31.4724 73.0358 31.4724C71.0182 31.4724 69.6732 30.3963 69.6732 28.5133C69.6732 26.4957 71.1527 25.5542 73.3048 25.1507L75.5913 24.7472C76.3984 24.6127 76.8019 24.3437 76.8019 23.8057C76.8019 21.3846 75.7258 20.7121 73.9773 20.7121C72.6323 20.7121 71.6908 21.1156 70.8837 22.5951H70.6147V21.1156ZM76.8019 25.4197L75.3223 25.6887C73.7083 25.9577 71.8253 26.4957 71.8253 28.2443C71.8253 29.5893 72.4978 30.2618 73.9773 30.2618C74.9188 30.2618 75.7258 29.9928 76.6674 28.9168V25.4197H76.8019Z" fill="#797D81"/>
<path d="M83.1233 19.9029C83.3923 19.9029 83.7958 19.9029 84.1993 19.9029C84.0648 21.6514 83.9303 24.476 83.9303 24.6105C84.8718 24.6105 86.2168 24.745 87.0238 24.745C87.8309 24.745 89.1759 24.745 89.8484 24.6105C89.8484 24.476 89.8484 21.6514 89.7139 19.9029C90.1174 19.9029 90.6554 19.9029 90.9244 19.9029C91.1934 19.9029 91.5969 19.9029 92.0004 19.9029C91.8659 21.6514 91.7314 24.476 91.7314 25.6865C91.7314 26.628 91.7314 29.7216 92.0004 31.4701C91.5969 31.4701 91.3279 31.4701 90.9244 31.4701C90.5209 31.4701 90.1174 31.4701 89.7139 31.4701C89.8484 29.7216 89.8484 26.628 89.8484 25.9555C88.9069 25.821 87.4273 25.821 87.0238 25.821C86.3513 25.821 84.8718 25.821 83.9303 25.9555C83.9303 26.7625 83.9303 29.7216 84.1993 31.4701C83.7958 31.4701 83.5268 31.4701 83.1233 31.4701C82.7197 31.4701 82.3162 31.4701 81.9127 31.4701C82.0472 29.7216 82.1817 26.628 82.1817 25.6865C82.1817 24.476 82.1817 21.6514 81.9127 19.9029C82.3162 19.7684 82.8543 19.9029 83.1233 19.9029Z" fill="#797D81"/>
<path d="M96.1705 19.9032C96.4395 19.9032 96.843 19.9032 97.2465 19.9032C97.112 21.6518 97.112 24.4763 97.112 24.8799H97.5155C98.3225 24.8799 102.089 20.5758 102.492 19.9032C102.761 19.9032 103.299 19.9032 103.568 19.9032C103.837 19.9032 104.375 19.9032 104.644 19.9032L99.2641 24.7454C99.9366 25.5524 103.568 29.5874 105.182 31.336C104.51 31.336 104.106 31.336 103.837 31.336C103.434 31.336 102.761 31.336 102.358 31.336C101.551 29.991 98.9951 27.0319 97.5155 25.4179H97.112C97.112 26.2249 97.112 29.5874 97.2465 31.336C96.9775 31.336 96.574 31.336 96.1705 31.336C95.767 31.336 95.3635 31.336 94.96 31.336C95.0945 29.5874 95.229 26.4939 95.229 25.5524C95.229 24.3418 95.229 21.5173 94.96 19.7687C95.3635 19.7687 95.767 19.9032 96.1705 19.9032Z" fill="#797D81"/>
<path d="M115 14.7912C115.807 14.7912 116.749 14.6567 117.421 14.6567C121.591 14.6567 123.205 15.8673 123.205 18.8263C123.205 22.4579 120.111 23.6684 116.345 23.6684C116.076 23.6684 115.269 23.6684 114.866 23.5339V27.4345C114.866 28.5105 114.866 29.9901 115 31.0661C114.597 31.0661 114.193 31.0661 113.79 31.0661C113.386 31.0661 112.848 31.0661 112.579 31.0661C112.714 28.5105 112.714 25.148 112.714 22.3234C112.714 19.7678 112.714 15.8673 112.579 14.6567C113.521 14.7912 114.462 14.7912 115 14.7912ZM115.942 22.5924C119.17 22.5924 120.918 21.3819 120.918 18.9608C120.918 16.6743 119.17 16.1363 116.883 16.1363C116.48 16.1363 115.135 16.1363 114.866 16.1363V22.4579C115.269 22.5924 115.673 22.5924 115.942 22.5924Z" fill="#797D81"/>
<path d="M135.042 25.4197C135.042 28.9168 132.755 31.4724 129.258 31.4724C125.761 31.4724 123.609 28.9168 123.609 25.6887C123.609 21.9226 126.03 19.5016 129.527 19.5016C132.89 19.5016 135.042 22.0571 135.042 25.4197ZM125.761 25.6887C125.761 28.2443 126.837 30.6653 129.258 30.6653C131.545 30.6653 132.89 28.3788 132.89 25.4197C132.89 22.9987 131.948 20.4431 129.393 20.4431C126.971 20.4431 125.761 22.9987 125.761 25.6887Z" fill="#797D81"/>
<path d="M146.07 22.3243H145.801C144.994 20.9793 143.918 20.5758 142.708 20.5758C140.018 20.5758 138.807 23.1313 138.807 25.6869C138.807 28.5114 140.421 30.798 143.246 30.798C144.187 30.798 144.994 30.6635 146.339 29.1839L146.608 29.453L146.339 30.529C145.263 31.2015 144.053 31.605 142.573 31.605C139.076 31.605 136.79 29.1839 136.79 25.6869C136.79 22.0553 139.345 19.7687 142.977 19.7687C144.187 19.7687 145.398 20.0377 146.877 20.7103L146.07 22.3243Z" fill="#797D81"/>
<path d="M157.638 22.3211H157.369C156.562 20.9761 155.486 20.5726 154.275 20.5726C151.585 20.5726 150.374 23.1281 150.374 25.6837C150.374 28.5082 151.988 30.7948 154.813 30.7948C155.755 30.7948 156.562 30.6603 157.907 29.1807L158.041 29.4498L157.638 30.3913C156.562 31.0638 155.351 31.4673 153.872 31.4673C150.374 31.4673 148.088 29.0462 148.088 25.5492C148.088 21.9176 150.643 19.631 154.275 19.631C155.486 19.631 156.696 19.9 158.176 20.5726L157.638 22.3211Z" fill="#797D81"/>
<path d="M161 31.1983C160.865 31.1983 160.462 31.1983 160.327 31.1983C160.462 29.4498 160.596 26.3562 160.596 25.4147C160.596 24.2041 160.596 21.3796 160.327 19.631C160.731 19.631 161.269 19.631 161.538 19.631C161.807 19.631 162.21 19.631 162.614 19.631C162.479 21.3796 162.345 24.2041 162.345 25.4147C162.345 26.3562 162.345 27.7012 162.345 28.3737C163.555 26.8942 167.994 21.2451 169.07 19.7655C169.339 19.7655 169.474 19.7655 169.743 19.7655C169.877 19.7655 170.415 19.7655 170.55 19.7655C170.415 21.5141 170.281 24.3386 170.281 25.5492C170.281 26.4907 170.281 29.5843 170.55 31.3328C170.146 31.3328 169.877 31.3328 169.474 31.3328C169.07 31.3328 168.667 31.3328 168.263 31.3328C168.398 29.5843 168.532 26.4907 168.532 25.5492C168.532 24.3386 168.532 22.8591 168.532 22.4556C167.053 24.0696 162.883 29.3152 161.672 31.3328C161.403 31.1983 161.134 31.1983 161 31.1983Z" fill="#797D81"/>
<path d="M173.778 31.1983C173.644 31.1983 173.24 31.1983 173.106 31.1983C173.24 29.4498 173.24 26.3562 173.24 25.4147C173.24 24.2041 173.24 21.3796 173.106 19.631C173.509 19.631 174.047 19.631 174.316 19.631C174.585 19.631 174.989 19.631 175.393 19.631C175.258 21.3796 175.124 24.2041 175.124 25.4147C175.124 26.3562 175.124 27.7012 175.124 28.3737C176.334 26.8942 180.773 21.2451 181.849 19.7655C182.118 19.7655 182.252 19.7655 182.521 19.7655C182.656 19.7655 183.194 19.7655 183.328 19.7655C183.194 21.5141 183.194 24.3386 183.194 25.5492C183.194 26.4907 183.194 29.5843 183.328 31.3328C182.925 31.3328 182.656 31.3328 182.252 31.3328C181.849 31.3328 181.445 31.3328 181.042 31.3328C181.176 29.5843 181.176 26.4907 181.176 25.5492C181.176 24.3386 181.176 22.8591 181.176 22.4556C179.697 24.0696 175.527 29.3152 174.316 31.3328C174.182 31.1983 174.047 31.1983 173.778 31.1983Z" fill="#797D81"/>
</svg>
