<svg width="13" height="20" viewBox="0 0 13 20" fill="none" xmlns="http://www.w3.org/2000/svg">
<path d="M5.58082 14.0878C4.03035 13.9261 2.63238 13.5443 1.43549 12.6082C1.28698 12.4917 1.13365 12.3794 0.998128 12.2494C0.474254 11.7462 0.421468 11.17 0.836001 10.5762C1.19063 10.068 1.78593 9.93205 2.40469 10.2238C2.52451 10.2804 2.63866 10.351 2.748 10.4268C4.97861 11.9595 8.04288 12.0018 10.2819 10.4957C10.5037 10.3256 10.7408 10.187 11.0156 10.1162C11.55 9.97897 12.0483 10.1752 12.335 10.6428C12.6627 11.1767 12.6585 11.6978 12.2548 12.1124C11.6356 12.7479 10.891 13.2077 10.0636 13.5286C9.28124 13.8319 8.42432 13.9846 7.57619 14.086C7.70418 14.2253 7.7645 14.2938 7.84452 14.3742C8.99616 15.5313 10.1528 16.6835 11.3007 17.8442C11.6918 18.2397 11.7735 18.73 11.5581 19.19C11.3227 19.6927 10.7957 20.0235 10.2789 19.9881C9.95153 19.9655 9.6962 19.8025 9.46934 19.574C8.60027 18.6994 7.71486 17.8411 6.86338 16.95C6.61558 16.6909 6.4964 16.7399 6.27771 16.9649C5.4034 17.8649 4.51485 18.7512 3.62106 19.6324C3.21972 20.0281 2.74214 20.0993 2.27671 19.8733C1.78195 19.6334 1.46712 19.1284 1.49142 18.6209C1.50818 18.2776 1.67701 18.0153 1.91266 17.7801C3.05236 16.6421 4.18892 15.5011 5.3259 14.3612C5.4011 14.2854 5.47127 14.2049 5.58082 14.0878Z" fill="currentColor"/>
<path d="M6.52488 10.1233C3.75889 10.1139 1.49079 7.82084 1.50692 5.05045C1.52284 2.24947 3.7924 -0.00773033 6.58563 1.98985e-05C9.38451 0.00756067 11.631 2.29723 11.617 5.12732C11.6028 7.89206 9.31895 10.1329 6.52488 10.1233ZM9.03868 5.05715C9.03386 3.68159 7.93836 2.5865 6.56552 2.58525C5.18116 2.58378 4.07581 3.69877 4.08649 5.0869C4.09676 6.45722 5.20169 7.54456 6.5783 7.53953C7.95072 7.53471 9.04329 6.4325 9.03868 5.05715Z" fill="currentColor"/>
</svg>
