<svg width="48" height="48" viewBox="0 0 48 48" fill="none" xmlns="http://www.w3.org/2000/svg">
<path d="M17.25 3C15.1855 3 13.5 4.68547 13.5 6.75V18H5.88721C4.29774 18 3 19.3098 3 20.9019V33.0981C3 34.6902 4.29774 36 5.88721 36H13.5V41.25C13.5 43.3145 15.1855 45 17.25 45H41.25C43.3145 45 45 43.3145 45 41.25V15C45 14.317 44.7221 13.6727 44.2559 13.1953L35.0361 3.75586C34.5538 3.26199 33.8944 3 33.2197 3H17.25ZM17.25 4.5H33V12C33 13.649 34.351 15 36 15H43.5V41.25C43.5 42.5095 42.5095 43.5 41.25 43.5H17.25C15.9905 43.5 15 42.5095 15 41.25V36H30.1128C31.7023 36 33 34.6902 33 33.0981V20.9019C33 19.3098 31.7023 18 30.1128 18H15V6.75C15 5.49053 15.9905 4.5 17.25 4.5V4.5ZM34.5 5.354L42.457 13.5H36C35.156 13.5 34.5 12.844 34.5 12V5.354ZM5.88721 19.5H30.1128C30.8917 19.5 31.5 20.1093 31.5 20.9019V33.0981C31.5 33.8907 30.8917 34.5 30.1128 34.5H5.88721C5.10832 34.5 4.5 33.8907 4.5 33.0981V20.9019C4.5 20.1093 5.10832 19.5 5.88721 19.5V19.5Z" fill="currentColor"/>
</svg>
