<svg width="46" height="46" viewBox="0 0 46 46" fill="none" xmlns="http://www.w3.org/2000/svg">
<circle cx="23" cy="23" r="23" fill="#428BF9"/>
<path d="M24.1872 16.6387L24.0237 25.4988H22.8625L22.7076 16.6387H24.1872ZM23.4646 29.1289C23.2008 29.1289 22.9743 29.0371 22.785 28.8536C22.6015 28.6701 22.5098 28.4464 22.5098 28.1826C22.5098 27.9188 22.6015 27.6952 22.785 27.5117C22.9743 27.3224 23.2008 27.2278 23.4646 27.2278C23.7227 27.2278 23.9463 27.3224 24.1356 27.5117C24.3248 27.6952 24.4194 27.9188 24.4194 28.1826C24.4194 28.4464 24.3248 28.6701 24.1356 28.8536C23.9463 29.0371 23.7227 29.1289 23.4646 29.1289Z" fill="white"/>
</svg>
