<svg width="321" height="82" viewBox="0 0 321 82" fill="none" xmlns="http://www.w3.org/2000/svg">
<path d="M98.6159 19.4488H94.5706L93.2662 22.6098L94.1798 22.6088V23.7371C92.6555 23.7371 92.3288 23.7371 90.8047 23.7371V22.6088L92.022 22.6094L97.0583 10.6598C97.1596 10.4245 97.3325 10.3067 97.5765 10.3067C97.782 10.3067 97.9248 10.4127 98.0056 10.6247L102.278 22.6082L103.476 22.6088V23.7371C101.797 23.7371 100.478 23.7371 98.7987 23.7371V22.6088L99.732 22.6082L98.6158 19.4488H98.6159ZM98.202 18.2659L96.7725 14.1367L95.0764 18.2659H98.202Z" fill="#181818"/>
<path d="M110.208 13.7718H105.977V14.6738H106.76V22.8347H105.977V23.7366H110.208V22.8347H109.425V18.8657H109.868C110.524 18.8657 111.255 19.0423 111.567 20.3971L111.934 21.9288C112.326 23.587 112.981 24.017 114.679 24.017C115.123 24.017 115.618 23.967 115.798 23.9171V22.9075C114.939 22.9075 114.783 22.5583 114.6 21.8522L114.236 20.3241C114.052 19.568 113.632 18.4663 111.882 18.2898V18.0632C112.378 17.9367 112.769 17.6872 112.901 17.2341L113.213 16.1055C113.293 15.7794 113.609 15.3264 114.18 15.3264C114.519 15.3264 114.679 15.3763 115.147 15.7295V13.5952C114.911 13.5452 114.703 13.5186 114.288 13.5186C113.449 13.5186 112.298 13.6951 112.014 14.7468L111.567 16.3321C111.307 17.2341 111.071 17.7371 110.156 17.7371H109.425V14.6736H110.208V13.7717V13.7718Z" fill="#181818"/>
<path d="M133.542 14.6764H134.325V13.7743H130.094V14.6764H130.877V22.8373H130.094V23.739L134.327 23.7373V22.8351H133.544V22.8335L136.491 17.3793L136.495 22.8373H135.712V23.739H139.943V22.8373H139.16V14.6764H139.943V13.7743L135.714 13.7725V14.6743H136.495V14.6764L133.554 20.142L133.542 14.6764Z" fill="#181818"/>
<path d="M141.992 19.4683C141.992 21.8058 143.167 23.9941 146.619 23.9941C150.068 23.9941 151.242 21.8058 151.242 19.4683V18.0366C151.242 15.7026 150.04 13.5186 146.591 13.5186C143.143 13.5186 141.992 15.7026 141.992 18.0366V19.4683ZM144.917 17.0845C144.917 15.8254 145.125 14.6471 146.619 14.6471C148.11 14.6471 148.317 15.8254 148.317 17.0845V20.424C148.317 21.6793 148.11 22.8615 146.619 22.8615C145.125 22.8615 144.917 21.6793 144.917 20.424V17.0845Z" fill="#181818"/>
<path d="M153.305 13.7725V14.6744H154.088V22.8354H153.305V23.7373H157.536V22.8354H156.753V18.6665H159.63V22.8354H158.847V23.7373H163.078V22.8354H162.295V14.6744H163.078V13.7725H158.847V14.6744H159.63V17.5381H156.753V14.6744H157.536V13.7725H153.305Z" fill="#181818"/>
<path d="M117.805 22.8354V23.7373H126.192L126.795 27.8598H128.05L128.649 23.7413V22.8354H126.744V14.6744H127.527V13.7725H123.295V14.6744H124.078V22.6088H121.253V14.6744H122.036V13.7725H117.805V14.6744H118.588V22.8354H117.805Z" fill="#181818"/>
<path d="M165.156 19.4077C165.156 21.7453 166.331 23.9334 169.779 23.9334C171.609 23.9294 172.968 23.3498 173.491 23.0237V20.8125H172.237C172.053 21.8452 171.689 22.7742 170.171 22.7742C168.525 22.7742 168.081 21.6456 168.081 20.3365V18.7552H172.812C173.699 18.7552 173.831 18.3521 173.831 17.7532C173.831 15.5422 172.709 13.458 169.779 13.458C166.331 13.458 165.156 15.6419 165.156 17.976V19.4077H165.156ZM168.081 17.6266V17.024C168.081 15.7687 168.289 14.5866 169.779 14.5866C171.27 14.5866 171.478 15.7687 171.478 17.024V17.6266H168.081Z" fill="#181818"/>
<path d="M176.565 27.3271H175.781V28.2295H180.014V27.3271H179.231V23.1265C179.862 23.6871 180.934 23.9366 181.769 23.9366C184.671 23.9366 185.482 21.6751 185.482 19.6131V17.7778C185.482 15.7158 184.671 13.458 181.769 13.458C180.853 13.458 179.782 13.6847 178.815 14.5641L178.343 13.7115H175.781V14.6138H176.565V27.3271ZM179.231 15.5929C179.574 15.2396 180.278 14.9134 180.985 14.9134C182.292 14.9134 182.5 16.1189 182.5 17.3747V20.0163C182.5 21.2718 182.292 22.4777 180.985 22.4777C180.278 22.4737 179.57 22.1474 179.231 21.7942V15.5927V15.5929Z" fill="#181818"/>
<path d="M187.547 13.7725V14.6744H188.33V22.8354H187.547V23.7373H191.778V22.8354H190.995V18.6665H193.872V22.8354H193.089V23.7373H197.321V22.8354H196.538V14.6744H197.321V13.7725H193.089V14.6744H193.872V17.5381H190.995V14.6744H191.778V13.7725H187.547Z" fill="#181818"/>
<path d="M199.609 19.4674C199.609 21.8048 200.784 23.993 204.237 23.993C207.685 23.993 208.86 21.8048 208.86 19.4674V18.0356C208.86 15.7015 207.657 13.5176 204.209 13.5176C200.76 13.5176 199.609 15.7015 199.609 18.0356V19.4674ZM202.534 17.0835C202.534 15.8244 202.742 14.6462 204.236 14.6462C205.727 14.6462 205.934 15.8244 205.934 17.0835V20.423C205.934 21.6783 205.727 22.8604 204.236 22.8604C202.742 22.8604 202.534 21.6783 202.534 20.423V17.0835Z" fill="#181818"/>
<path d="M211.078 19.4674C211.078 21.8048 212.253 23.993 215.701 23.993C217.531 23.9891 218.89 23.4094 219.413 23.0833V20.8721H218.159C217.975 21.9047 217.611 22.8338 216.093 22.8338C214.447 22.8338 214.003 21.7052 214.003 20.3961V18.8148H218.734C219.621 18.8148 219.753 18.4117 219.753 17.8127C219.753 15.6018 218.63 13.5176 215.701 13.5176C212.253 13.5176 211.078 15.7015 211.078 18.0356V19.4674H211.078ZM214.003 17.6862V17.0835C214.003 15.8284 214.211 14.6462 215.701 14.6462C217.192 14.6462 217.4 15.8284 217.4 17.0835V17.6862H214.003Z" fill="#181818"/>
<path d="M229.273 19.4664C229.273 21.8039 230.448 23.992 233.901 23.992C237.349 23.992 238.524 21.8039 238.524 19.4664V18.0346C238.524 15.7005 237.321 13.5166 233.873 13.5166C230.424 13.5166 229.273 15.7005 229.273 18.0346V19.4664ZM232.198 17.0826C232.198 15.8234 232.406 14.6452 233.901 14.6452C235.391 14.6452 235.599 15.8234 235.599 17.0826V20.422C235.599 21.6772 235.391 22.8594 233.901 22.8594C232.406 22.8594 232.198 21.6772 232.198 20.422V17.0826Z" fill="#181818"/>
<path d="M240.352 15.5807V19.2304C240.352 21.5579 241.521 23.7363 244.959 23.7363C248.392 23.7363 249.562 21.5579 249.562 19.2304V17.8049C249.562 15.4812 248.392 13.3066 244.959 13.3066C243.268 13.3066 241.836 14.6558 241.549 15.6304V14.7819C241.549 12.8825 241.967 10.8339 245.738 10.509L248.078 10.3103C248.495 10.2836 248.782 10.1843 249.041 10.0352L249.223 7.78418C248.937 7.91033 248.702 7.98666 248.34 8.00971L245.607 8.2351C241.004 8.60956 240.352 12.8328 240.352 15.5807H240.352ZM243.264 16.8571C243.264 15.6035 243.471 14.4303 244.959 14.4303C246.443 14.4303 246.649 15.6035 246.649 16.8571V20.1822C246.649 21.4319 246.443 22.6089 244.959 22.6089C243.471 22.6089 243.264 21.4319 243.264 20.1822V16.8571Z" fill="#181818"/>
<path d="M251.82 22.8347V23.7363C256.449 23.738 261.073 23.7363 265.698 23.7363L266.301 27.8588H267.556L268.155 23.7401V22.8347H266.249V14.6735H267.032V13.7715H262.801V14.6735H263.584V22.6078H260.759V14.6735H261.542V13.7715H257.311V14.6735H258.094V22.6078H255.269V14.6735H256.052V13.7715H251.82V14.6735H252.604V22.8347H251.82Z" fill="#181818"/>
<path d="M268.758 19.4664C268.758 21.8039 269.933 23.992 273.381 23.992C275.211 23.988 276.57 23.4084 277.093 23.0823V20.8711H275.838C275.655 21.9038 275.291 22.8328 273.772 22.8328C272.126 22.8328 271.683 21.7042 271.683 20.3951V18.8138H276.414C277.301 18.8138 277.433 18.4107 277.433 17.8118C277.433 15.6008 276.31 13.5166 273.381 13.5166C269.933 13.5166 268.758 15.7005 268.758 18.0346V19.4664ZM271.683 17.6852V17.0826C271.683 15.8274 271.89 14.6452 273.381 14.6452C274.871 14.6452 275.079 15.8274 275.079 17.0826V17.6852H271.683Z" fill="#181818"/>
<path d="M295.576 14.901H296.833L297.644 17.1619H298.818L298.583 13.7725H289.908L289.672 17.1619H290.847L291.658 14.901H292.925L292.912 22.8355H292.129V23.7374H296.361V22.8355H295.578L295.576 14.901Z" fill="#181818"/>
<path d="M279.578 19.47C279.578 21.8039 280.753 23.992 284.202 23.992C285.664 23.988 286.631 23.6849 287.73 23.132V20.7215H286.423C286.319 21.6543 285.796 22.8594 284.202 22.8594C282.711 22.8594 282.503 21.6772 282.503 20.422V17.0826C282.503 15.6508 282.843 14.6452 284.046 14.6452C285.144 14.6452 285.3 15.6239 285.3 16.5795H287.73C287.73 14.5682 286.215 13.5166 284.202 13.5166C280.753 13.5166 279.578 15.7005 279.578 18.0346V19.47Z" fill="#181818"/>
<path d="M300.758 13.7725V14.6746H301.541V22.8355H300.758V23.7374H305.097C307.163 23.7374 309.329 23.1117 309.329 20.8739C309.329 19.542 308.442 18.69 306.795 18.3905V18.2369C308.23 17.8108 308.909 17.185 308.909 16.0067C308.909 14.4481 307.551 13.7725 306.008 13.7725H300.758ZM304.206 19.0161H305.121C305.908 19.0161 306.404 19.4921 306.404 20.0947V21.5305C306.404 22.133 305.908 22.6091 305.121 22.6091H304.206V19.0161ZM304.206 14.901H305.149C306.008 14.901 306.268 15.2504 306.268 15.9797V16.8088C306.268 17.5342 306.008 17.8874 305.145 17.8874H304.206V14.901Z" fill="#181818"/>
<path d="M310.969 19.4664C310.969 21.8039 312.144 23.992 315.596 23.992C319.044 23.992 320.219 21.8039 320.219 19.4664V18.0346C320.219 15.7005 319.016 13.5166 315.568 13.5166C312.12 13.5166 310.969 15.7005 310.969 18.0346V19.4664ZM313.894 17.0826C313.894 15.8234 314.101 14.6452 315.596 14.6452C317.086 14.6452 317.294 15.8234 317.294 17.0826V20.422C317.294 21.6772 317.086 22.8594 315.596 22.8594C314.101 22.8594 313.894 21.6772 313.894 20.422V17.0826Z" fill="#181818"/>
<path d="M176.164 36.6634H176.849V35.8746H173.148V36.6634H173.833V43.8005H173.148V44.589L176.851 44.5874V43.7985H176.166V43.7972L178.743 39.0271L178.747 43.8005H178.061V44.589H181.762V43.8005H181.077V36.6634H181.762V35.8746L178.063 35.873V36.6615H178.747V36.6634L176.175 41.4433L176.164 36.6634Z" fill="#181818"/>
<path d="M304.883 36.6635H305.568V35.8746H301.867V36.6635H302.552V43.8005H301.867V44.589L305.569 44.5874V43.7985H304.884V43.7972L307.461 39.0272L307.465 43.8005H306.78V44.589H310.481V43.8005H309.796V36.6635H310.481V35.8746L306.782 35.873V36.6615H307.465V36.6635L304.893 41.4433L304.883 36.6635Z" fill="#181818"/>
<path d="M296.99 59.4884H298.031V58.2894H292.406V59.4884H293.447V70.3335H292.406V71.5318L298.034 71.5296V70.3305H296.992V70.3285L300.909 63.0802L300.915 70.3335H299.874V71.5318H305.498V70.3335H304.458V59.4884H305.498V58.2894L299.877 58.2871V59.4855H300.915V59.4884L297.006 66.7517L296.99 59.4884Z" fill="#181818"/>
<path d="M320.274 58.291H313.608C312.254 58.291 308.887 58.3269 308.887 61.5258C308.887 63.9647 310.449 64.6636 312.392 64.6636V64.9952C310.486 65.6278 310.066 65.9647 309.652 67.3677L309.025 69.4341C308.818 70.1025 308.574 70.4035 307.602 70.5361V71.8778H309.583C310.624 71.8778 311.978 71.5769 312.461 69.934L313.433 66.6992C313.709 65.7657 314.023 65.3981 315.69 65.3981V70.337H314.649V71.536H320.274V70.337H319.233V59.4901H320.274V58.291ZM315.69 59.7911V64.0616H314.612C313.401 64.0616 312.775 63.5258 312.775 61.9594C312.775 60.3932 313.401 59.7911 314.581 59.7911H315.69Z" fill="#181818"/>
<path d="M262.688 65.8633C262.688 68.9704 264.249 71.8785 268.832 71.8785C271.265 71.8736 273.071 71.1031 273.766 70.6695V67.7307H272.099C271.854 69.1031 271.371 70.3377 269.353 70.3377C267.165 70.3377 266.575 68.8378 266.575 67.0979V64.9959H272.863C274.043 64.9959 274.218 64.4601 274.218 63.6641C274.218 60.7254 272.725 57.9551 268.832 57.9551C264.249 57.9551 262.688 60.858 262.688 63.9601V65.8633ZM266.575 63.496V62.6949C266.575 61.0265 266.851 59.4552 268.832 59.4552C270.813 59.4552 271.089 61.0265 271.089 62.6949V63.496H266.575Z" fill="#181818"/>
<path d="M227.031 65.8633C227.031 68.9704 228.593 71.8785 233.176 71.8785C235.609 71.8736 237.414 71.1031 238.11 70.6695V67.7307H236.442C236.198 69.1031 235.715 70.3377 233.697 70.3377C231.509 70.3377 230.919 68.8378 230.919 67.0979V64.9959H237.207C238.386 64.9959 238.562 64.4601 238.562 63.6641C238.562 60.7254 237.069 57.9551 233.176 57.9551C228.593 57.9551 227.031 60.858 227.031 63.9601V65.8633ZM230.919 63.496V62.6949C230.919 61.0265 231.195 59.4552 233.176 59.4552C235.157 59.4552 235.433 61.0265 235.433 62.6949V63.496H230.919Z" fill="#181818"/>
<path d="M197.133 65.8633C197.133 68.9704 198.694 71.8785 203.278 71.8785C205.71 71.8736 207.516 71.1031 208.212 70.6695V67.7307H206.544C206.3 69.1031 205.817 70.3377 203.798 70.3377C201.61 70.3377 201.021 68.8378 201.021 67.0979V64.9959H207.309C208.488 64.9959 208.663 64.4601 208.663 63.6641C208.663 60.7254 207.171 57.9551 203.278 57.9551C198.694 57.9551 197.133 60.858 197.133 63.9601V65.8633ZM201.021 63.496V62.6949C201.021 61.0265 201.297 59.4552 203.278 59.4552C205.259 59.4552 205.535 61.0265 205.535 62.6949V63.496H201.021Z" fill="#181818"/>
<path d="M212.353 76.3839H211.312V77.5828H216.937V76.3839H215.896V70.8022C216.735 71.5471 218.159 71.8785 219.268 71.8785C223.124 71.8785 224.202 68.8734 224.202 66.1336V63.6951C224.202 60.955 223.124 57.9551 219.268 57.9551C218.052 57.9551 216.629 58.2563 215.343 59.4245L214.717 58.2917H211.312V59.4907H212.353V76.3839ZM215.896 60.7917C216.353 60.3224 217.287 59.8888 218.228 59.8888C219.964 59.8888 220.24 61.4907 220.24 63.1593V66.6694C220.24 68.3378 219.964 69.9399 218.228 69.9399C217.287 69.9347 216.347 69.5011 215.896 69.0317V60.7917Z" fill="#181818"/>
<path d="M182.273 60.9901V65.8628C182.273 68.9698 183.835 71.878 188.424 71.878C193.007 71.878 194.569 68.9698 194.569 65.8628V63.9596C194.569 60.8575 193.007 57.9545 188.424 57.9545C186.167 57.9545 184.255 59.7555 183.872 61.0566V59.9239C183.872 57.3882 184.43 54.6534 189.465 54.2198L192.588 53.9544C193.145 53.9189 193.528 53.7862 193.873 53.5872L194.117 50.582C193.735 50.7504 193.421 50.8523 192.938 50.8831L189.289 51.184C183.144 51.684 182.273 57.3219 182.273 60.9901ZM186.161 62.6943C186.161 61.0208 186.437 59.4546 188.424 59.4546C190.405 59.4546 190.681 61.0208 190.681 62.6943V67.1332C190.681 68.8016 190.405 70.3729 188.424 70.3729C186.437 70.3729 186.161 68.8016 186.161 67.1332V62.6943Z" fill="#181818"/>
<path d="M123.803 53.919H125.125V52.4189H118.317V53.919H119.634V55.5874C119.007 55.4241 118.348 55.3884 117.722 55.3884C114.562 55.3884 111.922 56.5873 111.922 60.5926V63.0618C111.922 67.0671 114.562 68.266 117.722 68.266C118.348 68.266 119.007 68.2355 119.634 68.067V70.0365H118.317V71.5363H125.125V70.0365H123.803V68.067C124.429 68.2303 125.088 68.266 125.715 68.266C128.875 68.266 131.515 67.0671 131.515 63.0618V60.5926C131.515 56.5873 128.875 55.3884 125.715 55.3884C125.088 55.3884 124.429 55.4189 123.803 55.5874V53.919ZM119.634 57.2557V66.3986C119.357 66.5313 119.15 66.5976 118.768 66.5976C116.505 66.5976 116.091 64.7966 116.091 63.4293V60.225C116.091 58.8576 116.505 57.0567 118.768 57.0567C119.15 57.0567 119.357 57.1231 119.634 57.2557ZM123.803 57.2557C124.079 57.1231 124.291 57.0567 124.668 57.0567C126.931 57.0567 127.345 58.8576 127.345 60.225V63.4293C127.345 64.7966 126.931 66.5976 124.668 66.5976C124.291 66.5976 124.079 66.5313 123.803 66.3986V57.2557Z" fill="#181818"/>
<path d="M276.852 58.291V59.4901H277.892V70.337H276.852V71.536H282.476V70.337H281.435V64.7963H285.259V70.337H284.218V71.536H289.842V70.337H288.802V59.4901H289.842V58.291H284.218V59.4901H285.259V63.2963H281.435V59.4901H282.476V58.291H276.852Z" fill="#181818"/>
<path d="M252.346 59.4907H253.387V58.2917H247.763V59.4907H248.804V63.5624H248.421C247.205 63.5624 246.892 62.8939 246.546 61.695L245.957 59.5928C245.574 58.1899 244.045 57.9551 242.93 57.9551C242.377 57.9551 242.101 57.9908 241.788 58.0571V60.8939C242.409 60.4244 242.622 60.3581 243.073 60.3581C243.838 60.3581 244.252 60.9602 244.358 61.3938L244.772 62.8939C244.948 63.496 245.468 63.8275 246.127 63.996V64.2969C243.801 64.5316 243.243 65.996 243.004 67.0011L242.515 69.0317C242.271 69.9705 242.064 70.4346 240.922 70.4346V71.7768C241.166 71.8428 241.825 71.9092 242.409 71.9092C244.672 71.9092 245.537 71.3378 246.058 69.1338L246.546 67.098C246.961 65.2971 247.938 65.0622 248.804 65.0622V70.3377H247.763V71.5367H253.387V70.3377H252.346V65.0622C253.217 65.0622 254.189 65.2971 254.603 67.098L255.092 69.1338C255.613 71.3378 256.483 71.9092 258.741 71.9092C259.33 71.9092 259.994 71.8428 260.233 71.7768V70.4346C259.086 70.4346 258.879 69.9705 258.634 69.0317L258.151 67.0011C257.907 65.996 257.349 64.5316 255.023 64.2969V63.996C255.682 63.8275 256.202 63.496 256.377 62.8939L256.791 61.3938C256.898 60.9602 257.317 60.3581 258.077 60.3581C258.534 60.3581 258.741 60.4244 259.367 60.8939V58.0571C259.054 57.9908 258.773 57.9551 258.22 57.9551C257.105 57.9551 255.575 58.1899 255.193 59.5879L254.603 61.695C254.258 62.8939 253.945 63.5624 252.729 63.5624H252.346V59.4907Z" fill="#181818"/>
<path d="M169.596 61.0266C169.596 57.1847 170.536 55.251 172.968 55.251C174.881 55.2561 175.746 56.4194 176.129 58.3581H178.63V54.4857C176.931 53.4856 175.056 53.251 172.968 53.251C167.302 53.251 164.906 56.8837 164.906 61.3938V63.8275C164.906 68.3327 167.302 71.9755 172.968 71.9755C177 71.9755 179.639 69.3378 179.639 66.7663H175.784C175.784 68.4349 175.263 69.9706 172.968 69.9706C170.536 69.9706 169.596 68.0315 169.596 64.195V61.0266Z" fill="#181818"/>
<path d="M153.922 63.9297V66.2001H162.117V63.9297H153.922Z" fill="#181818"/>
<path d="M140.815 55.1847H142.132V53.6846H135.328V55.1847H136.645V70.0369H135.328V71.5367H142.132V70.0369H140.815V62.5927H141.824C142.828 62.5927 144.15 63.0571 144.458 64.3633L145.743 69.6694C146.232 71.6388 147.586 71.9755 149.567 71.9755C150.258 71.9755 150.953 71.9449 151.787 71.8429V70.205C150.295 70.205 149.912 69.8378 149.355 67.5369L148.595 64.3633C148.213 62.8276 146.752 62.098 145.016 61.996V61.5623C145.849 61.3275 146.232 61.1948 146.577 60.2613L147.655 57.4552C147.931 56.7509 148.521 56.3531 149.424 56.3531C149.806 56.3531 150.157 56.5213 150.783 56.9906V53.6182C150.295 53.3837 149.705 53.251 149.185 53.251C147.411 53.251 146.476 54.0829 145.812 55.751L144.32 59.6234C143.975 60.5214 143.279 60.7563 141.824 60.7563L140.815 60.7612V55.1847Z" fill="#181818"/>
<path d="M96.3068 55.1847H97.6239V53.6846H90.8203V55.1847H92.1376V70.0369H90.8203V71.5367H97.6239V70.0369H96.3068V62.4958H102.59V70.0369H101.273V71.5367H108.076V70.0369H106.759V55.1847H108.076V53.6846H101.273V55.1847H102.59V60.659H96.3068V55.1847Z" fill="#181818"/>
<path d="M320.213 35.7617H315.827C314.936 35.7617 312.721 35.7853 312.721 37.89C312.721 39.4947 313.748 39.9547 315.027 39.9547V40.1728C313.772 40.5892 313.497 40.8106 313.224 41.7337L312.811 43.0933C312.675 43.5328 312.515 43.731 311.875 43.8184V44.7013H313.178C313.863 44.7013 314.754 44.5032 315.072 43.4222L315.712 41.2941C315.893 40.6798 316.1 40.438 317.197 40.438V43.6876H316.512V44.4762H320.213V43.6876H319.528V36.5506H320.213V35.7617ZM317.197 36.7487V39.5584H316.488C315.691 39.5584 315.278 39.2059 315.278 38.1753C315.278 37.1449 315.691 36.7487 316.467 36.7487H317.197Z" fill="#181818"/>
<path d="M289.813 43.7976H289.128V38.3963C289.128 37.2313 288.74 35.6504 285.861 35.6504C283.617 35.6504 282.339 36.6374 282.339 38.1108H284.578C284.578 37.275 285.106 36.6374 285.7 36.6374C286.591 36.6374 286.798 37.3624 286.798 38.2419V39.2085C284.191 39.843 282.227 40.4137 282.227 42.5453C282.227 44.1498 283.188 44.8114 284.442 44.8114C285.515 44.8114 286.431 44.4353 287.185 43.952L287.688 44.5863H289.813V43.7976ZM286.798 43.0289C286.455 43.3578 285.906 43.4683 285.655 43.4683C285.061 43.4683 284.785 42.9413 284.785 42.1927C284.785 40.8535 285.494 40.4808 286.798 40.1955V43.0287V43.0289Z" fill="#181818"/>
<path d="M250.047 40.8537C250.047 42.8978 251.074 44.8114 254.093 44.8114C257.109 44.8114 258.136 42.8978 258.136 40.8537V39.6015C258.136 37.5603 257.085 35.6504 254.069 35.6504C251.053 35.6504 250.047 37.5603 250.047 39.6015V40.8537ZM252.605 38.7689C252.605 37.6678 252.786 36.6374 254.093 36.6374C255.397 36.6374 255.579 37.6678 255.579 38.7689V41.6894C255.579 42.7871 255.397 43.821 254.093 43.821C252.786 43.821 252.605 42.7871 252.605 41.6894V38.7689Z" fill="#181818"/>
<path d="M231.392 35.874H227.007C226.116 35.874 223.9 35.8976 223.9 38.0024C223.9 39.607 224.928 40.067 226.207 40.067V40.2852C224.952 40.7015 224.676 40.9229 224.404 41.8461L223.991 43.2056C223.855 43.6451 223.694 43.8433 223.055 43.9307V44.8137H224.358C225.043 44.8137 225.934 44.6157 226.252 43.5345L226.891 41.4065C227.073 40.7921 227.279 40.5503 228.377 40.5503V43.7999H227.692V44.5885H231.392V43.7999H230.708V36.6629H231.392V35.874ZM228.377 36.861V39.6708H227.667C226.87 39.6708 226.458 39.3182 226.458 38.2876C226.458 37.2572 226.87 36.861 227.646 36.861H228.377Z" fill="#181818"/>
<path d="M221.547 43.8006H220.863V38.3992C220.863 37.2343 220.474 35.6533 217.595 35.6533C215.352 35.6533 214.073 36.6403 214.073 38.1137H216.313C216.313 37.278 216.84 36.6403 217.434 36.6403C218.326 36.6403 218.532 37.3654 218.532 38.2448V39.2115C215.925 39.846 213.961 40.4167 213.961 42.5482C213.961 44.1529 214.922 44.8144 216.176 44.8144C217.249 44.8144 218.165 44.4383 218.92 43.955L219.423 44.5892H221.547V43.8006ZM218.532 43.0318C218.189 43.3607 217.64 43.4713 217.389 43.4713C216.795 43.4713 216.519 42.9443 216.519 42.1956C216.519 40.8564 217.228 40.4839 218.532 40.1984V43.0317V43.0318Z" fill="#181818"/>
<path d="M183.547 40.8556C183.547 42.8997 184.574 44.8135 187.594 44.8135C190.609 44.8135 191.637 42.8996 191.637 40.8556V39.6034C191.637 37.5622 190.585 35.6523 187.569 35.6523C184.553 35.6523 183.547 37.5622 183.547 39.6034V40.8556ZM186.105 38.7708C186.105 37.6697 186.286 36.6393 187.594 36.6393C188.897 36.6393 189.079 37.6697 189.079 38.7708V41.6914C189.079 42.789 188.897 43.8229 187.594 43.8229C186.286 43.8229 186.105 42.789 186.105 41.6914V38.7708Z" fill="#181818"/>
<path d="M124.25 40.8556C124.25 42.8997 125.277 44.8135 128.293 44.8135C129.894 44.81 131.082 44.303 131.539 44.0178V42.0841H130.442C130.282 42.9871 129.963 43.7996 128.635 43.7996C127.196 43.7996 126.808 42.8126 126.808 41.6678V40.2849H130.945C131.721 40.2849 131.837 39.9324 131.837 39.4087C131.837 37.4751 130.855 35.6523 128.293 35.6523C125.277 35.6523 124.25 37.5622 124.25 39.6034V40.8556ZM126.808 39.298V38.7708C126.808 37.6732 126.99 36.6393 128.293 36.6393C129.596 36.6393 129.778 37.6732 129.778 38.7708V39.298H126.808Z" fill="#181818"/>
<path d="M114.859 35.874V36.6629H115.544V43.7999H114.859V44.5885H118.654C120.461 44.5885 122.355 44.0414 122.355 42.0844C122.355 40.9197 121.579 40.1745 120.139 39.9126V39.7782C121.394 39.4056 121.988 38.8582 121.988 37.8278C121.988 36.4648 120.8 35.874 119.451 35.874H114.859ZM117.875 40.4597H118.675C119.364 40.4597 119.797 40.876 119.797 41.403V42.6585C119.797 43.1855 119.364 43.6018 118.675 43.6018H117.875V40.4597ZM117.875 36.861H118.7C119.451 36.861 119.678 37.1666 119.678 37.8043V38.5293C119.678 39.1638 119.451 39.4727 118.696 39.4727H117.875V36.861Z" fill="#181818"/>
<path d="M291.641 35.874V36.6628H292.326V43.7999H291.641V44.5884H295.341V43.7999H294.656V40.1541H297.173V43.7999H296.488V44.5884H300.188V43.7999H299.503V36.6628H300.188V35.874H296.488V36.6628H297.173V39.1673H294.656V36.6628H295.341V35.874H291.641Z" fill="#181818"/>
<path d="M271.93 35.874V36.6628H272.615V43.7999H271.93V44.5884H275.63V43.7999H274.945V36.861H277.528V43.7999H276.843V44.5884H280.543V43.7999H279.859V36.6628H280.543V35.874H271.93Z" fill="#181818"/>
<path d="M259.805 35.874V36.6628H260.49V43.7999H259.805V44.5884H262.202V43.7999H261.517L261.512 37.1703L263.988 42.4133H264.788L267.276 37.1847L267.276 43.7999H266.591V44.5884H270.291V43.7999H269.606V36.6628H270.291V35.874H266.797L264.948 39.7581L263.117 35.874H259.805Z" fill="#181818"/>
<path d="M243.521 35.8747H239.82V36.6636H240.505V43.8006H239.82V44.5892H243.521V43.8006H242.836V40.3296H243.224C243.797 40.3296 244.436 40.484 244.709 41.6688L245.031 43.0082C245.373 44.4584 245.946 44.8346 247.431 44.8346C247.819 44.8346 248.252 44.7909 248.41 44.7472V43.8641C247.658 43.8641 247.522 43.5588 247.361 42.9412L247.043 41.605C246.882 40.9437 246.516 39.9803 244.985 39.8259V39.6278C245.418 39.5171 245.761 39.2989 245.876 38.9026L246.149 37.9157C246.219 37.6305 246.495 37.2343 246.994 37.2343C247.291 37.2343 247.431 37.278 247.84 37.5868V35.7203C247.634 35.6766 247.452 35.6533 247.089 35.6533C246.355 35.6533 245.348 35.8077 245.1 36.7274L244.709 38.1139C244.482 38.9028 244.276 39.3426 243.475 39.3426H242.836V36.6637H243.521V35.8749V35.8747Z" fill="#181818"/>
<path d="M203.711 35.874V36.6628H204.396V43.7999H203.711V44.5884H207.411V43.7999H206.727V40.1541H209.243V43.7999H208.558V44.5884H212.258V43.7999H211.574V36.6628H212.258V35.874H208.558V36.6628H209.243V39.1673H206.727V36.6628H207.411V35.874H203.711Z" fill="#181818"/>
<path d="M193.438 35.874V36.6628H194.123V43.7999H193.438V44.5884H197.138V43.7999H196.453V40.1541H198.969V43.7999H198.284V44.5884H201.985V43.7999H201.3V36.6628H201.985V35.874H198.284V36.6628H198.969V39.1673H196.453V36.6628H197.138V35.874H193.438Z" fill="#181818"/>
<path d="M162.383 43.7999V44.5884H169.718L170.245 48.1939H171.343L171.867 44.5921V43.7999H170.2V36.6628H170.885V35.874H167.184V36.6628H167.869V43.6017H165.399V36.6628H166.083V35.874H162.383V36.6628H163.068V43.7999H162.383Z" fill="#181818"/>
<path d="M155.039 36.6635H155.724V35.8746H152.023V36.6635H152.708V43.8005H152.023V44.589L155.726 44.5875V43.7986H155.041V43.7973L157.618 39.0274L157.622 43.8005H156.937V44.589H160.637V43.8005H159.953V36.6635H160.637V35.8746L156.938 35.873V36.6615H157.622V36.6635L155.05 41.4433L155.039 36.6635Z" fill="#181818"/>
<path d="M147.702 36.861H148.801L149.511 38.8383H150.538L150.332 35.874H142.745L142.539 38.8383H143.567L144.276 36.861H145.384L145.373 43.7999H144.688V44.5884H148.389V43.7999H147.704L147.702 36.861Z" fill="#181818"/>
<path d="M133.719 40.8598C133.719 42.9007 134.746 44.8144 137.762 44.8144C139.041 44.811 139.887 44.5458 140.848 44.0622V41.9542H139.705C139.614 42.7699 139.156 43.8239 137.762 43.8239C136.458 43.8239 136.277 42.79 136.277 41.6924V38.7718C136.277 37.5198 136.574 36.6403 137.626 36.6403C138.587 36.6403 138.723 37.4962 138.723 38.3319H140.848C140.848 36.573 139.523 35.6533 137.762 35.6533C134.746 35.6533 133.719 37.5632 133.719 39.6044V40.8598H133.719Z" fill="#181818"/>
<path d="M104.516 35.874V36.6628H105.201V43.7999H104.516V44.5884H108.216V43.7999H107.531V40.1541H110.048V43.7999H109.362V44.5884H113.063V43.7999H112.378V36.6628H113.063V35.874H109.362V36.6628H110.048V39.1673H107.531V36.6628H108.216V35.874H104.516Z" fill="#181818"/>
<path d="M94.4693 33.8299H95.3391V32.8428H90.8594V33.8299H91.7259V43.6016H90.8594V44.5883L95.3378 44.5887V43.6016H94.4693L98.7205 35.9168L98.7217 43.6016H97.8518V44.5883H102.332V43.6016H101.461V33.8299H102.328V32.8428L97.8505 32.8432V33.8299H98.7185L94.4693 41.5171V33.8299Z" fill="#181818"/>
<path fill-rule="evenodd" clip-rule="evenodd" d="M42.8189 1.16797C54.0686 1.16797 64.2694 5.49123 71.7302 12.5035V69.4934C64.2693 76.5054 54.0686 80.8295 42.8189 80.8295C19.9641 80.8295 1.42969 62.993 1.42969 40.9989C1.42969 19.0045 19.9641 1.1681 42.8189 1.1681V1.16797Z" fill="#FEFEFE"/>
<path fill-rule="evenodd" clip-rule="evenodd" d="M42.6791 4.16208C46.6011 4.16208 50.384 4.72743 53.9474 5.77661V15.38C51.4402 14.3675 48.7668 13.6626 45.9755 13.3145V15.1963C49.528 15.6699 52.9983 16.7352 56.053 18.5495V6.46118C62.1589 8.64053 67.533 12.2698 71.7203 16.9133L71.7308 16.9255L63.2874 28.8573V32.3695L63.3617 32.4178L71.7203 20.6138V61.6745L63.3533 49.8474L63.2874 49.8903V53.4255L71.6681 65.2634C67.4914 69.8758 62.1435 73.483 56.0681 75.6547V67.2998C55.3827 67.6684 54.6805 68.0109 53.9625 68.3258V76.3414C50.3949 77.3945 46.6058 77.9617 42.6791 77.9617C41.3537 77.9617 40.0435 77.8972 38.752 77.7711V72.5474L38.7561 72.5481V70.6742C38.0506 70.6009 37.3438 70.505 36.6541 70.3839L36.6473 77.507C31.3 76.6966 26.3199 74.8231 21.9458 72.123V43.2774H19.8403V70.7265C10.3938 64.0041 4.26766 53.2198 4.26766 41.0622C4.26766 28.9043 10.3938 18.119 19.8403 11.3963V35.6033H10.5512V37.6257H21.9477L21.9458 10.0354H21.8872C26.2768 7.31507 31.278 5.43012 36.6508 4.61606V13.4876C33.9677 13.9265 31.4019 14.6987 29.0002 15.7545V17.819C31.997 16.3932 35.2849 15.4471 38.756 15.0885V14.7518H38.7569V4.35257C40.0462 4.22682 41.3549 4.16221 42.6789 4.16221L42.6791 4.16208V4.16208ZM38.8106 63.7952C35.169 63.3026 31.8131 61.9521 28.9721 59.9642V57.2711C31.1774 59.1017 33.8093 60.4727 36.704 61.2277L36.7052 22.3519C37.3922 22.1922 38.092 22.0635 38.8019 21.9671L38.8089 61.6593H38.8105V63.7952H38.8106ZM54.0643 25.2884C54.7731 25.7416 55.5158 26.2771 56.1634 26.8043L56.1718 58.9309C53.3619 61.375 49.5424 63.0202 45.832 63.6647V61.5143C48.8922 60.9211 51.6954 59.6486 54.0665 57.8692L54.0643 25.2883V25.2884V25.2884ZM42.6792 0C53.8971 0 64.1024 4.16114 71.7209 10.9622V14.4502C64.4166 7.07915 54.1057 2.48547 42.6792 2.48547C20.5407 2.48547 2.58706 19.733 2.58706 41.0003C2.58706 62.2682 20.5407 79.5153 42.6792 79.5153C54.1057 79.5153 64.4167 74.9199 71.7209 67.5493V71.0373C64.1022 77.8379 53.8971 82 42.6792 82C19.1126 82 0 63.6397 0 41.0003C0 18.3603 19.1126 0 42.6792 0V0Z" fill="url(#paint0_radial_1_152)"/>
<defs>
<radialGradient id="paint0_radial_1_152" cx="0" cy="0" r="1" gradientUnits="userSpaceOnUse" gradientTransform="translate(40.174 39.357) scale(25.2381 24.9277)">
<stop stop-color="#47993D"/>
<stop offset="1" stop-color="#337B43"/>
</radialGradient>
</defs>
</svg>
