<svg width="72" height="82" viewBox="0 0 72 82" fill="none" xmlns="http://www.w3.org/2000/svg">
<path fill-rule="evenodd" clip-rule="evenodd" d="M42.6791 4.16208C46.6011 4.16208 50.384 4.72743 53.9474 5.77661V15.38C51.4402 14.3675 48.7668 13.6626 45.9755 13.3145V15.1963C49.528 15.6699 52.9983 16.7352 56.053 18.5495V6.46118C62.1589 8.64053 67.533 12.2698 71.7203 16.9133L71.7308 16.9255L63.2874 28.8573V32.3695L63.3617 32.4178L71.7203 20.6138V61.6745L63.3533 49.8474L63.2874 49.8903V53.4255L71.6681 65.2634C67.4914 69.8758 62.1435 73.483 56.0681 75.6547V67.2998C55.3827 67.6684 54.6805 68.0109 53.9625 68.3258V76.3414C50.3949 77.3945 46.6058 77.9617 42.6791 77.9617C41.3537 77.9617 40.0435 77.8972 38.752 77.771V72.5474L38.7561 72.5481V70.6742C38.0506 70.6009 37.3438 70.505 36.6541 70.3839L36.6473 77.507C31.3 76.6966 26.3199 74.8231 21.9458 72.123V43.2774H19.8403V70.7265C10.3938 64.0041 4.26766 53.2198 4.26766 41.0622C4.26766 28.9043 10.3938 18.119 19.8403 11.3963V35.6033H10.5512V37.6257H21.9477L21.9458 10.0354H21.8872C26.2768 7.31507 31.278 5.43012 36.6508 4.61606V13.4876C33.9677 13.9265 31.4019 14.6987 29.0002 15.7545V17.819C31.997 16.3932 35.2849 15.4471 38.756 15.0885V14.7518H38.7569V4.35257C40.0462 4.22682 41.3549 4.16221 42.6789 4.16221L42.6791 4.16208ZM38.8106 63.7952C35.169 63.3026 31.8131 61.9521 28.9721 59.9642V57.2711C31.1774 59.1017 33.8093 60.4727 36.704 61.2277L36.7052 22.3519C37.3922 22.1922 38.092 22.0635 38.8019 21.9671L38.8089 61.6593H38.8105V63.7952H38.8106ZM54.0643 25.2884C54.7731 25.7416 55.5158 26.2771 56.1634 26.8043L56.1718 58.9309C53.3619 61.375 49.5424 63.0202 45.832 63.6647V61.5143C48.8922 60.9211 51.6954 59.6486 54.0665 57.8692L54.0643 25.2883V25.2884ZM42.6792 0C53.8971 0 64.1024 4.16114 71.7209 10.9622V14.4502C64.4166 7.07915 54.1057 2.48547 42.6792 2.48547C20.5407 2.48547 2.58706 19.733 2.58706 41.0003C2.58706 62.2682 20.5407 79.5153 42.6792 79.5153C54.1057 79.5153 64.4167 74.9199 71.7209 67.5493V71.0373C64.1022 77.8379 53.8971 82 42.6792 82C19.1126 82 0 63.6397 0 41.0003C0 18.3603 19.1126 0 42.6792 0V0Z" fill="url(#paint0_radial_1_211)"/>
<defs>
<radialGradient id="paint0_radial_1_211" cx="0" cy="0" r="1" gradientUnits="userSpaceOnUse" gradientTransform="translate(40.174 39.357) scale(25.2381 24.9277)">
<stop stop-color="#47993D"/>
<stop offset="1" stop-color="#337B43"/>
</radialGradient>
</defs>
</svg>
