<svg width="314" height="82" viewBox="0 0 314 82" fill="none" xmlns="http://www.w3.org/2000/svg">
<path fill-rule="evenodd" clip-rule="evenodd" d="M69.6678 70.1999V66.9659C62.5844 74.8242 52.3347 79.7621 40.9344 79.7621C19.5606 79.7621 2.23509 62.4088 2.23509 41.0014C2.23509 19.5942 19.5605 2.23965 40.9344 2.23965C52.3352 2.23965 62.5849 7.17784 69.6678 15.0368V11.7998C62.2776 4.50291 52.1305 -0.000244141 40.9344 -0.000244141C18.326 -0.000244141 0 18.3558 0 41.0003C0 63.6431 18.3265 81.9998 40.9344 81.9998C52.1296 81.9998 62.2776 77.4965 69.6678 70.1996V70.1999ZM69.6678 63.8442V56.7842H62.6192L62.6212 56.7877V63.8478V70.6359C62.497 70.7272 62.3728 70.8183 62.2475 70.9075C56.217 75.2271 48.831 77.7684 40.8529 77.7684C20.5166 77.7684 4.02972 61.2551 4.02972 40.887C4.02972 28.1284 10.4972 16.8835 20.3269 10.2603C21.9554 9.16398 23.677 8.19233 25.4753 7.36392H27.3759H34.4245V14.424H41.4731V7.36392H48.5216V14.424H41.4731V21.4839H48.5216V28.544V35.604H55.5702V42.6641H62.6188V49.724H55.5702V42.6641H48.5216V49.724H41.4731V56.7841H48.5216H55.5702V63.844H62.6188H69.6674L69.6678 63.8442ZM69.6678 35.6036V28.5436H62.6192V35.6036H69.6678ZM20.3239 14.4221H27.3724V21.4822H20.3239V14.4221ZM34.4226 63.8456H27.374V56.7857H34.4226V63.8456ZM34.4226 35.6036V28.5436H41.4712V35.6036H34.4226Z" fill="url(#paint0_radial_1_118)"/>
<path d="M193.559 38.199V37.623H198.14V38.199C197.741 38.3002 197.485 38.4397 197.374 38.6197C197.26 38.802 197.207 39.1412 197.207 39.643C200.516 39.6666 202.173 40.9824 202.173 43.5929C202.173 46.278 200.516 47.6537 197.207 47.7197C197.207 48.2595 197.26 48.6268 197.374 48.8116C197.484 48.9997 197.741 49.1392 198.14 49.2414V49.8174H193.559V49.2414C193.932 49.1524 194.182 49.0205 194.307 48.848C194.433 48.672 194.499 48.2957 194.504 47.7209C192.899 47.7209 191.66 47.3866 190.789 46.718C189.92 46.053 189.484 45.0628 189.484 43.753C189.484 42.4587 189.917 41.456 190.78 40.7454C191.645 40.0351 192.886 39.6687 194.504 39.645C194.498 39.1017 194.427 38.7494 194.29 38.5829C194.153 38.4161 193.908 38.2906 193.56 38.2008L193.559 38.1989L193.559 38.199ZM194.504 46.7818V40.5944C192.984 40.7174 192.225 41.7047 192.225 43.5568C192.225 44.5272 192.425 45.2872 192.824 45.8483C193.223 46.4063 193.783 46.7196 194.504 46.7818ZM197.208 40.5944V46.7818C197.911 46.7247 198.459 46.4295 198.852 45.8977C199.246 45.3696 199.441 44.681 199.441 43.8364C199.441 41.8319 198.697 40.751 197.207 40.5934L197.208 40.5943V40.5944ZM214.207 47.6232C214.207 48.2108 214.257 48.6016 214.359 48.7981C214.46 48.9922 214.72 49.1382 215.13 49.2397V49.8157H210.577V49.2397C210.997 49.1382 211.257 49.0039 211.355 48.8309C211.453 48.6613 211.504 48.2551 211.504 47.6222V44.2032C211.504 43.1717 211.531 42.3893 211.581 41.8526H211.531L207.384 47.6221C207.384 48.198 207.438 48.586 207.545 48.7881C207.652 48.9886 207.914 49.1373 208.325 49.2385V49.8145H203.745V49.2385C204.147 49.1373 204.403 48.9911 204.512 48.797C204.623 48.6 204.679 48.2094 204.679 47.6221V40.0864C204.679 39.4873 204.625 39.0926 204.522 38.9076C204.417 38.7196 204.158 38.5711 203.744 38.4603V37.8843H208.324V38.4603C207.913 38.5768 207.651 38.7318 207.544 38.9259C207.437 39.1165 207.384 39.5073 207.384 40.0949V43.9412C207.384 44.6699 207.363 45.2452 207.321 45.6625H207.375L211.503 39.8868C211.503 39.3977 211.449 39.0635 211.346 38.8852C211.241 38.7094 210.985 38.5656 210.578 38.4619V37.886H215.131V38.4619C214.727 38.5723 214.47 38.7246 214.366 38.9124C214.261 39.1039 214.209 39.4973 214.209 40.0967V47.6237L214.207 47.6232H214.207ZM227.104 47.6232C227.104 48.0705 227.125 48.3779 227.161 48.5457C227.2 48.7091 227.277 48.85 227.393 48.96C227.51 49.0703 227.72 49.1621 228.03 49.2397V49.8157H223.476V49.2397C223.812 49.1504 224.03 49.0639 224.128 48.977C224.23 48.8879 224.298 48.7661 224.339 48.6042C224.378 48.4426 224.398 48.1176 224.398 47.6232V44.1179H220.455V47.6232C220.455 47.8262 220.461 48.0143 220.473 48.1901C220.485 48.3659 220.505 48.5096 220.541 48.62C220.578 48.7302 220.628 48.822 220.694 48.8972C220.762 48.9747 220.855 49.0408 220.972 49.0942C221.088 49.151 221.231 49.199 221.398 49.2402V49.8159H216.817V49.2402C217.035 49.1807 217.204 49.1183 217.329 49.0521C217.454 48.9835 217.546 48.8915 217.607 48.7725C217.669 48.6534 217.708 48.5008 217.725 48.3196C217.744 48.1345 217.753 47.9017 217.753 47.6245V40.0888C217.753 39.8142 217.744 39.5845 217.728 39.3989C217.717 39.211 217.678 39.0624 217.615 38.9426C217.555 38.8259 217.462 38.7339 217.338 38.6593C217.213 38.5879 217.041 38.5223 216.817 38.4624V37.8864H221.398V38.4624C221.091 38.5514 220.879 38.6472 220.766 38.751C220.652 38.8558 220.572 38.9954 220.524 39.1653C220.479 39.3386 220.456 39.648 220.456 40.096V43.0171H224.4V40.096C224.4 39.6544 224.381 39.3468 224.343 39.1742C224.304 39.002 224.229 38.8638 224.116 38.7535C224.003 38.6464 223.789 38.5514 223.475 38.4612V37.8853H228.03V38.4612C227.774 38.5328 227.587 38.6074 227.471 38.6851C227.354 38.7628 227.27 38.8638 227.224 38.9863C227.173 39.1093 227.143 39.2462 227.128 39.3979C227.113 39.5506 227.104 39.7835 227.104 40.0959V47.6229L227.104 47.6232ZM235.918 46.1197H232.192L231.906 46.9489C231.823 47.1819 231.757 47.4084 231.704 47.6257C231.654 47.8435 231.626 48.0761 231.626 48.3206C231.626 48.8901 231.927 49.1968 232.535 49.2398V49.8158H228.809V49.2398C229.023 49.216 229.211 49.1384 229.375 49.0095C229.538 48.8814 229.685 48.708 229.818 48.488C229.951 48.2643 230.096 47.9482 230.247 47.534L233.887 37.8231H236.216L239.096 47.6147C239.224 48.0496 239.332 48.3605 239.418 48.5455C239.504 48.7279 239.618 48.8766 239.757 48.9894C239.897 49.1034 240.093 49.1864 240.344 49.2393V49.8153H235.524V49.2393C235.828 49.2032 236.052 49.1203 236.198 48.9859C236.343 48.8524 236.415 48.6609 236.415 48.4163C236.415 48.2375 236.394 48.0346 236.356 47.8132C236.314 47.5921 236.248 47.3125 236.153 46.9759L235.917 46.1192L235.918 46.1198L235.918 46.1197ZM232.526 45.0967H235.665L234.271 40.1769L232.525 45.0967H232.526ZM251.651 47.6233C251.651 48.0706 251.672 48.378 251.708 48.5458C251.747 48.7092 251.824 48.8502 251.94 48.9602C252.057 49.0704 252.267 49.1623 252.577 49.2398V49.8158H248.023V49.2398C248.359 49.1505 248.577 49.064 248.675 48.9771C248.776 48.8881 248.845 48.7662 248.886 48.6043C248.925 48.4428 248.945 48.1177 248.945 47.6233V44.1181H245.002V47.6233C245.002 47.8263 245.008 48.0144 245.02 48.1902C245.031 48.366 245.052 48.5098 245.088 48.6202C245.125 48.7303 245.175 48.8221 245.241 48.8973C245.309 48.9748 245.402 49.0409 245.519 49.0943C245.635 49.1512 245.778 49.1991 245.945 49.2403V49.8161H241.364V49.2403C241.582 49.1808 241.751 49.1185 241.876 49.0523C242.001 48.9836 242.093 48.8917 242.153 48.7726C242.216 48.6535 242.255 48.501 242.272 48.3197C242.29 48.1347 242.299 47.9019 242.299 47.6246V40.0889C242.299 39.8144 242.29 39.5846 242.275 39.3991C242.264 39.2111 242.225 39.0626 242.162 38.9427C242.102 38.826 242.009 38.7341 241.885 38.6594C241.76 38.588 241.588 38.5225 241.364 38.4625V37.8865H245.945V38.4625C245.637 38.5516 245.425 38.6473 245.313 38.7511C245.199 38.8559 245.119 38.9956 245.071 39.1655C245.026 39.3387 245.003 39.6482 245.003 40.0961V43.0172H248.946V40.0961C248.946 39.6546 248.928 39.3469 248.89 39.1743C248.851 39.0021 248.776 38.8639 248.663 38.7537C248.55 38.6465 248.336 38.5516 248.022 38.4613V37.8855H252.577V38.4613C252.321 38.5329 252.133 38.6075 252.017 38.6852C251.901 38.7629 251.817 38.8639 251.77 38.9865C251.72 39.1094 251.69 39.2464 251.675 39.398C251.66 39.5507 251.651 39.7837 251.651 40.096V47.623L251.651 47.6233ZM262.925 38.1577V40.6903H261.739C261.599 40.0341 261.379 39.5475 261.075 39.237C260.774 38.9236 260.379 38.7685 259.89 38.7685C258.969 38.7685 258.276 39.2098 257.805 40.0936C257.332 40.9765 257.096 42.2859 257.096 44.0224C257.096 45.6364 257.313 46.8568 257.741 47.6887C258.173 48.5182 258.805 48.9323 259.636 48.9323C260.061 48.9323 260.407 48.8607 260.674 48.7176C260.939 48.5738 261.154 48.3628 261.315 48.0757C261.476 47.7895 261.613 47.3898 261.729 46.8708H262.923V49.5172C262.286 49.67 261.699 49.7798 261.172 49.8513C260.642 49.9198 260.09 49.9562 259.522 49.9562C258.313 49.9562 257.323 49.7384 256.558 49.3001C255.793 48.8643 255.23 48.2026 254.866 47.3212C254.502 46.4383 254.321 45.3203 254.321 43.9679C254.321 42.7033 254.535 41.6047 254.962 40.6689C255.391 39.7357 256.019 39.0138 256.851 38.5063C257.685 37.9987 258.68 37.7453 259.836 37.7453C260.426 37.7453 260.956 37.7775 261.433 37.8412C261.912 37.9072 262.41 38.0119 262.925 38.1582V38.1575L262.925 38.1577ZM269.459 49.9564C267.749 49.9564 266.465 49.4555 265.608 48.4526C264.75 47.451 264.321 45.9498 264.321 43.9515C264.321 42.6419 264.526 41.5198 264.944 40.5922C265.361 39.6615 265.971 38.9548 266.781 38.4708C267.588 37.9879 268.55 37.7463 269.667 37.7463C271.406 37.7463 272.714 38.2471 273.587 39.2462C274.46 40.2428 274.895 41.7283 274.895 43.698C274.895 44.7986 274.767 45.7443 274.508 46.535C274.248 47.3255 273.879 47.973 273.403 48.48C272.926 48.9875 272.355 49.3603 271.691 49.5981C271.024 49.8365 270.282 49.9554 269.46 49.9554L269.459 49.9565V49.9564ZM267.094 43.715C267.094 45.4752 267.306 46.7846 267.729 47.6438C268.15 48.5032 268.796 48.9317 269.662 48.9317C270.109 48.9317 270.49 48.8129 270.803 48.5705C271.119 48.326 271.372 47.9889 271.569 47.5562C271.762 47.1215 271.902 46.6075 271.986 46.0137C272.072 45.4172 272.113 44.7662 272.113 44.0532C272.113 42.8961 272.02 41.9232 271.836 41.1387C271.654 40.3571 271.377 39.7631 271.008 39.3669C270.638 38.9669 270.165 38.7678 269.59 38.7678C268.746 38.7678 268.118 39.1704 267.71 39.9792C267.299 40.7844 267.094 42.0316 267.094 43.7139L267.094 43.7148V43.715ZM284.174 43.566C284.987 43.8225 285.609 44.1954 286.035 44.6826C286.465 45.1693 286.679 45.7528 286.679 46.4335C286.679 47.0151 286.581 47.5218 286.384 47.9554C286.19 48.3852 285.893 48.7399 285.497 49.0169C285.097 49.2951 284.63 49.4972 284.091 49.6253C283.552 49.7533 282.867 49.8166 282.037 49.8166H276.66V49.2407C276.878 49.1815 277.047 49.1187 277.172 49.0529C277.297 48.9842 277.389 48.8922 277.45 48.7731C277.512 48.6542 277.551 48.5016 277.568 48.3202C277.586 48.1352 277.596 47.9024 277.596 47.6253V40.0896C277.596 39.8149 277.586 39.585 277.571 39.3996C277.56 39.2118 277.521 39.0631 277.458 38.943C277.398 38.8267 277.305 38.7345 277.181 38.66C277.056 38.5886 276.884 38.5229 276.66 38.4629V37.8869H282.375C283.028 37.8869 283.561 37.9193 283.972 37.9827C284.52 38.0685 284.994 38.2212 285.396 38.4357C285.757 38.6289 286.039 38.9044 286.241 39.2589C286.444 39.6137 286.548 40.0379 286.548 40.5274C286.548 41.8436 285.756 42.8306 284.175 43.4896V43.5675L284.174 43.5658L284.174 43.566ZM281.461 43.1131C282.041 43.1131 282.497 43.0287 282.831 42.8594C283.161 42.6898 283.412 42.451 283.584 42.1374C283.757 41.8272 283.84 41.3972 283.84 40.8486C283.84 40.3657 283.748 39.9829 283.564 39.7002C283.376 39.4172 283.111 39.2135 282.768 39.0921C282.425 38.9691 281.997 38.9096 281.483 38.9096C281.079 38.9096 280.683 38.9247 280.298 38.951V43.1132H281.46H281.461L281.461 43.1131ZM280.299 48.7671C280.642 48.7854 281.038 48.7944 281.484 48.7944C282.039 48.7944 282.493 48.7258 282.851 48.5888C283.208 48.4516 283.485 48.2134 283.686 47.8732C283.882 47.5331 283.98 47.0645 283.98 46.4705C283.98 46.0496 283.93 45.6915 283.825 45.3911C283.718 45.0897 283.563 44.848 283.352 44.6664C283.143 44.4817 282.893 44.3497 282.601 44.2638C282.313 44.1798 281.948 44.1384 281.511 44.1384H280.299V48.7686V48.7671H280.299ZM293.003 37.8867V38.4627C292.556 38.5341 292.267 38.6712 292.137 38.8742C292.005 39.0772 291.94 39.4824 291.94 40.0881V42.9549C292.715 42.8797 293.358 42.8409 293.867 42.8409C295.33 42.8409 296.405 43.1239 297.102 43.6949C297.796 44.262 298.145 45.1471 298.145 46.3469C298.145 48.6593 296.626 49.8167 293.591 49.8167H288.301V49.2409C288.703 49.1396 288.959 48.9935 289.069 48.7996C289.179 48.6025 289.235 48.212 289.235 47.6244V40.0887C289.235 39.4896 289.181 39.095 289.078 38.9103C288.973 38.7223 288.715 38.5735 288.3 38.4628V37.8868H293.003H293.003L293.003 37.8867ZM291.939 44.0145V48.7667C293.354 48.8739 294.29 48.7161 294.753 48.2945C295.215 47.8772 295.447 47.2383 295.447 46.3817C295.447 45.6183 295.269 45.0242 294.911 44.598C294.55 44.1711 293.901 43.96 292.96 43.96C292.65 43.96 292.31 43.9783 291.938 44.0136L291.939 44.0145H291.939ZM302.48 40.0892V47.6249C302.48 48.207 302.537 48.5971 302.647 48.795C302.757 48.9957 303.016 49.1417 303.421 49.2425V49.8183H298.841V49.2425C299.249 49.141 299.508 48.995 299.615 48.8009C299.722 48.6042 299.776 48.2136 299.776 47.626V40.0812C299.776 39.487 299.722 39.0965 299.619 38.9111C299.514 38.7232 299.256 38.5747 298.841 38.4637V37.8879H303.422V38.4637C303.011 38.5803 302.749 38.7353 302.641 38.9232C302.534 39.1148 302.48 39.5016 302.48 40.0892H302.48ZM313.843 37.8867V40.6667H312.645C312.454 40.1115 312.29 39.7391 312.157 39.542C312.023 39.348 311.862 39.1939 311.677 39.0799C311.49 38.9662 311.173 38.9093 310.726 38.9093H308.823V43.1037H309.976C310.232 43.1037 310.432 43.0673 310.578 42.9935C310.724 42.9219 310.843 42.8003 310.939 42.632C311.037 42.4625 311.126 42.1998 311.216 41.8441H312.202V45.3939H311.216C311.132 45.0538 311.044 44.7965 310.945 44.6175C310.847 44.4417 310.728 44.3131 310.591 44.2384C310.454 44.1608 310.248 44.1246 309.977 44.1246H308.825V48.79H310.719C310.922 48.79 311.094 48.7785 311.235 48.7512C311.371 48.7242 311.497 48.6797 311.609 48.6179C311.719 48.5517 311.824 48.4652 311.925 48.3552C312.029 48.2449 312.119 48.1249 312.196 47.9971C312.276 47.8689 312.357 47.6994 312.445 47.4895C312.532 47.2776 312.627 46.9914 312.732 46.624H313.93L313.763 49.813H305.185V49.237C305.403 49.1777 305.572 49.1151 305.697 49.0492C305.822 48.9806 305.914 48.8885 305.975 48.7695C306.037 48.6506 306.076 48.498 306.093 48.3165C306.112 48.1315 306.121 47.8988 306.121 47.6216V40.0859C306.121 39.8113 306.112 39.5813 306.097 39.396C306.085 39.2081 306.046 39.0595 305.983 38.9395C305.924 38.8231 305.83 38.7307 305.706 38.6564C305.581 38.5847 305.409 38.5191 305.185 38.4592V37.8833H313.844L313.843 37.8869L313.843 37.8867Z" fill="black"/>
<path d="M192.217 67.3059V66.7299C192.461 66.6885 192.655 66.6342 192.798 66.5668C192.941 66.5007 193.048 66.405 193.117 66.2836C193.188 66.1606 193.23 66.0064 193.247 65.8149C193.266 65.6269 193.275 65.3919 193.275 65.1135V56.3998H192.569C192.217 56.3998 191.952 56.4386 191.764 56.5226C191.579 56.6029 191.415 56.7313 191.278 56.9082C191.145 57.0805 191.025 57.3168 190.926 57.6095C190.828 57.9048 190.744 58.1823 190.682 58.4455H189.484V55.3783H199.758V58.4455H198.56C198.45 58.0485 198.363 57.7597 198.298 57.5708C198.235 57.3858 198.165 57.2276 198.087 57.0972C198.007 56.965 197.923 56.8553 197.837 56.7685C197.751 56.6828 197.658 56.6109 197.557 56.5575C197.459 56.5072 197.337 56.4682 197.188 56.441C197.039 56.4137 196.845 56.4022 196.607 56.4022H195.979V65.1161C195.979 65.4238 195.988 65.6592 196.006 65.8174C196.024 65.9781 196.053 66.1098 196.101 66.2084C196.149 66.3066 196.206 66.3879 196.272 66.4479C196.34 66.5102 196.433 66.5643 196.552 66.6147C196.671 66.6651 196.831 66.7038 197.038 66.7337V67.3097H192.219L192.217 67.3059ZM210.616 55.3748V58.1549H209.418C209.227 57.5996 209.063 57.2271 208.93 57.0303C208.797 56.8362 208.635 56.682 208.45 56.568C208.263 56.4543 207.947 56.3973 207.5 56.3973H205.596V60.5917H206.749C207.005 60.5917 207.205 60.5555 207.351 60.4813C207.497 60.41 207.616 60.2884 207.712 60.1202C207.81 59.9503 207.9 59.6879 207.99 59.332H208.976V62.8819H207.99C207.906 62.5419 207.818 62.2844 207.719 62.1054C207.62 61.9296 207.501 61.8011 207.364 61.7266C207.227 61.649 207.022 61.6126 206.751 61.6126H205.598V66.2781H207.492C207.695 66.2781 207.867 66.2666 208.008 66.2394C208.145 66.2121 208.27 66.1678 208.382 66.1058C208.493 66.0399 208.597 65.9532 208.698 65.8435C208.803 65.7331 208.892 65.6129 208.969 65.485C209.049 65.357 209.131 65.1875 209.219 64.9777C209.305 64.7657 209.401 64.4794 209.505 64.112H210.703L210.537 67.3013H201.959V66.7253C202.176 66.6657 202.345 66.6033 202.47 66.5372C202.596 66.4687 202.688 66.3765 202.748 66.2575C202.81 66.1385 202.849 65.986 202.867 65.8045C202.885 65.6197 202.894 65.3867 202.894 65.1095V57.5738C202.894 57.2994 202.885 57.0695 202.87 56.8841C202.858 56.696 202.819 56.5475 202.756 56.4275C202.697 56.3112 202.604 56.219 202.479 56.1445C202.354 56.0728 202.182 56.0073 201.959 55.9473V55.3715H210.617L210.616 55.3749L210.616 55.3748ZM217.504 55.3748V55.9508C217.23 55.9807 217.036 56.0432 216.923 56.1389C216.809 56.2371 216.753 56.3833 216.753 56.5802C216.753 56.6784 216.771 56.7924 216.812 56.9168C216.854 57.0423 216.92 57.1913 217.013 57.3674C217.108 57.5432 217.262 57.8148 217.486 58.1878L218.295 59.5426L219.352 57.9882C219.585 57.6449 219.74 57.3798 219.817 57.1974C219.897 57.0127 219.936 56.8155 219.936 56.6063C219.936 56.4216 219.87 56.27 219.742 56.156C219.617 56.0421 219.439 55.9738 219.213 55.9504V55.3744H222.816V55.9593C222.647 56.0062 222.486 56.0813 222.337 56.1831C222.184 56.2842 222.01 56.4546 221.812 56.6904C221.612 56.9264 221.296 57.3556 220.859 57.9794L218.976 60.6703L221.821 65.3745C221.919 65.5298 222.02 65.685 222.122 65.8401C222.223 65.9954 222.321 66.1326 222.416 66.2518C222.515 66.3707 222.599 66.4604 222.67 66.5174C222.745 66.5767 222.816 66.6222 222.884 66.6544C222.955 66.6843 223.027 66.7114 223.101 66.7294V67.3055H218.253V66.7294C218.506 66.6996 218.697 66.6373 218.819 66.5447C218.941 66.4523 219.001 66.3037 219.001 66.1005C219.001 66.0293 218.992 65.9545 218.971 65.8704C218.951 65.7902 218.918 65.6914 218.867 65.575C218.816 65.4587 218.769 65.3538 218.718 65.2648C218.67 65.1756 218.569 65.0022 218.417 64.7458L217.205 62.7439L215.781 64.8504C215.671 65.0174 215.58 65.1724 215.505 65.3127C215.427 65.4527 215.377 65.5817 215.347 65.698C215.318 65.8145 215.302 65.9514 215.302 66.1098C215.302 66.265 215.365 66.402 215.49 66.5182C215.615 66.6348 215.794 66.7062 216.026 66.7293V67.3054H212.416V66.7293C212.607 66.67 212.782 66.5803 212.943 66.4603C213.101 66.3414 213.277 66.1681 213.468 65.9413C213.656 65.7145 213.915 65.3628 214.248 64.8824L216.525 61.6158L214.326 57.9519C214.088 57.5549 213.882 57.2275 213.712 56.9645C213.539 56.7018 213.395 56.5022 213.279 56.3654C213.163 56.2307 213.058 56.1325 212.969 56.0731C212.877 56.0162 212.773 55.9748 212.651 55.9501V55.3741H217.503L217.504 55.3745L217.504 55.3748ZM235.2 65.1125C235.2 65.5599 235.22 65.8673 235.256 66.035C235.295 66.1984 235.373 66.3395 235.489 66.4493C235.605 66.5597 235.816 66.6514 236.126 66.7291V67.305H231.571V66.7291C231.907 66.6397 232.126 66.5532 232.224 66.4664C232.325 66.3774 232.393 66.2555 232.434 66.0936C232.473 65.9319 232.494 65.6069 232.494 65.1125V61.6074H228.55V65.1125C228.55 65.3156 228.557 65.5037 228.568 65.6795C228.58 65.8553 228.6 65.9991 228.637 66.1094C228.673 66.2196 228.723 66.3114 228.789 66.3865C228.858 66.464 228.951 66.5302 229.067 66.5835C229.183 66.6404 229.326 66.6884 229.493 66.7294V67.3055H224.913V66.7294C225.13 66.6701 225.299 66.6077 225.424 66.5415C225.549 66.473 225.642 66.3809 225.702 66.2618C225.764 66.1429 225.803 65.9903 225.821 65.8089C225.839 65.6239 225.848 65.3911 225.848 65.114V57.5783C225.848 57.3035 225.839 57.0737 225.824 56.8885C225.812 56.7005 225.773 56.5517 225.71 56.4319C225.651 56.3153 225.558 56.2234 225.433 56.1486C225.308 56.0772 225.136 56.0117 224.913 55.9517V55.3759H229.493V55.9517C229.186 56.0409 228.974 56.1366 228.861 56.2403C228.748 56.3452 228.668 56.4849 228.62 56.6547C228.575 56.8281 228.551 57.1374 228.551 57.5855V60.5064H232.495V57.5855C232.495 57.1439 232.477 56.8362 232.438 56.6636C232.399 56.4913 232.324 56.3533 232.212 56.243C232.098 56.1358 231.885 56.0409 231.571 55.9507V55.3747H236.125V55.9507C235.869 56.0222 235.682 56.0967 235.566 56.1745C235.45 56.2521 235.366 56.3533 235.319 56.4758C235.268 56.5987 235.239 56.7357 235.223 56.8873C235.208 57.04 235.2 57.2728 235.2 57.5853V65.1122L235.2 65.1125ZM243.823 67.4457C242.113 67.4457 240.829 66.9447 239.972 65.9421C239.114 64.9401 238.685 63.4391 238.685 61.4407C238.685 60.1312 238.891 59.0091 239.308 58.0815C239.725 57.1506 240.335 56.4442 241.145 55.96C241.952 55.4773 242.914 55.2356 244.032 55.2356C245.771 55.2356 247.078 55.7364 247.952 56.7356C248.824 57.7322 249.259 59.2175 249.259 61.1873C249.259 62.2878 249.131 63.2337 248.872 64.0243C248.612 64.8147 248.243 65.4623 247.767 65.9693C247.29 66.4767 246.719 66.8495 246.055 67.0873C245.388 67.3258 244.646 67.4447 243.824 67.4447L243.823 67.4458V67.4457ZM241.458 61.2039C241.458 62.9639 241.67 64.2735 242.094 65.1326C242.514 65.9919 243.16 66.4206 244.027 66.4206C244.473 66.4206 244.855 66.3017 245.168 66.0592C245.483 65.8147 245.736 65.4777 245.933 65.0451C246.127 64.6102 246.266 64.0962 246.35 63.5026C246.436 62.9061 246.478 62.2549 246.478 61.5419C246.478 60.3851 246.385 59.4121 246.2 58.6273C246.018 57.8459 245.741 57.2517 245.372 56.8557C245.003 56.4555 244.529 56.2566 243.954 56.2566C243.111 56.2566 242.483 56.6592 242.074 57.468C241.663 58.2732 241.458 59.5201 241.458 61.2028L241.458 61.2037V61.2039ZM261.984 67.305H257.212V66.7291C257.706 66.6125 258.005 66.4403 258.109 66.2124C258.216 65.9857 258.266 65.5706 258.266 64.9715V56.4153H256.339C256.223 57.7669 256 59.2201 255.672 60.7742C255.342 62.3312 254.981 63.6409 254.586 64.7029C254.189 65.7682 253.769 66.4903 253.328 66.8716C252.888 67.2537 252.322 67.4441 251.637 67.4441C251.107 67.4441 250.624 67.3724 250.187 67.2356V65.1197H251.304C251.388 65.6307 251.608 65.8872 251.968 65.8872C252.254 65.8872 252.525 65.7618 252.778 65.5081C253.034 65.2546 253.323 64.6426 253.642 63.6731C253.963 62.7001 254.261 61.5218 254.541 60.1321C254.821 58.742 254.961 57.7342 254.961 57.1038C254.961 56.6739 254.895 56.3818 254.765 56.2355C254.633 56.0863 254.404 55.9911 254.08 55.9493V55.3735H261.985V55.9493C261.574 56.0542 261.3 56.1887 261.169 56.3521C261.039 56.5161 260.973 56.9636 260.973 57.6977V64.9711C260.973 65.6635 261.036 66.1048 261.157 66.2898C261.279 66.4776 261.557 66.6207 261.984 66.7286V67.3045L261.984 67.3051L261.984 67.305ZM269.681 67.4446C267.972 67.4446 266.687 66.9438 265.831 65.9409C264.973 64.9392 264.544 63.4382 264.544 61.4397C264.544 60.13 264.749 59.008 265.167 58.0803C265.584 57.1496 266.194 56.4432 267.004 55.9591C267.81 55.4761 268.773 55.2344 269.89 55.2344C271.629 55.2344 272.937 55.7352 273.81 56.7344C274.682 57.7311 275.117 59.2167 275.117 61.1864C275.117 62.2868 274.99 63.2325 274.73 64.0231C274.47 64.8137 274.102 65.4613 273.625 65.9681C273.148 66.4758 272.577 66.8485 271.913 67.0862C271.246 67.3246 270.505 67.4436 269.682 67.4436L269.681 67.4447V67.4446ZM267.316 61.2032C267.316 62.9635 267.528 64.2729 267.952 65.1322C268.372 65.9912 269.018 66.42 269.884 66.42C270.331 66.42 270.713 66.301 271.025 66.0589C271.341 65.8143 271.594 65.4773 271.791 65.0445C271.984 64.6098 272.124 64.0956 272.208 63.5021C272.294 62.9054 272.335 62.2543 272.335 61.5413C272.335 60.3844 272.242 59.4116 272.058 58.6269C271.876 57.8452 271.599 57.2513 271.23 56.8553C270.86 56.4552 270.387 56.2562 269.812 56.2562C268.968 56.2562 268.341 56.6588 267.932 57.4673C267.521 58.2725 267.316 59.5197 267.316 61.2023L267.316 61.2031V61.2032ZM282.362 67.3041H277.668V66.7281C278.07 66.6267 278.326 66.4807 278.436 66.2866C278.546 66.0895 278.602 65.6961 278.602 65.1025V57.5752C278.602 56.9761 278.549 56.5815 278.445 56.3968C278.34 56.2087 278.082 56.0601 277.667 55.9493V55.3735H286.106V58.6759H284.912C284.593 57.647 284.307 57.0115 284.058 56.7756C283.807 56.54 283.453 56.4233 282.991 56.4233H281.308V65.111C281.308 65.7166 281.368 66.1192 281.491 66.3159C281.613 66.5127 281.904 66.65 282.364 66.7275V67.3034L282.362 67.3041ZM298.682 65.1106C298.682 65.698 298.733 66.0892 298.835 66.2856C298.936 66.4796 299.195 66.6258 299.606 66.7269V67.3029H295.052V66.7269C295.472 66.6258 295.732 66.4911 295.83 66.3184C295.928 66.1486 295.979 65.7425 295.979 65.1094V61.6904C295.979 60.6591 296.006 59.8765 296.057 59.3399H296.006L291.86 65.1093C291.86 65.6853 291.913 66.0732 292.02 66.2753C292.127 66.4758 292.39 66.6245 292.801 66.7258V67.3017H288.22V66.7258C288.622 66.6245 288.878 66.4784 288.988 66.2844C289.098 66.0875 289.154 65.697 289.154 65.1093V57.5736C289.154 56.9745 289.101 56.5799 288.997 56.3952C288.892 56.2072 288.634 56.0584 288.219 55.9477V55.3717H292.8V55.9477C292.389 56.064 292.127 56.2192 292.02 56.4133C291.912 56.6038 291.859 56.9949 291.859 57.5823V61.4285C291.859 62.1571 291.839 62.7327 291.796 63.1498H291.85L295.978 57.3743C295.978 56.8849 295.924 56.5509 295.821 56.3725C295.716 56.1967 295.46 56.0529 295.053 55.9493V55.3735H299.607V55.9493C299.202 56.0597 298.945 56.2118 298.841 56.3998C298.737 56.5913 298.684 56.9848 298.684 57.584V65.111L298.683 65.1106H298.682ZM312.542 65.1106C312.542 65.698 312.592 66.0892 312.695 66.2856C312.796 66.4796 313.055 66.6258 313.466 66.7269V67.3029H308.912V66.7269C309.332 66.6258 309.592 66.4911 309.69 66.3184C309.788 66.1486 309.839 65.7425 309.839 65.1094V61.6904C309.839 60.6591 309.866 59.8765 309.916 59.3399H309.866L305.72 65.1093C305.72 65.6853 305.773 66.0732 305.88 66.2753C305.987 66.4758 306.25 66.6245 306.661 66.7258V67.3017H302.08V66.7258C302.482 66.6245 302.738 66.4784 302.848 66.2844C302.958 66.0875 303.014 65.697 303.014 65.1093V57.5736C303.014 56.9745 302.96 56.5799 302.857 56.3952C302.752 56.2072 302.494 56.0584 302.079 55.9477V55.3717H306.66V55.9477C306.249 56.064 305.987 56.2192 305.879 56.4133C305.772 56.6038 305.719 56.9949 305.719 57.5823V61.4285C305.719 62.1571 305.698 62.7327 305.656 63.1498H305.71L309.838 57.3743C309.838 56.8849 309.784 56.5509 309.681 56.3725C309.576 56.1967 309.32 56.0529 308.913 55.9493V55.3735H313.466V55.9493C313.062 56.0597 312.805 56.2118 312.701 56.3998C312.597 56.5913 312.544 56.9848 312.544 57.584V65.111L312.542 65.1106H312.542Z" fill="black"/>
<path d="M107.579 62.1301C107.579 63.2132 107.63 63.9567 107.716 64.3613C107.81 64.7583 107.997 65.0977 108.278 65.3648C108.559 65.6319 109.071 65.8559 109.821 66.0436V67.4371H98.7987V66.0436C99.6133 65.827 100.14 65.6175 100.377 65.4081C100.623 65.1914 100.788 64.8955 100.889 64.5056C100.983 64.1157 101.033 63.3288 101.033 62.1301V53.646H91.4888V62.1301C91.4888 62.621 91.5032 63.0761 91.5321 63.502C91.561 63.928 91.6114 64.2745 91.6979 64.5416C91.7844 64.809 91.907 65.0327 92.0656 65.2131C92.2315 65.4009 92.4549 65.5596 92.7359 65.6899C93.0171 65.827 93.3632 65.9424 93.7669 66.0436V67.4371H82.6797V66.0436C83.2058 65.8993 83.6167 65.7475 83.9195 65.5885C84.2223 65.4225 84.4458 65.1986 84.5899 64.9098C84.7413 64.621 84.835 64.2529 84.8783 63.8124C84.9216 63.3647 84.9432 62.8015 84.9432 62.1299V43.8909C84.9432 43.2266 84.9216 42.6706 84.8856 42.223C84.8567 41.768 84.763 41.407 84.6116 41.1183C84.4675 40.8366 84.2439 40.6128 83.9412 40.4323C83.6384 40.259 83.2205 40.1 82.6798 39.9556V38.562H93.7671V39.9556C93.0245 40.1723 92.5127 40.4035 92.2387 40.6561C91.9648 40.9087 91.7701 41.2482 91.6548 41.6597C91.5468 42.0786 91.4891 42.8296 91.4891 43.9127V50.9814H101.034V43.9127C101.034 42.844 100.99 42.1002 100.897 41.6816C100.803 41.2626 100.623 40.9305 100.349 40.6634C100.075 40.4036 99.5558 40.1723 98.799 39.9556V38.562H109.821V39.9556C109.201 40.1289 108.747 40.3095 108.466 40.4972C108.185 40.685 107.983 40.9303 107.868 41.2265C107.745 41.5226 107.673 41.8549 107.637 42.2231C107.601 42.5914 107.579 43.1546 107.579 43.9127V62.1301H107.579ZM123.504 39.3204V37.9268H134.591V39.3204C133.625 39.5658 133.005 39.9052 132.738 40.3385C132.464 40.779 132.335 41.6019 132.335 42.8152C140.344 42.8728 144.352 46.0571 144.352 52.375C144.352 58.8737 140.344 62.2023 132.335 62.3611C132.335 63.6681 132.464 64.5562 132.738 65.0036C133.005 65.4587 133.625 65.798 134.591 66.0435V67.4369H123.504V66.0435C124.405 65.8268 125.01 65.5093 125.313 65.0904C125.616 64.6643 125.774 63.7545 125.789 62.361C121.903 62.361 118.904 61.5521 116.799 59.9347C114.694 58.3246 113.642 55.9272 113.642 52.7575C113.642 49.6239 114.687 47.1978 116.778 45.4793C118.868 43.7609 121.874 42.8727 125.789 42.8149C125.774 41.5008 125.601 40.6488 125.27 40.2445C124.938 39.8399 124.347 39.5367 123.504 39.3202V39.3204ZM125.789 60.0937V45.1183C122.112 45.4144 120.274 47.8045 120.274 52.2885C120.274 54.6351 120.757 56.4763 121.723 57.8338C122.689 59.1839 124.044 59.9421 125.789 60.0937ZM132.335 45.1183V60.0937C134.036 59.9568 135.362 59.242 136.314 57.9566C137.265 56.6786 137.741 55.0106 137.741 52.9672C137.741 48.1151 135.939 45.5012 132.335 45.1183H132.335ZM165.705 67.4371V66.3759C165.503 65.9281 164.991 64.5416 164.162 62.2096C163.189 59.4586 162.475 57.5885 162.006 56.592C161.545 55.6029 160.976 54.8736 160.298 54.4186C159.62 53.9566 158.647 53.7326 157.385 53.7326H156.96V62.1302C156.96 63.5238 157.09 64.4623 157.349 64.9534C157.609 65.437 158.243 65.7983 159.238 66.0437V67.4372H148.151V66.0437C149.124 65.7983 149.744 65.4444 150.011 64.975C150.278 64.4984 150.415 63.5525 150.415 62.1302V43.8912C150.415 42.4399 150.285 41.4868 150.032 41.039C149.78 40.5841 149.153 40.2231 148.151 39.9557V38.5622H159.238V39.9557C158.258 40.2231 157.63 40.5913 157.364 41.0605C157.09 41.5227 156.96 42.4686 156.96 43.8911V51.4221H157.407C159.108 51.4221 160.406 50.9238 161.3 49.9346C162.194 48.938 162.943 47.5375 163.549 45.7324C164.284 43.5157 164.955 41.9559 165.568 41.039C166.18 40.1219 166.952 39.4215 167.882 38.9451C168.804 38.4614 170.016 38.2231 171.515 38.2231C172.668 38.2231 173.678 38.389 174.55 38.7067V43.9344H171.573C171.421 42.6491 170.859 42.0065 169.886 42.0065C169.15 42.0065 168.53 42.3964 168.019 43.1764C167.5 43.9489 166.966 45.0536 166.404 46.4978C165.503 48.8805 164.248 50.5124 162.641 51.4004V51.6171C164.104 51.7832 165.279 52.1586 166.159 52.7433C167.038 53.3281 167.716 54.0287 168.184 54.8301C168.66 55.6317 169.388 57.2203 170.369 59.5886C171.537 62.4263 172.344 64.1735 172.791 64.8378C173.231 65.495 173.952 65.8993 174.954 66.0437V67.4372H165.704L165.705 67.4371Z" fill="black"/>
<path d="M89.988 23.9664H85.736L85.4098 24.9128C85.3147 25.1784 85.24 25.437 85.1787 25.6857C85.121 25.9342 85.0903 26.1995 85.0903 26.4788C85.0903 27.1289 85.4336 27.4797 86.1269 27.5271V28.1843H81.875V27.5271C82.1196 27.4999 82.3337 27.4112 82.5206 27.2651C82.7075 27.1188 82.8741 26.9213 83.0271 26.6692C83.1801 26.414 83.3432 26.0532 83.5165 25.5798L87.6699 14.4991H90.3277L93.6143 25.6718C93.7604 26.1689 93.8829 26.5229 93.9815 26.7339C94.08 26.9416 94.2091 27.1118 94.3688 27.2412C94.5286 27.3705 94.7529 27.466 95.0385 27.5271V28.1843H89.5393V27.5271C89.8859 27.4863 90.141 27.3911 90.3075 27.2378C90.4741 27.0845 90.5556 26.8668 90.5556 26.5876C90.5556 26.3833 90.5318 26.1518 90.4875 25.8999C90.4399 25.6482 90.3652 25.3281 90.2563 24.9435L89.9879 23.9664H89.988ZM86.1169 22.7989H89.6991L88.1085 17.1853L86.1169 22.7989ZM97.037 20.6743C97.037 20.0618 96.9657 19.6397 96.8194 19.4082C96.6733 19.1734 96.391 19.0235 95.9732 18.9488V18.2916H100.871V18.9488C100.521 19.0098 100.273 19.1529 100.13 19.3843C99.9871 19.6126 99.9158 20.0415 99.9158 20.6743V22.6081H100.106C100.677 22.6081 101.143 22.4684 101.51 22.1859C101.873 21.9035 102.21 21.3929 102.516 20.6542C102.992 19.5034 103.45 18.7955 103.889 18.5297C104.327 18.2644 104.902 18.1317 105.612 18.1317C105.955 18.1317 106.319 18.1725 106.696 18.2508V20.4533H105.493C105.377 20.0959 105.163 19.9156 104.844 19.9156C104.46 19.9156 104.12 20.2527 103.828 20.9232C103.471 21.747 103.025 22.3225 102.495 22.649V22.7275C103.569 22.9759 104.405 23.6706 105.004 24.8144L105.52 25.7914C105.901 26.5095 106.196 26.9726 106.407 27.1767C106.621 27.3844 106.852 27.4968 107.104 27.5172V28.1845H103.114V27.6262L101.907 25.0525C101.628 24.4601 101.367 24.0722 101.125 23.8848C100.884 23.7011 100.554 23.6058 100.136 23.6058H99.9155V25.301C99.9155 26.159 99.9731 26.7173 100.085 26.9726C100.198 27.2278 100.473 27.4115 100.911 27.5274V28.1845H96.0305V27.5274C96.4622 27.4187 96.7271 27.2551 96.8224 27.0271C96.9209 26.8023 96.9924 26.2271 97.0366 25.3011V20.6747L97.037 20.6743ZM118.167 31.4045C118.004 30.5807 117.807 29.9034 117.579 29.3723C117.355 28.8378 117.144 28.5077 116.947 28.3782C116.753 28.2489 116.434 28.1841 115.988 28.1841H108.032V27.527C108.457 27.4658 108.739 27.3194 108.881 27.0813C109.024 26.8463 109.096 26.4174 109.096 25.8013V20.6742C109.096 20.0616 109.024 19.6395 108.878 19.4081C108.732 19.1733 108.45 19.0234 108.032 18.9486V18.2915H112.929V18.9486C112.579 19.0096 112.331 19.1527 112.188 19.3842C112.046 19.6125 111.974 20.0413 111.974 20.6742V26.9382H114.89V20.6742C114.89 20.0957 114.826 19.6736 114.693 19.4081C114.561 19.1426 114.306 18.9893 113.925 18.9486V18.2915H118.836V18.9486C118.456 18.996 118.184 19.1288 118.017 19.3536C117.854 19.5748 117.769 20.0176 117.769 20.6743V26.9383H119.373V31.4045H118.167H118.167ZM130.844 25.7297C130.844 26.4276 130.919 26.8805 131.069 27.0879C131.218 27.2923 131.48 27.4386 131.85 27.5271V28.1843H127.021V27.5271C127.401 27.4522 127.653 27.289 127.779 27.0335C127.904 26.7748 127.969 26.3424 127.969 25.7297V21.8796L124.564 26.2778C124.564 27.01 124.866 27.4251 125.478 27.5271V28.1843H120.679V27.5271C121.104 27.425 121.372 27.248 121.484 26.9928C121.596 26.7375 121.654 26.1826 121.654 25.3314V21.1613C121.654 20.2252 121.59 19.6497 121.454 19.432C121.321 19.2173 121.063 19.0542 120.679 18.9488V18.2916H125.478V18.9488C125.066 19.0473 124.805 19.2277 124.696 19.4831C124.587 19.7383 124.533 20.2999 124.533 21.1613V24.5043L127.928 20.1162C127.928 19.4524 127.626 19.0609 127.021 18.9488V18.2916H131.83V18.9488C131.385 19.0814 131.109 19.2654 131.004 19.4967C130.899 19.7315 130.844 20.2899 130.844 21.1714V25.7299V25.7297ZM138.362 28.3442C137.387 28.3442 136.544 28.1741 135.837 27.8303C135.13 27.4863 134.579 26.9383 134.178 26.186C133.781 25.4302 133.584 24.4701 133.584 23.306C133.584 22.4174 133.706 21.6446 133.951 20.9946C134.195 20.3409 134.539 19.8029 134.977 19.3775C135.416 18.9521 135.936 18.6388 136.544 18.4344C137.152 18.2337 137.812 18.1316 138.522 18.1316C140.126 18.1316 141.34 18.5535 142.155 19.4011C142.971 20.2489 143.379 21.4913 143.379 23.1289C143.379 24.283 143.178 25.253 142.774 26.0362C142.369 26.8158 141.791 27.3978 141.04 27.7755C140.289 28.1533 139.399 28.344 138.362 28.344L138.362 28.3442ZM136.608 23.0882C136.608 24.4975 136.768 25.5527 137.081 26.2541C137.397 26.9553 137.873 27.3059 138.512 27.3059C138.862 27.3059 139.157 27.2173 139.392 27.0371C139.626 26.8566 139.817 26.5979 139.96 26.2609C140.103 25.9205 140.204 25.5119 140.262 25.0388C140.323 24.562 140.354 24.0276 140.354 23.4354C140.354 22.0091 140.194 20.9401 139.882 20.2318C139.565 19.5238 139.1 19.1699 138.481 19.1699C138.029 19.1699 137.669 19.3129 137.397 19.5988C137.126 19.8813 136.925 20.3102 136.799 20.8822C136.673 21.454 136.609 22.1895 136.609 23.0882H136.608ZM155.111 25.8014C155.111 26.4176 155.186 26.8465 155.335 27.0814C155.481 27.3195 155.767 27.466 156.185 27.5271V28.1843H151.277V27.5271C151.675 27.466 151.933 27.3127 152.052 27.0607C152.171 26.8122 152.232 26.3935 152.232 25.8013V23.735H148.956V25.8013C148.956 26.4719 149.027 26.9143 149.167 27.1253C149.306 27.34 149.558 27.4726 149.921 27.5271V28.1843H145.013V27.5271C145.425 27.466 145.707 27.3195 145.853 27.0879C146.003 26.8531 146.077 26.4241 146.077 25.8014V20.6743C146.077 19.9562 145.992 19.5033 145.826 19.3196C145.656 19.1324 145.384 19.0098 145.013 18.9488V18.2916H149.911V18.9488C149.527 19.0032 149.272 19.1428 149.146 19.3675C149.021 19.5954 148.956 20.0279 148.956 20.6745V22.4484H152.232V20.6745C152.232 19.9496 152.158 19.4899 152.008 19.2993C151.859 19.1055 151.61 18.9897 151.267 18.9489V18.2917H156.185V18.9489C155.767 19.0099 155.482 19.1598 155.336 19.4014C155.186 19.6465 155.111 20.0688 155.111 20.6746V25.8017L155.111 25.8014ZM166.779 26.3698C166.103 27.0881 165.433 27.5952 164.77 27.895C164.104 28.1943 163.343 28.3442 162.48 28.3442C160.933 28.3442 159.767 27.9189 158.989 27.071C158.207 26.2234 157.82 24.9672 157.82 23.2959C157.82 22.22 158.02 21.2908 158.422 20.5111C158.823 19.7279 159.394 19.1359 160.128 18.7341C160.865 18.3323 161.722 18.1317 162.697 18.1317C163.302 18.1317 163.832 18.1998 164.284 18.3393C164.74 18.4788 165.131 18.6727 165.457 18.9247C165.78 19.1733 166.052 19.4727 166.262 19.8267C166.514 20.2454 166.704 20.7253 166.83 21.2633C166.963 21.815 167.034 22.4821 167.037 23.2685H160.726C160.733 24.47 160.947 25.3552 161.368 25.9238C161.79 26.4923 162.432 26.7783 163.295 26.7783C163.798 26.7783 164.254 26.6828 164.658 26.4923C165.063 26.3049 165.501 25.9715 165.973 25.4914L166.779 26.3697V26.3698ZM164.091 22.1895C164.063 21.1714 163.931 20.4158 163.693 19.9155C163.455 19.4185 163.071 19.1699 162.538 19.1699C162.028 19.1699 161.62 19.4286 161.317 19.9459C161.018 20.4634 160.835 21.2121 160.777 22.1894H164.091V22.1895ZM172.319 29.9682C172.319 30.4686 172.343 30.8193 172.397 31.0267C172.452 31.2311 172.547 31.3946 172.683 31.517C172.819 31.6362 173.056 31.7351 173.403 31.8132V32.4736H168.444V31.8132C168.757 31.7212 168.975 31.6191 169.097 31.5067C169.219 31.3909 169.308 31.2344 169.362 31.0302C169.413 30.8293 169.44 30.4753 169.44 29.9682V21.243C169.44 20.7699 169.437 20.4362 169.427 20.2352C169.417 20.0344 169.393 19.8677 169.355 19.7279C169.318 19.5886 169.267 19.4727 169.203 19.3842C169.134 19.2922 169.036 19.2141 168.907 19.1494C168.778 19.0813 168.587 19.0234 168.336 18.9688V18.2915L171.092 18.2098H172.319L172.17 19.6566L172.289 19.6872C172.86 19.1359 173.393 18.7376 173.886 18.4958C174.382 18.254 174.892 18.1317 175.416 18.1317C176.595 18.1317 177.482 18.547 178.073 19.3843C178.665 20.2183 178.96 21.4643 178.96 23.129C178.96 24.2762 178.787 25.2396 178.437 26.0158C178.087 26.7887 177.57 27.3705 176.88 27.7587C176.187 28.1502 175.337 28.3442 174.331 28.3442C173.645 28.3442 172.975 28.2555 172.319 28.0855V29.9682H172.319ZM172.319 24.9128C172.319 25.7299 172.458 26.3359 172.741 26.7241C173.023 27.112 173.461 27.3061 174.049 27.3061C174.661 27.3061 175.126 26.9861 175.449 26.3427C175.772 25.7028 175.932 24.7869 175.932 23.5955C175.932 22.2746 175.789 21.2942 175.5 20.6543C175.211 20.0178 174.759 19.6975 174.151 19.6975C173.852 19.6975 173.559 19.7726 173.277 19.9259C172.995 20.0789 172.768 20.2966 172.588 20.5794C172.407 20.8619 172.319 21.1785 172.319 21.5325V24.9129L172.319 24.9128ZM190.74 25.8014C190.74 26.4176 190.815 26.8465 190.965 27.0814C191.111 27.3195 191.396 27.466 191.814 27.5271V28.1843H186.907V27.5271C187.304 27.466 187.563 27.3127 187.681 27.0607C187.8 26.8122 187.862 26.3935 187.862 25.8013V23.735H184.585V25.8013C184.585 26.4719 184.657 26.9143 184.796 27.1253C184.935 27.34 185.187 27.4726 185.55 27.5271V28.1843H180.643V27.5271C181.054 27.466 181.336 27.3195 181.482 27.0879C181.632 26.8531 181.706 26.4241 181.706 25.8014V20.6743C181.706 19.9562 181.622 19.5033 181.455 19.3196C181.285 19.1324 181.013 19.0098 180.643 18.9488V18.2916H185.54V18.9488C185.156 19.0032 184.901 19.1428 184.776 19.3675C184.65 19.5954 184.585 20.0279 184.585 20.6745V22.4484H187.862V20.6745C187.862 19.9496 187.787 19.4899 187.637 19.2993C187.488 19.1055 187.24 18.9897 186.896 18.9489V18.2917H191.814V18.9489C191.396 19.0099 191.111 19.1598 190.965 19.4014C190.815 19.6465 190.741 20.0688 190.741 20.6746V25.8017L190.74 25.8014ZM198.228 28.3442C197.252 28.3442 196.409 28.1741 195.703 27.8303C194.995 27.4863 194.445 26.9383 194.044 26.186C193.646 25.4302 193.449 24.4701 193.449 23.306C193.449 22.4174 193.571 21.6446 193.816 20.9946C194.061 20.3409 194.404 19.8029 194.842 19.3775C195.281 18.9521 195.801 18.6388 196.409 18.4344C197.018 18.2337 197.677 18.1316 198.387 18.1316C199.992 18.1316 201.205 18.5535 202.021 19.4011C202.836 20.2489 203.244 21.4913 203.244 23.1289C203.244 24.283 203.044 25.253 202.639 26.0362C202.235 26.8158 201.657 27.3978 200.906 27.7755C200.155 28.1533 199.264 28.344 198.228 28.344L198.228 28.3442ZM196.474 23.0882C196.474 24.4975 196.634 25.5527 196.946 26.2541C197.262 26.9553 197.738 27.3059 198.377 27.3059C198.727 27.3059 199.023 27.2173 199.258 27.0371C199.492 26.8566 199.682 26.5979 199.825 26.2609C199.968 25.9205 200.07 25.5119 200.128 25.0388C200.189 24.562 200.219 24.0276 200.219 23.4354C200.219 22.0091 200.06 20.9401 199.747 20.2318C199.431 19.5238 198.965 19.1699 198.347 19.1699C197.895 19.1699 197.535 19.3129 197.263 19.5988C196.991 19.8813 196.79 20.3102 196.665 20.8822C196.539 21.454 196.474 22.1895 196.474 23.0882H196.474ZM214.018 26.3698C213.342 27.0881 212.672 27.5952 212.01 27.895C211.343 28.1943 210.582 28.3442 209.719 28.3442C208.172 28.3442 207.007 27.9189 206.228 27.071C205.447 26.2234 205.059 24.9672 205.059 23.2959C205.059 22.22 205.26 21.2908 205.661 20.5111C206.062 19.7279 206.633 19.1359 207.367 18.7341C208.104 18.3323 208.961 18.1317 209.936 18.1317C210.541 18.1317 211.071 18.1998 211.524 18.3393C211.979 18.4788 212.37 18.6727 212.696 18.9247C213.019 19.1733 213.291 19.4727 213.502 19.8267C213.753 20.2454 213.944 20.7253 214.069 21.2633C214.202 21.815 214.273 22.4821 214.276 23.2685H207.965C207.972 24.47 208.186 25.3552 208.608 25.9238C209.029 26.4923 209.671 26.7783 210.535 26.7783C211.038 26.7783 211.493 26.6828 211.897 26.4923C212.302 26.3049 212.74 25.9715 213.213 25.4914L214.018 26.3697V26.3698ZM211.33 22.1895C211.303 21.1714 211.17 20.4158 210.932 19.9155C210.694 19.4185 210.31 19.1699 209.777 19.1699C209.267 19.1699 208.859 19.4286 208.556 19.9459C208.257 20.4634 208.074 21.2121 208.016 22.1894H211.33V22.1895ZM225.153 28.3443C224.177 28.3443 223.334 28.1742 222.628 27.8304C221.92 27.4864 221.37 26.9384 220.969 26.1861C220.571 25.4303 220.374 24.4703 220.374 23.3061C220.374 22.4175 220.496 21.6448 220.741 20.9947C220.986 20.341 221.329 19.8031 221.768 19.3776C222.206 18.9522 222.726 18.6389 223.334 18.4346C223.942 18.2338 224.602 18.1317 225.312 18.1317C226.917 18.1317 228.13 18.5536 228.946 19.4013C229.761 20.249 230.169 21.4914 230.169 23.129C230.169 24.2831 229.968 25.2532 229.564 26.0363C229.16 26.8159 228.582 27.3979 227.831 27.7757C227.08 28.1534 226.189 28.3442 225.152 28.3442L225.153 28.3443ZM223.399 23.0883C223.399 24.4976 223.559 25.5528 223.871 26.2542C224.187 26.9554 224.663 27.3061 225.302 27.3061C225.652 27.3061 225.948 27.2174 226.183 27.0372C226.417 26.8567 226.607 26.598 226.75 26.261C226.893 25.9206 226.995 25.512 227.052 25.0389C227.114 24.5621 227.144 24.0278 227.144 23.4355C227.144 22.0092 226.985 20.9402 226.672 20.232C226.356 19.5239 225.89 19.1701 225.272 19.1701C224.82 19.1701 224.46 19.313 224.188 19.599C223.916 19.8814 223.715 20.3103 223.589 20.8823C223.464 21.4542 223.399 22.1897 223.399 23.0883H223.399ZM233.704 21.005C234.656 19.766 235.889 19.1497 237.408 19.1497C238.822 19.1497 239.907 19.5341 240.661 20.3104C241.416 21.0867 241.789 22.1965 241.789 23.6467C241.789 25.1037 241.344 26.2508 240.447 27.0882C239.55 27.9258 238.323 28.3444 236.763 28.3444C233.575 28.3444 231.984 26.3598 231.984 22.3904C231.984 20.29 232.412 18.6391 233.269 17.4373C234.122 16.2389 235.454 15.4664 237.259 15.119C238.533 14.8809 239.301 14.6935 239.567 14.5575C239.828 14.4213 240.025 14.2069 240.158 13.9141H241.201C241.15 15.2485 240.831 16.1676 240.243 16.6714C239.655 17.1719 238.758 17.5122 237.548 17.6928C236.307 17.8799 235.359 18.2102 234.699 18.6833C234.043 19.1599 233.656 19.9055 233.537 20.9233L233.704 21.0051L233.704 21.005ZM235.019 23.7079C235.019 26.1079 235.655 27.3061 236.922 27.3061C237.514 27.3061 237.966 27.0101 238.285 26.4177C238.605 25.8288 238.765 25.0016 238.765 23.9462C238.765 21.5188 238.139 20.3038 236.892 20.3038C235.645 20.3038 235.019 21.4405 235.019 23.7079H235.019ZM259.096 31.4047C258.929 30.581 258.732 29.9037 258.508 29.3726C258.284 28.8381 258.073 28.508 257.876 28.3785C257.679 28.2491 257.359 28.1844 256.914 28.1844H243.363V27.5272C243.788 27.4661 244.07 27.3197 244.213 27.0815C244.356 26.8466 244.427 26.4177 244.427 25.8015V20.6745C244.427 20.0619 244.356 19.6398 244.209 19.4084C244.063 19.1735 243.781 19.0236 243.363 18.9489V18.2917H248.261V18.9489C247.911 19.0099 247.662 19.153 247.52 19.3845C247.377 19.6127 247.306 20.0416 247.306 20.6745V26.9384H250.123V20.6745C250.123 20.0959 250.058 19.6739 249.926 19.4084C249.79 19.1428 249.535 18.9896 249.158 18.9489V18.2917H253.957V18.9489C253.607 19.0099 253.359 19.153 253.216 19.3845C253.073 19.6127 253.002 20.0416 253.002 20.6745V26.9384H255.819V20.6745C255.819 20.0959 255.751 19.6739 255.619 19.4084C255.486 19.1428 255.231 18.9896 254.854 18.9489V18.2917H259.762V18.9489C259.385 18.9963 259.113 19.1291 258.946 19.3539C258.78 19.5751 258.698 20.0178 258.698 20.6746V26.9386H260.299V31.4047H259.096H259.096ZM270.614 26.3699C269.938 27.0882 269.268 27.5953 268.606 27.8951C267.939 28.1944 267.178 28.3443 266.315 28.3443C264.768 28.3443 263.603 27.919 262.824 27.0711C262.043 26.2235 261.655 24.9674 261.655 23.296C261.655 22.2201 261.856 21.2909 262.257 20.5112C262.658 19.7281 263.229 19.136 263.963 18.7342C264.7 18.3325 265.557 18.1318 266.532 18.1318C267.137 18.1318 267.667 18.1999 268.12 18.3394C268.575 18.4789 268.966 18.6728 269.292 18.9249C269.615 19.1734 269.887 19.4728 270.098 19.8268C270.349 20.2456 270.54 20.7255 270.665 21.2634C270.798 21.8151 270.869 22.4823 270.872 23.2686H264.561C264.568 24.4701 264.782 25.3553 265.204 25.9239C265.625 26.4925 266.267 26.7784 267.13 26.7784C267.634 26.7784 268.089 26.6829 268.493 26.4925C268.898 26.305 269.336 25.9716 269.809 25.4916L270.614 26.3698V26.3699ZM267.926 22.1897C267.899 21.1716 267.766 20.4159 267.528 19.9156C267.29 19.4186 266.906 19.1701 266.373 19.1701C265.863 19.1701 265.455 19.4288 265.152 19.946C264.853 20.4636 264.67 21.2123 264.612 22.1895H267.926V22.1897ZM280.015 25.6312L280.783 26.5572C280.134 27.1973 279.505 27.6535 278.897 27.9292C278.289 28.2048 277.626 28.3444 276.909 28.3444C275.471 28.3444 274.37 27.9192 273.616 27.0713C272.858 26.2236 272.481 24.9913 272.481 23.3776C272.481 22.2883 272.688 21.3454 273.102 20.5487C273.517 19.7555 274.112 19.1529 274.89 18.7445C275.665 18.3359 276.556 18.1318 277.558 18.1318C278.095 18.1318 278.632 18.1693 279.166 18.2476C279.699 18.3223 280.185 18.4279 280.624 18.5607V20.9643H278.652C278.554 20.3377 278.404 19.8814 278.204 19.5991C278.007 19.3132 277.721 19.1702 277.347 19.1702C277.103 19.1702 276.868 19.2313 276.647 19.3539C276.423 19.4763 276.229 19.6873 276.059 19.9906C275.889 20.2935 275.753 20.6985 275.655 21.2091C275.556 21.7163 275.505 22.3599 275.505 23.1394C275.505 23.9154 275.58 24.5725 275.726 25.1069C275.872 25.6412 276.107 26.0566 276.433 26.3427C276.756 26.6321 277.184 26.7785 277.718 26.7785C278.102 26.7785 278.465 26.6968 278.805 26.5298C279.149 26.3631 279.553 26.0637 280.015 25.6312ZM281.433 18.2919H291.459V21.4611H290.225C290.191 20.7496 290.069 20.2424 289.861 19.9428C289.651 19.6399 289.28 19.4867 288.75 19.4867H287.883V25.4712C287.883 26.2882 287.945 26.8226 288.064 27.0679C288.182 27.3129 288.468 27.4661 288.92 27.5272V28.1844H283.951V27.5272C284.41 27.4524 284.699 27.2924 284.821 27.0472C284.947 26.8021 285.008 26.2746 285.008 25.4712V19.4867H284.131C283.608 19.4867 283.237 19.6399 283.027 19.946C282.813 20.2527 282.69 20.7562 282.656 21.461H281.433V18.2917L281.433 18.2919ZM292.485 28.1845V27.5274C292.917 27.4525 293.206 27.3062 293.355 27.0817C293.505 26.8603 293.58 26.4109 293.58 25.7404V20.7431C293.58 20.0519 293.508 19.5923 293.362 19.3642C293.216 19.1327 292.924 18.9964 292.485 18.949V18.2919H298.409C299.663 18.2919 300.601 18.4587 301.223 18.7887C301.842 19.1224 302.155 19.7112 302.155 20.5555C302.155 21.141 301.94 21.6449 301.512 22.0671C301.084 22.4892 300.459 22.7717 299.633 22.9182V23.0167C301.386 23.3096 302.263 24.1231 302.263 25.4509C302.263 27.2722 300.955 28.1844 298.341 28.1844H292.485L292.485 28.1845ZM296.458 19.3779V22.4791H297.485C298.593 22.4791 299.147 21.9414 299.147 20.8656C299.147 20.2393 298.956 19.8136 298.572 19.5923C298.192 19.3711 297.488 19.2994 296.458 19.3779ZM296.458 23.6262V27.0783C296.757 27.1056 297.08 27.1156 297.434 27.1156C298.623 27.1156 299.215 26.5266 299.215 25.3421C299.215 24.1981 298.644 23.6262 297.502 23.6262H296.458ZM308.796 28.3446C307.82 28.3446 306.977 28.1745 306.271 27.8307C305.564 27.4867 305.013 26.9387 304.612 26.1864C304.214 25.4306 304.017 24.4705 304.017 23.3064C304.017 22.4178 304.139 21.645 304.384 20.995C304.629 20.3413 304.972 19.8033 305.411 19.3779C305.849 18.9525 306.369 18.6392 306.977 18.4348C307.586 18.2341 308.245 18.132 308.955 18.132C310.56 18.132 311.773 18.5539 312.589 19.4015C313.404 20.2493 313.812 21.4917 313.812 23.1293C313.812 24.2834 313.612 25.2534 313.207 26.0366C312.803 26.8162 312.225 27.3982 311.474 27.7759C310.723 28.1537 309.832 28.3444 308.796 28.3444L308.796 28.3446ZM307.042 23.0886C307.042 24.4979 307.202 25.5531 307.514 26.2545C307.83 26.9557 308.306 27.3063 308.945 27.3063C309.295 27.3063 309.591 27.2177 309.826 27.0375C310.06 26.857 310.25 26.5983 310.393 26.2613C310.536 25.9209 310.638 25.5123 310.696 25.0392C310.757 24.5624 310.787 24.028 310.787 23.4358C310.787 22.0095 310.628 20.9405 310.315 20.2322C309.999 19.5242 309.533 19.1703 308.915 19.1703C308.463 19.1703 308.103 19.3133 307.831 19.5992C307.559 19.8817 307.358 20.3106 307.233 20.8826C307.107 21.4544 307.042 22.1899 307.042 23.0886H307.042Z" fill="black"/>
<path fill-rule="evenodd" clip-rule="evenodd" d="M180.817 50.4229C183.209 50.4229 185.149 51.4345 185.149 52.6824C185.149 53.9306 183.209 54.942 180.817 54.942C178.424 54.942 176.485 53.9306 176.485 52.6824C176.485 51.4345 178.424 50.4229 180.817 50.4229Z" fill="black"/>
<defs>
<radialGradient id="paint0_radial_1_118" cx="0" cy="0" r="1" gradientUnits="userSpaceOnUse" gradientTransform="translate(34.834 41.0007) scale(30.6747 36.1041)">
<stop stop-color="#479B3F"/>
<stop offset="1" stop-color="#2F7846"/>
</radialGradient>
</defs>
</svg>
