<svg width="41" height="48" viewBox="0 0 41 48" fill="none" xmlns="http://www.w3.org/2000/svg">
<path fill-rule="evenodd" clip-rule="evenodd" d="M40.3907 41.0929V39.1986C36.2844 43.7983 30.3419 46.6893 23.7319 46.6893C11.3405 46.6893 1.29573 36.531 1.29573 23.9999C1.29573 11.4688 11.3405 1.31022 23.7319 1.31022C30.3419 1.31022 36.2844 4.20112 40.3907 8.8013V6.9069C36.106 2.63573 30.2231 0 23.7319 0C10.6251 0 0 10.745 0 24C0 37.255 10.625 48 23.7319 48C30.2231 48 36.106 45.3643 40.3907 41.093V41.0929ZM40.3907 37.3975V31.6395L37.4017 28.6486L37.7668 36.8897L40.3907 37.3974V37.3975ZM40.3907 30.4268V24.0758L37.4193 27.4541L40.3907 30.4269V30.4268ZM40.3907 22.7789V16.8656L35.0039 18.7517L37.0516 26.5747L40.3908 22.7788L40.3907 22.7789ZM40.3907 15.9536V10.3329C39.8089 9.60859 39.1816 8.9234 38.5138 8.28115L35.2425 17.7559L40.3907 15.9536ZM30.8228 39.1202L28.8479 28.5596L24.1813 35.3607L30.8228 39.1202ZM28.3263 27.8079L21.7451 25.7456L23.5959 34.7014L28.3263 27.8079ZM21.1126 26.8094L16.5423 36.8057L22.8704 35.3154L21.1126 26.8095V26.8094ZM20.594 25.8894L7.62204 30.521L15.6026 36.8068L20.594 25.8894ZM20.4745 25.0177L14.3046 19.4438L7.88818 29.5114L20.4745 25.0177ZM6.92213 29.4364L13.3541 19.3441L2.783 20.235L6.92205 29.4364H6.92213ZM13.5609 18.4614L11.7826 12.5099L3.30298 19.3263L13.5609 18.4614ZM25.9615 18.9102L22.0581 24.941L28.354 26.9141L25.9614 18.9102H25.9615ZM21.2717 24.5818L25.1387 18.6072L15.2511 19.1431L21.2716 24.5818H21.2717ZM31.5813 38.5374L36.1519 27.9907L29.6034 27.9593L31.5813 38.5374ZM36.9065 36.733L36.5712 29.1709L32.3802 38.8416L36.9065 36.733ZM36.315 27.1296L34.3309 19.5508L30.0078 27.099L36.315 27.1295V27.1296ZM29.205 26.7811L33.7475 18.8493L26.7631 18.6118L29.205 26.7811ZM24.0909 17.8011L12.6491 12.4297L14.4108 18.3255L24.091 17.8011H24.0909ZM25.4806 17.5028L21.9015 8.70947L13.0363 11.6608L25.4806 17.5028ZM26.1329 16.8403L29.5815 9.05152L22.7911 8.63038L26.1329 16.8403ZM33.7239 17.9861L30.2077 9.74737L26.6661 17.7458L33.7239 17.9861H33.7239ZM29.4706 8.1809L25.6268 2.8112L22.7746 7.76548L29.4706 8.1809ZM23.7318 2.30681C21.1641 2.30681 18.7021 2.76332 16.4204 3.6005L21.9131 7.54861L24.912 2.33963C24.5211 2.31824 24.1276 2.30688 23.7318 2.30688L23.7318 2.30681ZM15.4702 3.9753C14.9883 4.17888 14.515 4.39968 14.0516 4.63709L12.7215 10.8579L21.1442 8.05339L15.4702 3.9753ZM13.0647 5.17523C10.7754 6.50492 8.7519 8.25018 7.09411 10.3082L11.7948 11.1133L13.0646 5.17531L13.0647 5.17523ZM6.49936 11.0805C4.89357 13.2681 3.68482 15.772 2.98224 18.4827L11.1912 11.8843L6.49936 11.0804V11.0805ZM2.42223 21.5152C2.33029 22.3305 2.28126 23.1593 2.28126 23.9998C2.28126 25.5504 2.44308 27.0626 2.74924 28.5213L6.0688 29.6215L2.42223 21.5153V21.5152ZM2.97895 29.5042C3.18744 30.3107 3.44067 31.0991 3.73584 31.8657L5.95134 30.4897L2.97895 29.5042ZM4.06613 32.6726C4.69334 34.1253 5.47305 35.4949 6.38557 36.7611L6.41337 31.2143L4.06613 32.6726ZM7.23249 37.8617C7.63731 38.354 8.06322 38.8279 8.50875 39.2818L14.8365 37.2959L7.26533 31.3324L7.23256 37.8616L7.23249 37.8617ZM9.21003 39.9643C10.3949 41.0671 11.7025 42.0371 13.1101 42.8497L15.0176 38.1413L9.21011 39.9642L9.21003 39.9643ZM13.8634 43.2644C16.2682 44.5266 18.9391 45.3416 21.7686 45.6013L15.9475 38.1197L13.8634 43.2644ZM22.911 45.675L22.9835 45.6777V36.1737L16.6739 37.6593L22.911 45.675V45.675ZM23.836 45.4122L30.6168 39.9916L23.836 36.1537V45.4122ZM24.9004 45.6605C28.1521 45.4838 31.2116 44.5751 33.9201 43.094L31.3359 40.5156L24.9003 45.6605H24.9004ZM34.6903 42.6517C35.286 42.2929 35.8629 41.9059 36.4196 41.4922L36.7006 37.7784L32.0005 39.9676L34.6903 42.6517ZM37.3287 40.7782C38.2753 39.9927 39.1544 39.1265 39.9552 38.1906L37.5591 37.7271L37.3287 40.7782ZM37.8285 7.64948C37.5458 7.39979 37.2566 7.15775 36.9606 6.9232L30.7613 8.8691L34.4354 17.4776L37.8284 7.64955L37.8285 7.64948ZM36.1161 6.28589C33.3138 4.27866 30.0144 2.93407 26.4412 2.47888L30.441 8.06683L36.116 6.28581L36.1161 6.28589Z" fill="url(#paint0_radial_1_262)"/>
<defs>
<radialGradient id="paint0_radial_1_262" cx="0" cy="0" r="1" gradientUnits="userSpaceOnUse" gradientTransform="translate(23.4273 23.037) scale(34.2771 34.6644)">
<stop stop-color="#499E3E"/>
<stop offset="0.4" stop-color="#398543"/>
<stop offset="1" stop-color="#2A6C47"/>
</radialGradient>
</defs>
</svg>
