<svg width="319" height="82" viewBox="0 0 319 82" fill="none" xmlns="http://www.w3.org/2000/svg">
<path fill-rule="evenodd" clip-rule="evenodd" d="M41.2405 1.01074C52.3458 1.01074 62.4155 5.37835 69.7807 12.4625V70.0376C62.4155 77.1217 52.3458 81.49 41.2405 81.49C18.6792 81.49 0.382812 63.4702 0.382812 41.2505C0.382812 19.0302 18.6792 1.01074 41.2405 1.01074Z" fill="white"/>
<path d="M107.752 62.3538C107.752 63.4368 107.803 64.1804 107.89 64.5849C107.983 64.9819 108.171 65.3214 108.453 65.5886C108.734 65.8556 109.247 66.0796 109.998 66.2672V67.6609H98.9578V66.2672C99.7737 66.0506 100.301 65.8412 100.539 65.632C100.785 65.4153 100.951 65.1193 101.052 64.7293C101.146 64.3395 101.196 63.5524 101.196 62.3538V53.8696H91.636V62.3538C91.636 62.8448 91.6504 63.2996 91.6792 63.7258C91.7081 64.1518 91.7587 64.4984 91.8452 64.7654C91.9319 65.0327 92.0547 65.2565 92.2135 65.4371C92.3796 65.6248 92.6033 65.7837 92.885 65.9138C93.1666 66.0507 93.5133 66.1663 93.9177 66.2674V67.661H82.8125V66.2674C83.3395 66.1232 83.7511 65.9716 84.0543 65.8125C84.3576 65.6465 84.5814 65.4227 84.7258 65.1336C84.8774 64.8451 84.9714 64.4767 85.0146 64.0362C85.0579 63.5887 85.0797 63.0254 85.0797 62.3539V44.1147C85.0797 43.4504 85.0581 42.8945 85.022 42.4467C84.9931 41.992 84.8992 41.6309 84.7476 41.3421C84.6033 41.0606 84.3794 40.8367 84.0761 40.656C83.7727 40.4829 83.3541 40.3239 82.8125 40.1796V38.7858H93.9177V40.1796C93.174 40.3961 92.6613 40.6272 92.3868 40.88C92.1125 41.1325 91.9175 41.472 91.802 41.8835C91.6936 42.3023 91.636 43.0534 91.636 44.1365V51.2052H101.196V44.1365C101.196 43.0678 101.153 42.324 101.059 41.9052C100.965 41.4863 100.785 41.1542 100.51 40.8871C100.236 40.6271 99.7157 40.3959 98.9576 40.1794V38.7857H109.998V40.1794C109.377 40.3527 108.922 40.5333 108.641 40.721C108.359 40.9089 108.157 41.1542 108.041 41.4504C107.918 41.7462 107.846 42.0784 107.81 42.4466C107.774 42.8149 107.752 43.3781 107.752 44.1363V62.3538ZM123.703 39.5438V38.1504H134.808V39.5438C133.84 39.7894 133.22 40.1288 132.952 40.562C132.678 41.0024 132.548 41.8257 132.548 43.0386C140.57 43.0965 144.585 46.2807 144.585 52.5988C144.585 59.0973 140.57 62.4259 132.548 62.5848C132.548 63.8919 132.678 64.7798 132.952 65.2276C133.219 65.6824 133.84 66.0218 134.808 66.2672V67.6609H123.703V66.2672C124.605 66.0506 125.212 65.7332 125.515 65.3141C125.818 64.8881 125.977 63.9784 125.992 62.5848C122.1 62.5848 119.096 61.7761 116.987 60.1587C114.879 58.5485 113.825 56.1512 113.825 52.9816C113.825 49.848 114.872 47.4215 116.966 45.7032C119.06 43.9849 122.071 43.0967 125.992 43.0387C125.977 41.7247 125.804 40.8728 125.472 40.4682C125.14 40.0639 124.547 39.7607 123.703 39.5439L123.703 39.5438ZM125.992 60.3176V45.3419C122.309 45.6381 120.468 48.0283 120.468 52.512C120.468 54.8587 120.952 56.6999 121.919 58.0575C122.887 59.4078 124.244 60.1659 125.992 60.3176ZM132.548 45.3419V60.3176C134.252 60.1804 135.581 59.4656 136.534 58.1802C137.487 56.9022 137.963 55.2342 137.963 53.1908C137.963 48.3385 136.158 45.7247 132.548 45.3419ZM165.972 67.6609V66.5995C165.77 66.1519 165.257 64.7654 164.427 62.4333C163.452 59.6823 162.737 57.812 162.268 56.8158C161.806 55.8264 161.235 55.0972 160.557 54.6422C159.878 54.1801 158.903 53.9562 157.639 53.9562H157.213V62.3539C157.213 63.7475 157.343 64.6863 157.603 65.1771C157.863 65.6609 158.499 66.022 159.495 66.2674V67.661H148.39V66.2674C149.365 66.022 149.986 65.6681 150.253 65.1988C150.52 64.7221 150.657 63.7764 150.657 62.3539V44.1147C150.657 42.6635 150.527 41.7103 150.274 41.2626C150.022 40.8076 149.394 40.4466 148.39 40.1796V38.7858H159.495V40.1796C158.513 40.4466 157.885 40.8148 157.618 41.2843C157.343 41.7463 157.213 42.6923 157.213 44.1147V51.6458H157.661C159.365 51.6458 160.665 51.1477 161.56 50.1581C162.456 49.1619 163.207 47.761 163.813 45.9558C164.55 43.7391 165.221 42.1796 165.835 41.2626C166.449 40.3455 167.221 39.6451 168.153 39.1685C169.077 38.6849 170.29 38.4465 171.792 38.4465C172.947 38.4465 173.958 38.6124 174.832 38.9303V44.1581H171.85C171.698 42.8728 171.135 42.2301 170.16 42.2301C169.424 42.2301 168.803 42.62 168.29 43.4C167.77 44.1725 167.236 45.2773 166.672 46.7215C165.77 49.1042 164.514 50.7361 162.903 51.6241V51.8408C164.369 52.0068 165.546 52.3824 166.427 52.9672C167.308 53.5519 167.987 54.2525 168.456 55.0539C168.932 55.8555 169.662 57.4439 170.644 59.8123C171.813 62.6501 172.622 64.3973 173.07 65.0617C173.51 65.7187 174.232 66.1232 175.236 66.2674V67.661H165.972L165.972 67.6609Z" fill="black"/>
<path d="M90.247 24.08H85.9329L85.6019 25.0385C85.5053 25.3075 85.4296 25.5695 85.3675 25.8214C85.3089 26.0731 85.2777 26.342 85.2777 26.6249C85.2777 27.2835 85.626 27.6388 86.3295 27.6871V28.3527H82.0156V27.6871C82.2638 27.6594 82.4811 27.5698 82.6708 27.4215C82.8605 27.2733 83.0294 27.0732 83.1846 26.8182C83.3397 26.5594 83.5053 26.1938 83.6812 25.7145L87.8951 14.4899H90.5919L93.9264 25.8078C94.0747 26.3111 94.1988 26.6697 94.2989 26.8837C94.3989 27.094 94.5299 27.2663 94.6919 27.3974C94.8539 27.5284 95.0815 27.6251 95.3712 27.6871V28.3527H89.7917V27.6871C90.1434 27.6458 90.4021 27.5491 90.5711 27.3941C90.74 27.2388 90.8229 27.018 90.8229 26.7352C90.8229 26.5283 90.7987 26.2937 90.7539 26.0385C90.7056 25.7835 90.6297 25.4593 90.5193 25.0697L90.247 24.0801V24.08ZM86.3192 22.897H89.9539L88.34 17.2106L86.3192 22.897ZM97.3989 20.7451C97.3989 20.1245 97.3265 19.6969 97.1782 19.4623C97.0299 19.2246 96.7436 19.0729 96.3196 18.997V18.3312H101.289V18.997C100.934 19.0589 100.682 19.2039 100.537 19.4382C100.392 19.6693 100.32 20.1038 100.32 20.7451V22.7039H100.513C101.092 22.7039 101.565 22.5624 101.937 22.2761C102.306 21.9901 102.648 21.4726 102.958 20.7244C103.441 19.5588 103.906 18.8416 104.351 18.5727C104.796 18.3038 105.379 18.1694 106.1 18.1694C106.448 18.1694 106.817 18.2105 107.2 18.2899V20.5211H105.979C105.862 20.159 105.644 19.9762 105.32 19.9762C104.931 19.9762 104.586 20.3175 104.289 20.9969C103.927 21.8314 103.475 22.4144 102.937 22.7453V22.8249C104.027 23.0766 104.875 23.7799 105.482 24.9387L106.006 25.9284C106.392 26.656 106.693 27.1249 106.906 27.3318C107.124 27.5422 107.358 27.6561 107.613 27.6768V28.3527H103.565V27.7871L102.341 25.1799C102.058 24.58 101.792 24.187 101.548 23.9971C101.303 23.8109 100.968 23.7145 100.544 23.7145H100.32V25.4316C100.32 26.3007 100.378 26.8662 100.492 27.1249C100.606 27.3836 100.885 27.5698 101.33 27.6871V28.3527H96.3783V27.6871C96.8163 27.5768 97.0852 27.4111 97.1818 27.1801C97.2818 26.9525 97.3542 26.3698 97.3991 25.4316V20.7453L97.3989 20.7451ZM118.838 31.6147C118.672 30.7801 118.472 30.0939 118.241 29.5561C118.014 29.0146 117.8 28.6802 117.6 28.5492C117.403 28.4181 117.079 28.3526 116.627 28.3526H108.555V27.687C108.986 27.6248 109.272 27.4765 109.417 27.2351C109.562 26.9971 109.634 26.5626 109.634 25.9385V20.745C109.634 20.1244 109.562 19.6968 109.413 19.4622C109.265 19.2245 108.979 19.0727 108.555 18.9969V18.3311H113.524V18.9969C113.169 19.0587 112.917 19.2037 112.772 19.4381C112.627 19.6692 112.555 20.1037 112.555 20.745V27.0902H115.514V20.745C115.514 20.1588 115.448 19.7312 115.314 19.4622C115.179 19.1934 114.921 19.038 114.534 18.9969V18.3311H119.517V18.9969C119.131 19.0449 118.855 19.1795 118.686 19.4069C118.521 19.6312 118.434 20.0795 118.434 20.7449V27.0901H120.062V31.6144H118.838L118.838 31.6147ZM131.7 25.8661C131.7 26.573 131.776 27.0318 131.928 27.2422C132.08 27.4492 132.345 27.5972 132.721 27.6871V28.3527H127.821V27.6871C128.207 27.6112 128.462 27.4458 128.59 27.187C128.717 26.925 128.783 26.4869 128.783 25.8662V21.9662L125.328 26.4213C125.328 27.1629 125.635 27.5835 126.255 27.6871V28.3527H121.386V27.6871C121.817 27.5835 122.09 27.4043 122.204 27.1456C122.317 26.8869 122.376 26.3247 122.376 25.4626V21.2385C122.376 20.29 122.31 19.7073 122.172 19.4866C122.038 19.2693 121.776 19.1037 121.386 18.997V18.3312H126.255V18.997C125.838 19.097 125.573 19.2796 125.462 19.5383C125.352 19.7969 125.297 20.3658 125.297 21.2385V24.6246L128.742 20.1797C128.742 19.5073 128.435 19.1106 127.821 18.997V18.3312H132.7V18.997C132.249 19.1314 131.969 19.3176 131.862 19.5522C131.756 19.7899 131.7 20.3555 131.7 21.2487V25.8661ZM139.328 28.5146C138.339 28.5146 137.483 28.3423 136.766 27.994C136.049 27.6457 135.49 27.0903 135.083 26.3284C134.68 25.5627 134.48 24.5903 134.48 23.4108C134.48 22.5108 134.604 21.7281 134.852 21.0693C135.1 20.4071 135.449 19.8624 135.894 19.4313C136.339 19.0003 136.866 18.6831 137.483 18.4761C138.101 18.2725 138.77 18.1692 139.49 18.1692C141.118 18.1692 142.349 18.5968 143.177 19.4555C144.004 20.3141 144.418 21.5726 144.418 23.2315C144.418 24.4004 144.215 25.3834 143.804 26.1765C143.394 26.9662 142.808 27.5559 142.046 27.9387C141.283 28.3213 140.38 28.5146 139.328 28.5146H139.328ZM137.549 23.19C137.549 24.6177 137.711 25.6868 138.028 26.3971C138.349 27.1075 138.832 27.4627 139.48 27.4627C139.835 27.4627 140.135 27.3731 140.373 27.1903C140.611 27.0075 140.804 26.7455 140.949 26.4041C141.094 26.0593 141.197 25.6455 141.256 25.1662C141.318 24.6833 141.349 24.142 141.349 23.5419C141.349 22.0971 141.187 21.0142 140.87 20.2968C140.549 19.5796 140.077 19.221 139.449 19.221C138.99 19.221 138.625 19.3658 138.349 19.6555C138.073 19.9417 137.87 20.3763 137.742 20.9557C137.615 21.535 137.549 22.28 137.549 23.1902L137.549 23.19ZM156.322 25.9385C156.322 26.5626 156.398 26.9971 156.55 27.2351C156.698 27.4765 156.988 27.6248 157.412 27.687V28.3526H152.432V27.687C152.836 27.6248 153.098 27.4697 153.219 27.2144C153.339 26.9626 153.401 26.5384 153.401 25.9385V23.8452H150.077V25.9385C150.077 26.6179 150.15 27.0662 150.291 27.2798C150.432 27.4971 150.687 27.6317 151.056 27.6868V28.3524H146.077V27.6868C146.494 27.6247 146.78 27.4764 146.929 27.2419C147.08 27.0041 147.156 26.5695 147.156 25.9384V20.7449C147.156 20.0175 147.07 19.5586 146.901 19.3724C146.729 19.1828 146.453 19.0585 146.077 18.9967V18.331H151.046V18.9967C150.656 19.0517 150.398 19.1933 150.27 19.4209C150.143 19.6519 150.077 20.0898 150.077 20.7449V22.5417H153.401V20.7449C153.401 20.0105 153.325 19.5449 153.174 19.3518C153.022 19.1552 152.77 19.0379 152.422 18.9967V18.331H157.412V18.9967C156.988 19.0586 156.698 19.2103 156.55 19.4553C156.398 19.7036 156.322 20.1312 156.322 20.7449V25.9384V25.9385ZM168.161 26.5144C167.474 27.2421 166.795 27.7558 166.123 28.0594C165.447 28.3629 164.674 28.5146 163.798 28.5146C162.229 28.5146 161.047 28.0834 160.257 27.2248C159.464 26.3661 159.071 25.0936 159.071 23.4006C159.071 22.3107 159.274 21.3695 159.681 20.5796C160.088 19.7864 160.667 19.1865 161.412 18.7797C162.16 18.3727 163.029 18.1694 164.019 18.1694C164.633 18.1694 165.171 18.2384 165.63 18.3797C166.092 18.5211 166.488 18.7177 166.819 18.9727C167.147 19.2246 167.423 19.5279 167.637 19.8865C167.892 20.3108 168.085 20.797 168.213 21.3418C168.347 21.9006 168.419 22.5764 168.423 23.3729H162.019C162.026 24.5903 162.243 25.4868 162.671 26.0627C163.098 26.6386 163.75 26.9283 164.626 26.9283C165.136 26.9283 165.598 26.8317 166.009 26.6386C166.419 26.449 166.864 26.1112 167.343 25.6248L168.161 26.5144ZM165.433 22.2798C165.405 21.2486 165.271 20.483 165.03 19.9762C164.788 19.4726 164.399 19.221 163.857 19.221C163.34 19.221 162.926 19.483 162.619 20.0072C162.316 20.5315 162.129 21.29 162.071 22.28H165.433V22.2798ZM173.782 30.1593C173.782 30.6663 173.806 31.0214 173.861 31.2318C173.916 31.4388 174.013 31.6043 174.151 31.7283C174.289 31.849 174.53 31.9491 174.882 32.0284V32.6973H169.85V32.0284C170.168 31.9352 170.388 31.8319 170.513 31.718C170.637 31.6008 170.726 31.4421 170.782 31.2352C170.833 31.0317 170.861 30.6731 170.861 30.1593V21.3209C170.861 20.8416 170.857 20.5037 170.847 20.3001C170.837 20.0968 170.813 19.9278 170.775 19.7864C170.737 19.6451 170.685 19.5278 170.62 19.4381C170.55 19.345 170.451 19.2657 170.319 19.2002C170.188 19.1313 169.995 19.0727 169.74 19.0173V18.3311L172.537 18.2484H173.782L173.63 19.7139L173.751 19.7448C174.33 19.1862 174.871 18.7829 175.371 18.5379C175.875 18.2931 176.392 18.1691 176.923 18.1691C178.12 18.1691 179.02 18.5897 179.62 19.4379C180.22 20.283 180.52 21.5451 180.52 23.2313C180.52 24.3936 180.344 25.3694 179.989 26.1557C179.634 26.9386 179.11 27.5281 178.41 27.9211C177.706 28.3179 176.844 28.5145 175.823 28.5145C175.127 28.5145 174.447 28.4246 173.782 28.2524V30.1593H173.782ZM173.782 25.0383C173.782 25.866 173.923 26.4799 174.209 26.873C174.495 27.2659 174.94 27.4625 175.537 27.4625C176.158 27.4625 176.63 27.1384 176.958 26.4866C177.285 25.8385 177.447 24.9108 177.447 23.7038C177.447 22.3658 177.302 21.3726 177.009 20.7244C176.716 20.0797 176.258 19.7554 175.64 19.7554C175.337 19.7554 175.04 19.8314 174.754 19.9866C174.468 20.1417 174.237 20.3623 174.054 20.6486C173.871 20.9349 173.782 21.2555 173.782 21.6142V25.0385V25.0383ZM192.472 25.9385C192.472 26.5626 192.548 26.9971 192.7 27.2351C192.848 27.4765 193.138 27.6248 193.562 27.687V28.3526H188.582V27.687C188.986 27.6248 189.248 27.4697 189.369 27.2144C189.489 26.9626 189.551 26.5384 189.551 25.9385V23.8452H186.227V25.9385C186.227 26.6179 186.3 27.0662 186.441 27.2798C186.582 27.4971 186.838 27.6317 187.206 27.6868V28.3524H182.227V27.6868C182.644 27.6247 182.93 27.4764 183.079 27.2419C183.23 27.0041 183.306 26.5695 183.306 25.9384V20.7449C183.306 20.0175 183.22 19.5586 183.051 19.3724C182.879 19.1828 182.603 19.0585 182.227 18.9967V18.331H187.196V18.9967C186.806 19.0517 186.548 19.1933 186.42 19.4209C186.293 19.6519 186.227 20.0898 186.227 20.7449V22.5417H189.551V20.7449C189.551 20.0105 189.475 19.5449 189.324 19.3518C189.172 19.1552 188.92 19.0379 188.572 18.9967V18.331H193.562V18.9967C193.138 19.0586 192.848 19.2103 192.7 19.4553C192.548 19.7036 192.472 20.1312 192.472 20.7449V25.9384V25.9385ZM200.069 28.5146C199.079 28.5146 198.224 28.3423 197.507 27.994C196.79 27.6457 196.231 27.0903 195.824 26.3284C195.421 25.5627 195.221 24.5903 195.221 23.4108C195.221 22.5108 195.345 21.7281 195.593 21.0693C195.841 20.4071 196.19 19.8624 196.634 19.4313C197.079 19.0003 197.607 18.6831 198.224 18.4761C198.841 18.2725 199.51 18.1692 200.231 18.1692C201.859 18.1692 203.09 18.5968 203.918 19.4555C204.745 20.3141 205.159 21.5726 205.159 23.2315C205.159 24.4004 204.955 25.3834 204.545 26.1765C204.135 26.9662 203.549 27.5559 202.786 27.9387C202.024 28.3213 201.121 28.5146 200.069 28.5146H200.069ZM198.29 23.19C198.29 24.6177 198.452 25.6868 198.769 26.3971C199.09 27.1075 199.572 27.4627 200.221 27.4627C200.576 27.4627 200.876 27.3731 201.114 27.1903C201.352 27.0075 201.545 26.7455 201.69 26.4041C201.835 26.0593 201.938 25.6455 201.997 25.1662C202.059 24.6833 202.09 24.142 202.09 23.5419C202.09 22.0971 201.928 21.0142 201.611 20.2968C201.29 19.5796 200.817 19.221 200.19 19.221C199.731 19.221 199.366 19.3658 199.09 19.6555C198.814 19.9417 198.611 20.3763 198.483 20.9557C198.355 21.535 198.29 22.28 198.29 23.1902L198.29 23.19ZM216.09 26.5144C215.404 27.2421 214.725 27.7558 214.052 28.0594C213.377 28.3629 212.604 28.5146 211.728 28.5146C210.159 28.5146 208.976 28.0834 208.187 27.2248C207.393 26.3661 207 25.0936 207 23.4006C207 22.3107 207.204 21.3695 207.611 20.5796C208.018 19.7864 208.597 19.1865 209.342 18.7797C210.09 18.3727 210.959 18.1694 211.949 18.1694C212.563 18.1694 213.101 18.2384 213.559 18.3797C214.021 18.5211 214.418 18.7177 214.749 18.9727C215.077 19.2246 215.353 19.5279 215.566 19.8865C215.822 20.3108 216.015 20.797 216.142 21.3418C216.277 21.9006 216.349 22.5764 216.353 23.3729H209.949C209.956 24.5903 210.173 25.4868 210.601 26.0627C211.028 26.6386 211.68 26.9283 212.556 26.9283C213.066 26.9283 213.528 26.8317 213.939 26.6386C214.349 26.449 214.794 26.1112 215.273 25.6248L216.09 26.5144ZM213.363 22.2798C213.335 21.2486 213.201 20.483 212.959 19.9762C212.718 19.4726 212.328 19.221 211.787 19.221C211.27 19.221 210.856 19.483 210.549 20.0072C210.245 20.5315 210.059 21.29 210.001 22.28H213.363V22.2798ZM227.388 28.5145C226.398 28.5145 225.543 28.3421 224.825 27.9938C224.108 27.6455 223.549 27.0902 223.143 26.3283C222.739 25.5625 222.539 24.5902 222.539 23.4106C222.539 22.5107 222.663 21.7279 222.912 21.0692C223.16 20.407 223.508 19.8622 223.953 19.4312C224.398 19.0002 224.925 18.683 225.543 18.476C226.16 18.2724 226.829 18.1691 227.55 18.1691C229.177 18.1691 230.408 18.5967 231.236 19.4553C232.064 20.314 232.477 21.5725 232.477 23.2313C232.477 24.4003 232.274 25.3832 231.864 26.1764C231.453 26.9661 230.867 27.5558 230.105 27.9386C229.343 28.3212 228.439 28.5145 227.387 28.5145H227.388ZM225.608 23.1899C225.608 24.6176 225.77 25.6867 226.087 26.397C226.408 27.1074 226.891 27.4625 227.539 27.4625C227.894 27.4625 228.195 27.3729 228.433 27.1902C228.67 27.0073 228.864 26.7453 229.008 26.404C229.153 26.0591 229.257 25.6454 229.315 25.1661C229.377 24.6832 229.408 24.1418 229.408 23.5418C229.408 22.097 229.246 21.014 228.929 20.2967C228.608 19.5795 228.136 19.2209 227.508 19.2209C227.05 19.2209 226.684 19.3656 226.408 19.6554C226.133 19.9415 225.929 20.3761 225.801 20.9556C225.674 21.5349 225.608 22.2798 225.608 23.19L225.608 23.1899ZM236.064 21.0795C237.029 19.8244 238.281 19.2 239.823 19.2C241.257 19.2 242.357 19.5897 243.123 20.376C243.888 21.1623 244.268 22.2864 244.268 23.7554C244.268 25.2314 243.816 26.3936 242.906 27.2418C241.995 28.0901 240.75 28.5143 239.168 28.5143C235.933 28.5143 234.319 26.5039 234.319 22.4829C234.319 20.3551 234.754 18.6829 235.623 17.4656C236.488 16.2515 237.84 15.4688 239.671 15.1172C240.964 14.8757 241.744 14.6859 242.013 14.5481C242.278 14.4102 242.478 14.1929 242.613 13.8965H243.671C243.62 15.2482 243.295 16.1791 242.699 16.6894C242.102 17.1963 241.192 17.5413 239.964 17.7242C238.705 17.9138 237.743 18.2483 237.074 18.7276C236.409 19.2102 236.016 19.9655 235.895 20.9965L236.064 21.0793L236.064 21.0795ZM237.398 23.8177C237.398 26.2486 238.043 27.4625 239.329 27.4625C239.929 27.4625 240.388 27.1626 240.712 26.5625C241.036 25.9658 241.199 25.1279 241.199 24.0588C241.199 21.6002 240.564 20.3693 239.298 20.3693C238.033 20.3693 237.398 21.5211 237.398 23.8177ZM261.827 31.6146C261.658 30.7799 261.458 30.0937 261.23 29.556C261.003 29.0145 260.789 28.68 260.589 28.549C260.389 28.418 260.065 28.3524 259.613 28.3524H245.864V27.6868C246.295 27.6247 246.582 27.4764 246.726 27.2349C246.871 26.9969 246.944 26.5625 246.944 25.9384V20.7449C246.944 20.1243 246.871 19.6967 246.723 19.4621C246.574 19.2243 246.288 19.0726 245.864 18.9967V18.331H250.833V18.9967C250.478 19.0586 250.226 19.2036 250.082 19.4379C249.937 19.6691 249.864 20.1035 249.864 20.7449V27.0901H252.723V20.7449C252.723 20.1587 252.658 19.7311 252.523 19.4621C252.385 19.1933 252.127 19.0379 251.744 18.9967V18.331H256.613V18.9967C256.258 19.0586 256.006 19.2036 255.861 19.4379C255.716 19.6691 255.644 20.1035 255.644 20.7449V27.0901H258.503V20.7449C258.503 20.1587 258.434 19.7311 258.299 19.4621C258.165 19.1933 257.906 19.0379 257.523 18.9967V18.331H262.503V18.9967C262.12 19.0448 261.844 19.1793 261.675 19.4068C261.506 19.6311 261.423 20.0794 261.423 20.7447V27.0899H263.048V31.6143H261.827V31.6146ZM273.514 26.5143C272.827 27.2419 272.148 27.7557 271.476 28.0593C270.8 28.3627 270.027 28.5145 269.151 28.5145C267.582 28.5145 266.399 28.0833 265.61 27.2246C264.816 26.366 264.423 25.0935 264.423 23.4005C264.423 22.3106 264.627 21.3693 265.034 20.5794C265.441 19.7862 266.02 19.1863 266.765 18.7796C267.513 18.3725 268.382 18.1692 269.372 18.1692C269.986 18.1692 270.524 18.2382 270.982 18.3795C271.445 18.521 271.841 18.7176 272.172 18.9726C272.5 19.2245 272.776 19.5278 272.99 19.8864C273.245 20.3107 273.438 20.7969 273.565 21.3416C273.7 21.9005 273.772 22.5763 273.776 23.3728H267.372C267.379 24.5902 267.596 25.4867 268.024 26.0626C268.451 26.6385 269.103 26.9282 269.979 26.9282C270.489 26.9282 270.951 26.8316 271.362 26.6385C271.772 26.4489 272.217 26.1111 272.696 25.6247L273.514 26.5143ZM270.786 22.2797C270.758 21.2485 270.624 20.4829 270.382 19.9761C270.141 19.4725 269.751 19.2209 269.21 19.2209C268.693 19.2209 268.279 19.4829 267.972 20.0071C267.669 20.5314 267.482 21.2899 267.424 22.2798H270.786V22.2797ZM283.052 25.7658L283.831 26.7038C283.173 27.3522 282.535 27.8141 281.917 28.0936C281.3 28.373 280.628 28.5145 279.9 28.5145C278.441 28.5145 277.324 28.0833 276.559 27.2246C275.79 26.366 275.407 25.1178 275.407 23.4831C275.407 22.3798 275.617 21.4246 276.038 20.6176C276.459 19.8141 277.062 19.2037 277.852 18.79C278.638 18.3761 279.541 18.1694 280.559 18.1694C281.104 18.1694 281.648 18.2071 282.19 18.2864C282.731 18.3624 283.224 18.4692 283.669 18.6037V21.0383H281.669C281.569 20.4038 281.417 19.9417 281.214 19.6554C281.014 19.3658 280.724 19.2209 280.345 19.2209C280.097 19.2209 279.859 19.2832 279.634 19.4071C279.407 19.5313 279.21 19.7451 279.038 20.0521C278.866 20.359 278.728 20.7693 278.628 21.2863C278.528 21.8001 278.476 22.452 278.476 23.2418C278.476 24.0278 278.552 24.6933 278.7 25.2348C278.848 25.7764 279.086 26.197 279.417 26.4866C279.745 26.7798 280.18 26.9282 280.721 26.9282C281.111 26.9282 281.479 26.8453 281.824 26.6765C282.173 26.5074 282.583 26.204 283.052 25.766V25.7658ZM284.49 18.331H294.663V21.5415H293.411C293.377 20.8207 293.252 20.307 293.042 20.0034C292.828 19.6965 292.452 19.5415 291.914 19.5415H291.035V25.6037C291.035 26.4313 291.097 26.9728 291.218 27.2212C291.339 27.4694 291.628 27.6245 292.087 27.6867V28.3523H287.045V27.6867C287.511 27.6108 287.804 27.4488 287.928 27.2005C288.056 26.9521 288.118 26.4176 288.118 25.6038V19.5416H287.228C286.697 19.5416 286.321 19.6966 286.108 20.007C285.89 20.3174 285.766 20.8279 285.732 21.5416H284.49V18.3311L284.49 18.331ZM295.704 28.3522V27.6866C296.142 27.6107 296.435 27.4623 296.587 27.2347C296.739 27.0106 296.814 26.5555 296.814 25.876V20.8139C296.814 20.1137 296.742 19.6482 296.594 19.4171C296.445 19.1826 296.149 19.0446 295.704 18.9965V18.3307H301.715C302.987 18.3307 303.939 18.4997 304.57 18.8342C305.198 19.1722 305.515 19.7688 305.515 20.6239C305.515 21.2171 305.298 21.7274 304.863 22.155C304.429 22.5826 303.794 22.8689 302.956 23.0171V23.1172C304.736 23.4137 305.625 24.2379 305.625 25.5827C305.625 27.4278 304.298 28.3519 301.646 28.3519H295.704L295.704 28.3522ZM299.735 19.4311V22.5725H300.777C301.901 22.5725 302.463 22.0276 302.463 20.9378C302.463 20.3036 302.27 19.8723 301.88 19.6482C301.494 19.4241 300.78 19.3516 299.735 19.4309V19.4311ZM299.735 23.7345V27.2314C300.039 27.2588 300.366 27.2691 300.725 27.2691C301.932 27.2691 302.532 26.6725 302.532 25.4725C302.532 24.3137 301.953 23.7344 300.794 23.7344H299.735L299.735 23.7345ZM312.253 28.5142C311.263 28.5142 310.408 28.3419 309.691 27.9936C308.974 27.6453 308.415 27.0899 308.008 26.328C307.605 25.5623 307.405 24.5899 307.405 23.4104C307.405 22.5104 307.529 21.7277 307.777 21.0689C308.025 20.4067 308.374 19.862 308.818 19.4309C309.263 18.9999 309.791 18.6827 310.408 18.4757C311.025 18.2721 311.694 18.1688 312.415 18.1688C314.043 18.1688 315.274 18.5964 316.102 19.4551C316.929 20.3137 317.343 21.5723 317.343 23.2311C317.343 24.4 317.139 25.383 316.729 26.1762C316.319 26.9658 315.733 27.5555 314.97 27.9383C314.208 28.3209 313.305 28.5142 312.253 28.5142H312.253ZM310.474 23.1897C310.474 24.6173 310.636 25.6864 310.953 26.3968C311.274 27.1071 311.757 27.4623 312.405 27.4623C312.76 27.4623 313.06 27.3727 313.298 27.1899C313.536 27.0071 313.729 26.7451 313.874 26.4037C314.019 26.0589 314.122 25.6451 314.181 25.1658C314.243 24.6829 314.274 24.1416 314.274 23.5415C314.274 22.0967 314.112 21.0138 313.795 20.2964C313.474 19.5792 313.001 19.2206 312.374 19.2206C311.915 19.2206 311.55 19.3654 311.274 19.6551C310.998 19.9413 310.795 20.3759 310.667 20.9553C310.539 21.5346 310.474 22.2796 310.474 23.1898L310.474 23.1897Z" fill="black"/>
<path fill-rule="evenodd" clip-rule="evenodd" d="M69.7805 70.2003V66.9642C62.6863 74.8222 52.4198 79.7609 41.0001 79.7609C19.5923 79.7609 2.23856 62.4071 2.23856 40.9999C2.23856 19.5926 19.5923 2.23829 41.0001 2.23829C52.4198 2.23829 62.6863 7.17692 69.7805 15.0355V11.7993C62.3781 4.50271 52.2146 0 41.0001 0C18.3562 0 0 18.356 0 41C0 63.6439 18.3561 82 41.0001 82C52.2146 82 62.3781 77.4973 69.7805 70.2006V70.2003ZM69.7805 63.8873V54.0508L64.6167 48.9414L65.2473 63.0198L69.7805 63.8872V63.8873ZM69.7805 51.9792V41.1296L64.647 46.9007L69.7805 51.9793V51.9792ZM69.7805 38.914V28.812L60.4741 32.0342L64.0117 45.3985L69.7806 38.9138L69.7805 38.914ZM69.7805 27.2541V17.652C68.7753 16.4147 67.6917 15.2441 66.5379 14.147L60.8863 30.333L69.7805 27.2541ZM53.2506 66.8303L49.8388 48.7894L41.7766 60.4079L53.2506 66.8303ZM48.9377 47.5051L37.5677 43.9821L40.7652 59.2816L48.9377 47.5051ZM36.475 45.7994L28.5792 62.8764L39.5118 60.3305L36.475 45.7996V45.7994ZM35.5789 44.2277L13.1681 52.14L26.9557 62.8783L35.5789 44.2277ZM35.3725 42.7387L24.7132 33.2166L13.6279 50.4153L35.3725 42.7387ZM11.9589 50.2872L23.071 33.0462L4.80801 34.5681L11.9588 50.2872H11.9589ZM23.4284 31.5382L20.3561 21.3711L5.70636 33.0158L23.4284 31.5382ZM44.852 32.3049L38.1084 42.6075L48.9854 45.9782L44.8519 32.3049H44.852ZM36.7498 41.9939L43.4305 31.7873L26.3484 32.7028L36.7497 41.9939H36.7498ZM54.561 65.8347L62.4574 47.8175L51.144 47.7638L54.561 65.8347ZM63.7611 62.7521L63.1819 49.8336L55.9413 66.3544L63.7611 62.7521ZM62.7392 46.3464L59.3114 33.3993L51.8426 46.2942L62.7392 46.3463V46.3464ZM50.4556 45.751L58.3034 32.2009L46.2369 31.7951L50.4556 45.751ZM41.6204 30.4102L21.8531 21.234L24.8967 31.3061L41.6205 30.4102H41.6204ZM44.0212 29.9006L37.8379 14.8787L22.522 19.9206L44.0212 29.9006ZM45.1482 28.7689L51.1062 15.463L39.3748 14.7436L45.1482 28.7689ZM58.2626 30.7263L52.188 16.6518L46.0694 30.3157L58.2628 30.7263H58.2626ZM50.9146 13.9757L44.2739 4.80247L39.3462 13.266L50.9146 13.9757ZM40.9999 3.94079C36.5639 3.94079 32.3104 4.72067 28.3685 6.15085L37.8579 12.8955L43.0389 3.99687C42.3636 3.96032 41.6838 3.94092 41 3.94092L40.9999 3.94079ZM26.7269 6.79114C25.8944 7.13892 25.0767 7.51612 24.2761 7.92169L21.9781 18.5489L36.5295 13.7579L26.7269 6.79114ZM22.5711 8.84102C18.616 11.1126 15.1201 14.0941 12.2561 17.6099L20.3771 18.9852L22.5709 8.84116L22.5711 8.84102ZM11.2285 18.9291C8.45432 22.6663 6.36604 26.9438 5.15223 31.5746L19.3343 20.3024L11.2285 18.929V18.9291ZM4.18474 36.7551C4.02589 38.1479 3.94119 39.5637 3.94119 40.9996C3.94119 43.6486 4.22076 46.2319 4.74969 48.7239L10.4847 50.6035L4.18474 36.7552V36.7551ZM5.14655 50.4031C5.50674 51.7807 5.94424 53.1277 6.45417 54.4373L10.2818 52.0866L5.14655 50.4031ZM7.02479 55.8157C8.10838 58.2973 9.45545 60.6371 11.032 62.8002L11.08 53.3244L7.02479 55.8157ZM12.4951 64.6804C13.1945 65.5215 13.9303 66.331 14.7 67.1064L25.6321 63.7138L12.5519 53.5263L12.4953 64.6803L12.4951 64.6804ZM15.9116 68.2723C17.9586 70.1562 20.2177 71.8134 22.6496 73.2016L25.9449 65.1581L15.9117 68.2722L15.9116 68.2723ZM23.951 73.9101C28.1056 76.0663 32.72 77.4586 37.6082 77.9022L27.5515 65.1212L23.951 73.9101ZM39.582 78.0282L39.7072 78.0327V61.7968L28.8065 64.3347L39.582 78.0281V78.0282ZM41.18 77.5792L52.8948 68.319L41.18 61.7625V77.5792ZM43.0189 78.0034C48.6366 77.7015 53.9223 76.1492 58.6017 73.6189L54.1371 69.2141L43.0188 78.0034H43.0189ZM59.9323 72.8633C60.9615 72.2503 61.9582 71.5892 62.9198 70.8824L63.4054 64.538L55.2854 68.278L59.9323 72.8633ZM64.4905 69.6628C66.1259 68.3209 67.6446 66.8411 69.0282 65.2423L64.8884 64.4504L64.4905 69.6628ZM65.3539 13.0679C64.8656 12.6413 64.3658 12.2278 63.8546 11.8271L53.1444 15.1514L59.4919 29.8575L65.3538 13.068L65.3539 13.0679ZM62.3955 10.7384C57.5541 7.30938 51.854 5.01238 45.6808 4.23475L52.591 13.7808L62.3954 10.7383L62.3955 10.7384Z" fill="url(#paint0_radial_1_220)"/>
<path d="M198.412 38.5171V41.0495H197.225C197.085 40.3934 196.864 39.9069 196.56 39.597C196.258 39.2837 195.861 39.1285 195.372 39.1285C194.451 39.1285 193.755 39.57 193.284 40.4529C192.81 41.3359 192.574 42.6452 192.574 44.3815C192.574 45.9954 192.792 47.2152 193.222 48.0475C193.654 48.8767 194.286 49.2913 195.119 49.2913C195.545 49.2913 195.891 49.2197 196.16 49.0765C196.425 48.9333 196.64 48.7216 196.801 48.4354C196.962 48.149 197.099 47.7492 197.215 47.2303H198.412V49.876C197.773 50.0281 197.186 50.1385 196.658 50.2102C196.127 50.2787 195.575 50.3144 195.005 50.3144C193.794 50.3144 192.804 50.0969 192.037 49.6583C191.271 49.2228 190.707 48.5605 190.343 47.6806C189.979 46.7975 189.797 45.6789 189.797 44.3277C189.797 43.0628 190.012 41.9653 190.438 41.0285C190.868 40.0948 191.497 39.3731 192.329 38.8661C193.165 38.3589 194.161 38.1055 195.318 38.1055C195.909 38.1055 196.44 38.1382 196.917 38.2007C197.397 38.2664 197.895 38.3708 198.411 38.5171H198.412ZM202.466 50.1744V49.5987C202.71 49.557 202.904 49.5033 203.047 49.4347C203.191 49.3688 203.298 49.2736 203.367 49.1514C203.438 49.0291 203.48 48.8738 203.498 48.683C203.516 48.4949 203.525 48.2593 203.525 47.9819V39.2689H202.818C202.466 39.2689 202.2 39.3077 202.012 39.3911C201.827 39.4718 201.663 39.5999 201.526 39.776C201.392 39.9489 201.273 40.1845 201.174 40.4769C201.076 40.7722 200.992 41.0496 200.929 41.3122H199.73V38.2456H210.019V41.3122H208.82C208.709 40.9154 208.623 40.626 208.557 40.4382C208.494 40.2531 208.423 40.0951 208.345 39.9639C208.265 39.8328 208.181 39.7223 208.095 39.6357C208.008 39.5492 207.916 39.4776 207.814 39.4239C207.716 39.3734 207.594 39.3343 207.444 39.3077C207.295 39.2809 207.101 39.2689 206.863 39.2689H206.233V47.9819C206.233 48.2893 206.242 48.525 206.26 48.683C206.278 48.844 206.308 48.9751 206.356 49.0738C206.403 49.1721 206.46 49.2529 206.526 49.3122C206.594 49.375 206.687 49.4286 206.806 49.4794C206.925 49.5299 207.086 49.5689 207.292 49.5987V50.1744H202.466ZM215.078 47.9909C215.078 48.3726 215.092 48.6473 215.122 48.8082C215.149 48.9663 215.197 49.0947 215.265 49.1899C215.331 49.2886 215.429 49.3661 215.555 49.4318C215.68 49.4943 215.874 49.5509 216.133 49.5987V50.1744H211.432V49.5987C211.65 49.5389 211.82 49.4764 211.945 49.4108C212.071 49.3421 212.163 49.2496 212.223 49.1304C212.285 49.0109 212.324 48.859 212.342 48.6768C212.36 48.492 212.369 48.2591 212.369 47.9818V40.4469C212.369 40.1725 212.36 39.9429 212.345 39.7578C212.333 39.5698 212.294 39.4207 212.232 39.3015C212.172 39.1851 212.08 39.0927 211.954 39.0181C211.829 38.9466 211.656 38.8811 211.432 38.8214V38.2455H216.509C217.986 38.2455 219.09 38.5081 219.823 39.0361C220.557 39.564 220.924 40.3753 220.924 41.4701C220.924 42.2457 220.751 42.9168 220.408 43.4895C220.065 44.0592 219.567 44.4918 218.913 44.7872C218.26 45.0795 217.446 45.2286 216.467 45.2286C215.901 45.2286 215.438 45.2167 215.077 45.1928V47.9909H215.078ZM215.078 44.2055H215.829C216.411 44.2055 216.873 44.122 217.219 43.9579C217.562 43.791 217.816 43.5255 217.983 43.1644C218.15 42.8034 218.233 42.3173 218.233 41.7059C218.233 41.1004 218.15 40.6171 217.983 40.2592C217.816 39.9012 217.574 39.6477 217.252 39.4957C216.933 39.3434 216.521 39.2689 216.02 39.2689C215.615 39.2689 215.298 39.2749 215.078 39.2867V44.2055ZM227.472 47.0453C226.941 48.1639 226.416 48.999 225.9 49.5539C225.38 50.1089 224.709 50.3832 223.889 50.3832C223.427 50.3832 222.881 50.2998 222.245 50.1297V47.6835H223.522C223.549 48.4292 223.826 48.8022 224.351 48.8022C224.981 48.8022 225.553 48.2682 226.073 47.2034L223.024 40.5873C222.714 39.9189 222.469 39.4597 222.284 39.2151C222.102 38.9704 221.87 38.839 221.589 38.8214V38.2455H226.248V38.8214C225.798 38.8811 225.574 39.1017 225.574 39.4866C225.574 39.7073 225.729 40.1697 226.037 40.8677L227.531 44.3458L228.966 40.9453C229.222 40.3397 229.351 39.8623 229.351 39.5132C229.351 39.0748 229.124 38.8452 228.668 38.8214V38.2455H232.128V38.8214C231.802 38.8929 231.513 39.0927 231.26 39.4207C231.006 39.749 230.714 40.2321 230.383 40.8675L227.472 47.0452V47.0453ZM240.405 50.1744V49.7359C240.322 49.5508 240.11 48.9782 239.767 48.0146C239.365 46.8782 239.069 46.1057 238.875 45.694C238.684 45.2853 238.449 44.9841 238.168 44.7961C237.888 44.6052 237.485 44.5128 236.963 44.5128H236.787V47.9818C236.787 48.5577 236.841 48.9452 236.948 49.1481C237.056 49.348 237.318 49.4972 237.73 49.5987V50.1744H233.142V49.5987C233.545 49.4972 233.801 49.351 233.912 49.1571C234.022 48.9602 234.079 48.5696 234.079 47.9818V40.4469C234.079 39.8474 234.025 39.4539 233.92 39.2687C233.816 39.0809 233.557 38.9317 233.142 38.8214V38.2455H237.73V38.8214C237.324 38.9317 237.064 39.0836 236.954 39.2776C236.841 39.4686 236.787 39.8593 236.787 40.4469V43.5582H236.972C237.676 43.5582 238.213 43.3523 238.583 42.9438C238.953 42.532 239.263 41.9535 239.514 41.2075C239.818 40.2919 240.095 39.6475 240.349 39.2687C240.602 38.89 240.922 38.6006 241.306 38.4036C241.688 38.2039 242.189 38.1055 242.81 38.1055C243.287 38.1055 243.705 38.1739 244.066 38.3054V40.465H242.834C242.771 39.9341 242.539 39.6684 242.136 39.6684C241.831 39.6684 241.575 39.8293 241.363 40.1515C241.148 40.4709 240.928 40.9272 240.695 41.5238C240.322 42.5083 239.803 43.1822 239.138 43.5493V43.6389C239.743 43.7075 240.23 43.8626 240.594 44.1041C240.958 44.3458 241.238 44.635 241.432 44.9663C241.629 45.2972 241.93 45.9535 242.336 46.9318C242.819 48.1042 243.153 48.8262 243.338 49.1005C243.52 49.3719 243.818 49.539 244.233 49.5987V50.1744H240.406H240.405ZM247.675 50.1744V49.5987C247.919 49.557 248.113 49.5033 248.256 49.4347C248.4 49.3688 248.507 49.2736 248.576 49.1514C248.647 49.0291 248.689 48.8738 248.707 48.683C248.725 48.4949 248.734 48.2593 248.734 47.9819V39.2689H248.027C247.675 39.2689 247.409 39.3077 247.221 39.3911C247.036 39.4718 246.872 39.5999 246.735 39.776C246.601 39.9489 246.482 40.1845 246.383 40.4769C246.285 40.7722 246.201 41.0496 246.138 41.3122H244.939V38.2456H255.228V41.3122H254.029C253.918 40.9154 253.832 40.626 253.766 40.4382C253.703 40.2531 253.632 40.0951 253.554 39.9639C253.474 39.8328 253.39 39.7223 253.304 39.6357C253.217 39.5492 253.125 39.4776 253.023 39.4239C252.925 39.3734 252.803 39.3343 252.653 39.3077C252.504 39.2809 252.31 39.2689 252.072 39.2689H251.442V47.9819C251.442 48.2893 251.451 48.525 251.469 48.683C251.487 48.844 251.517 48.9751 251.565 49.0738C251.612 49.1721 251.669 49.2529 251.735 49.3122C251.803 49.375 251.896 49.4286 252.015 49.4794C252.134 49.5299 252.295 49.5689 252.501 49.5987V50.1744H247.675ZM262.035 47.0453C261.504 48.1639 260.979 48.999 260.463 49.5539C259.944 50.1089 259.272 50.3832 258.452 50.3832C257.99 50.3832 257.444 50.2998 256.809 50.1297V47.6835H258.085C258.112 48.4292 258.39 48.8022 258.915 48.8022C259.544 48.8022 260.117 48.2682 260.636 47.2034L257.587 40.5873C257.277 39.9189 257.032 39.4597 256.847 39.2151C256.665 38.9704 256.433 38.839 256.152 38.8214V38.2455H260.811V38.8214C260.361 38.8811 260.137 39.1017 260.137 39.4866C260.137 39.7073 260.292 40.1697 260.6 40.8677L262.094 44.3458L263.529 40.9453C263.785 40.3397 263.914 39.8623 263.914 39.5132C263.914 39.0748 263.687 38.8452 263.231 38.8214V38.2455H266.691V38.8214C266.366 38.8929 266.076 39.0927 265.823 39.4207C265.569 39.749 265.277 40.2321 264.946 40.8675L262.035 47.0452V47.0453ZM271.35 47.9909C271.35 48.3726 271.365 48.6473 271.395 48.8082C271.422 48.9663 271.47 49.0947 271.538 49.1899C271.604 49.2886 271.702 49.3661 271.827 49.4318C271.953 49.4943 272.147 49.5509 272.406 49.5987V50.1744H267.705V49.5987C267.923 49.5389 268.093 49.4764 268.218 49.4108C268.343 49.3421 268.436 49.2496 268.495 49.1304C268.558 49.0109 268.597 48.859 268.615 48.6768C268.633 48.492 268.641 48.2591 268.641 47.9818V40.4469C268.641 40.1725 268.633 39.9429 268.618 39.7578C268.606 39.5698 268.567 39.4207 268.504 39.3015C268.445 39.1851 268.352 39.0927 268.227 39.0181C268.102 38.9466 267.929 38.8811 267.705 38.8214V38.2455H272.782C274.258 38.2455 275.362 38.5081 276.096 39.0361C276.83 39.564 277.197 40.3753 277.197 41.4701C277.197 42.2457 277.024 42.9168 276.681 43.4895C276.338 44.0592 275.839 44.4918 275.186 44.7872C274.533 45.0795 273.719 45.2286 272.74 45.2286C272.173 45.2286 271.711 45.2167 271.35 45.1928V47.9909H271.35ZM271.35 44.2055H272.102C272.683 44.2055 273.146 44.122 273.492 43.9579C273.835 43.791 274.088 43.5255 274.256 43.1644C274.423 42.8034 274.506 42.3173 274.506 41.7059C274.506 41.1004 274.423 40.6171 274.256 40.2592C274.088 39.9012 273.847 39.6477 273.525 39.4957C273.206 39.3434 272.794 39.2689 272.293 39.2689C271.887 39.2689 271.571 39.2749 271.35 39.2867V44.2055ZM288.994 47.9819C288.994 48.4293 289.015 48.7367 289.051 48.9038C289.089 49.0676 289.167 49.2081 289.283 49.3183C289.4 49.4286 289.612 49.5212 289.922 49.5987V50.1744H285.361V49.5987C285.698 49.5091 285.916 49.4228 286.014 49.3361C286.115 49.2465 286.184 49.1242 286.226 48.9634C286.265 48.8023 286.286 48.4772 286.286 47.9819V44.477H282.336V47.9819C282.336 48.185 282.342 48.3726 282.354 48.5489C282.366 48.7247 282.387 48.8679 282.423 48.9783C282.458 49.0886 282.509 49.1812 282.575 49.2558C282.644 49.3333 282.736 49.3989 282.852 49.4526C282.969 49.5092 283.112 49.5571 283.279 49.5988V50.1746H278.691V49.5988C278.909 49.539 279.079 49.4765 279.204 49.4109C279.329 49.3422 279.422 49.2497 279.481 49.1306C279.544 49.011 279.583 48.8592 279.601 48.677C279.619 48.4921 279.628 48.2593 279.628 47.9819V40.4471C279.628 40.1726 279.619 39.9431 279.604 39.758C279.592 39.57 279.553 39.4209 279.49 39.3016C279.431 39.1852 279.338 39.0929 279.213 39.0182C279.088 38.9467 278.915 38.8813 278.691 38.8215V38.2456H283.279V38.8215C282.972 38.9109 282.76 39.0063 282.646 39.1107C282.533 39.2152 282.453 39.3552 282.405 39.5252C282.36 39.6983 282.336 40.0084 282.336 40.4559V43.3762H286.286V40.4559C286.286 40.0145 286.268 39.7073 286.229 39.5341C286.19 39.3614 286.116 39.2239 286.002 39.1136C285.889 39.0061 285.674 38.9107 285.361 38.8214V38.2455H289.922V38.8214C289.665 38.8929 289.477 38.9675 289.361 39.0451C289.245 39.1226 289.161 39.224 289.113 39.3463C289.063 39.4686 289.033 39.6058 289.018 39.7578C289.003 39.9101 288.994 40.1427 288.994 40.4559V47.9818V47.9819ZM296.317 38.2456V38.8215C295.87 38.893 295.581 39.0302 295.449 39.233C295.318 39.4358 295.252 39.8415 295.252 40.4469V43.3136C296.028 43.239 296.672 43.2003 297.182 43.2003C298.647 43.2003 299.724 43.4836 300.422 44.0534C301.117 44.6201 301.466 45.5059 301.466 46.7052C301.466 49.0168 299.944 50.1743 296.905 50.1743H291.607V49.5985C292.01 49.4971 292.266 49.3509 292.377 49.1569C292.487 48.9601 292.544 48.5694 292.544 47.9817V40.4468C292.544 39.8473 292.49 39.4537 292.386 39.2686C292.281 39.0807 292.022 38.9315 291.607 38.8212V38.2453H296.317L296.317 38.2456ZM295.252 44.3726V49.1244C296.669 49.232 297.606 49.074 298.071 48.6531C298.534 48.2355 298.766 47.5972 298.766 46.7412C298.766 45.9777 298.587 45.3838 298.229 44.9573C297.868 44.5306 297.218 44.319 296.276 44.319C295.965 44.319 295.625 44.3369 295.252 44.3726ZM305.809 40.4471V47.9819C305.809 48.5636 305.866 48.9543 305.976 49.1514C306.086 49.3512 306.346 49.4973 306.752 49.5988V50.1746H302.164V49.5988C302.572 49.4973 302.832 49.3512 302.939 49.1572C303.047 48.9604 303.101 48.5697 303.101 47.9819V40.4382C303.101 39.8446 303.047 39.454 302.942 39.2689C302.838 39.081 302.578 38.9318 302.164 38.8215V38.2456H306.752V38.8215C306.34 38.9379 306.077 39.0929 305.97 39.2809C305.863 39.4718 305.809 39.8594 305.809 40.4471ZM317.189 38.2456V41.0256H315.99C315.799 40.4709 315.635 40.098 315.501 39.9012C315.366 39.7073 315.205 39.5523 315.02 39.4389C314.832 39.3255 314.516 39.2689 314.069 39.2689H312.163V43.4627H313.317C313.574 43.4627 313.774 43.4271 313.92 43.3524C314.066 43.2809 314.185 43.1586 314.281 42.9915C314.379 42.8217 314.469 42.559 314.558 42.2041H315.545V45.7537H314.558C314.474 45.4137 314.385 45.1572 314.287 44.9781C314.188 44.8021 314.069 44.6738 313.932 44.5992C313.794 44.5216 313.589 44.4859 313.317 44.4859H312.163V49.1513H314.06C314.263 49.1513 314.436 49.1393 314.576 49.1124C314.713 49.0857 314.838 49.0408 314.952 48.9782C315.062 48.9125 315.166 48.8262 315.268 48.7159C315.372 48.6053 315.462 48.4861 315.539 48.3577C315.62 48.2296 315.7 48.0594 315.79 47.8508C315.876 47.639 315.972 47.3526 316.076 46.9858H317.275L317.108 50.1746H308.518V49.5988C308.735 49.539 308.905 49.4765 309.031 49.4109C309.156 49.3422 309.248 49.2497 309.308 49.1306C309.371 49.011 309.409 48.8592 309.427 48.677C309.445 48.4921 309.454 48.2593 309.454 47.9819V40.4471C309.454 40.1726 309.445 39.9431 309.43 39.758C309.418 39.57 309.38 39.4209 309.317 39.3016C309.257 39.1852 309.165 39.0929 309.039 39.0182C308.914 38.9467 308.741 38.8813 308.518 38.8215V38.2456H317.189Z" fill="black" stroke="black" stroke-width="0.3" stroke-miterlimit="22.9256"/>
<path d="M200.253 65.3365C200.253 65.9242 200.303 66.3149 200.405 66.5117C200.506 66.7058 200.766 66.8518 201.177 66.9533V67.5291H196.616V66.9533C197.037 66.8518 197.296 66.7177 197.395 66.5446C197.493 66.3746 197.544 65.9691 197.544 65.3367V61.9181C197.544 60.886 197.571 60.1046 197.622 59.5677H197.571L193.419 65.3367C193.419 65.9124 193.472 66.2999 193.58 66.503C193.687 66.7027 193.95 66.852 194.361 66.9534V67.5292H189.774V66.9534C190.176 66.852 190.433 66.7059 190.543 66.5118C190.653 66.315 190.71 65.9243 190.71 65.3367V57.8018C190.71 57.2022 190.656 56.8085 190.552 56.6236C190.448 56.4356 190.188 56.2864 189.773 56.1761V55.6003H194.361V56.1761C193.95 56.2923 193.687 56.4475 193.58 56.6413C193.472 56.8322 193.419 57.2232 193.419 57.8107V61.6557C193.419 62.3836 193.398 62.9593 193.356 63.3766H193.41L197.544 57.6018C197.544 57.1125 197.49 56.7784 197.386 56.5995C197.282 56.4236 197.025 56.2802 196.616 56.176V55.6002H201.177V56.176C200.772 56.2863 200.515 56.4383 200.411 56.6264C200.306 56.8173 200.253 57.2111 200.253 57.8105V65.3365ZM214.075 65.3365C214.075 65.7839 214.096 66.0912 214.132 66.2582C214.17 66.4221 214.248 66.5626 214.364 66.6728C214.481 66.7831 214.692 66.8757 215.002 66.9532V67.5289H210.442V66.9532C210.779 66.8637 210.997 66.7773 211.095 66.6906C211.196 66.601 211.265 66.4787 211.307 66.3178C211.345 66.1568 211.366 65.8317 211.366 65.3365V61.8315H207.417V65.3365C207.417 65.5395 207.423 65.7271 207.435 65.9032C207.447 66.0792 207.468 66.2225 207.504 66.3328C207.539 66.4431 207.59 66.5357 207.656 66.6101C207.724 66.6877 207.817 66.7534 207.933 66.8072C208.049 66.8638 208.192 66.9116 208.36 66.9533V67.5291H203.772V66.9533C203.99 66.8935 204.16 66.831 204.285 66.7654C204.41 66.6967 204.503 66.6043 204.562 66.4851C204.625 66.3655 204.664 66.2137 204.682 66.0315C204.699 65.8466 204.708 65.6137 204.708 65.3365V57.8017C204.708 57.5271 204.699 57.2976 204.685 57.1125C204.673 56.9246 204.634 56.7754 204.571 56.6562C204.511 56.5397 204.419 56.4474 204.294 56.3727C204.169 56.3012 203.995 56.2357 203.772 56.176V55.6002H208.36V56.176C208.052 56.2654 207.841 56.3608 207.727 56.4652C207.614 56.5697 207.533 56.7097 207.486 56.8797C207.441 57.0528 207.417 57.363 207.417 57.8104V60.7307H211.366V57.8104C211.366 57.3688 211.349 57.0618 211.31 56.8886C211.271 56.7159 211.196 56.5785 211.083 56.4681C210.97 56.3606 210.755 56.2652 210.442 56.1758V55.6001H215.003V56.1758C214.746 56.2474 214.558 56.322 214.442 56.3996C214.326 56.4772 214.242 56.5786 214.194 56.7008C214.144 56.8231 214.114 56.9603 214.099 57.1123C214.084 57.2646 214.075 57.4972 214.075 57.8104V65.3364V65.3365ZM225.12 61.2797C225.935 61.5361 226.558 61.909 226.985 62.3953C227.414 62.8814 227.629 63.4661 227.629 64.1464C227.629 64.7279 227.53 65.2351 227.334 65.6676C227.14 66.0972 226.841 66.4521 226.445 66.7297C226.045 67.0069 225.577 67.2098 225.037 67.3381C224.497 67.4663 223.811 67.5291 222.979 67.5291H217.594V66.9533C217.812 66.8935 217.982 66.831 218.107 66.7654C218.233 66.6967 218.325 66.6043 218.385 66.4851C218.448 66.3655 218.486 66.2137 218.504 66.0315C218.522 65.8466 218.531 65.6137 218.531 65.3365V57.8017C218.531 57.5271 218.522 57.2976 218.507 57.1125C218.495 56.9246 218.457 56.7754 218.394 56.6562C218.334 56.5397 218.242 56.4474 218.116 56.3727C217.991 56.3012 217.818 56.2357 217.594 56.176V55.6002H223.319C223.972 55.6002 224.506 55.6329 224.917 55.6957C225.466 55.7823 225.941 55.9343 226.343 56.1491C226.704 56.3431 226.988 56.6173 227.19 56.9725C227.393 57.3273 227.498 57.7509 227.498 58.2402C227.498 59.5556 226.704 60.5431 225.12 61.2022V61.2798L225.12 61.2797ZM222.403 60.8263C222.984 60.8263 223.441 60.7427 223.775 60.5727C224.106 60.4027 224.357 60.1643 224.53 59.8508C224.703 59.5405 224.786 59.111 224.786 58.5622C224.786 58.0789 224.694 57.6972 224.509 57.4137C224.321 57.1305 224.055 56.9276 223.712 56.8053C223.369 56.683 222.94 56.6234 222.427 56.6234C222.021 56.6234 221.624 56.6381 221.239 56.6649V60.8262H222.403V60.8263ZM221.239 66.4788C221.583 66.4969 221.979 66.5059 222.427 66.5059C222.981 66.5059 223.438 66.4372 223.796 66.2998C224.154 66.1627 224.431 65.9242 224.631 65.5841C224.828 65.2439 224.926 64.7757 224.926 64.1821C224.926 63.7614 224.876 63.4034 224.771 63.1023C224.664 62.801 224.509 62.5592 224.297 62.3774C224.088 62.1925 223.838 62.0612 223.545 61.9747C223.256 61.8913 222.892 61.8493 222.454 61.8493H221.24V66.4788H221.239ZM238.829 55.6002V58.3801H237.63C237.439 57.8254 237.275 57.4525 237.141 57.2557C237.007 57.0618 236.846 56.9068 236.661 56.7934C236.473 56.6801 236.157 56.6235 235.709 56.6235H233.803V60.8172H234.958C235.214 60.8172 235.414 60.7816 235.56 60.7069C235.706 60.6354 235.826 60.5131 235.921 60.3459C236.019 60.1761 236.109 59.9135 236.198 59.5584H237.186V63.1082H236.198C236.115 62.7682 236.025 62.5115 235.927 62.3325C235.829 62.1566 235.709 62.0281 235.572 61.9537C235.435 61.8761 235.229 61.8404 234.958 61.8404H233.803V66.5058H235.7C235.903 66.5058 236.076 66.4938 236.216 66.4668C236.354 66.4402 236.479 66.3953 236.592 66.3327C236.703 66.267 236.807 66.1807 236.908 66.0704C237.013 65.9598 237.102 65.8405 237.18 65.7122C237.26 65.5841 237.341 65.414 237.43 65.2053C237.517 64.9934 237.612 64.7071 237.717 64.3403H238.916L238.749 67.5291H230.158V66.9533C230.376 66.8935 230.546 66.831 230.671 66.7654C230.796 66.6967 230.889 66.6043 230.948 66.4851C231.011 66.3655 231.05 66.2137 231.068 66.0315C231.086 65.8466 231.094 65.6137 231.094 65.3365V57.8017C231.094 57.5271 231.086 57.2976 231.071 57.1125C231.059 56.9246 231.02 56.7754 230.957 56.6562C230.898 56.5397 230.805 56.4474 230.68 56.3727C230.555 56.3012 230.382 56.2357 230.158 56.176V55.6002H238.829ZM249.905 55.8716V58.404H248.717C248.577 57.7479 248.356 57.2615 248.052 56.9515C247.751 56.6381 247.354 56.483 246.865 56.483C245.943 56.483 245.248 56.9246 244.777 57.8074C244.303 58.6904 244.067 59.9997 244.067 61.736C244.067 63.3499 244.285 64.5697 244.714 65.402C245.147 66.2312 245.779 66.6457 246.611 66.6457C247.038 66.6457 247.384 66.5742 247.652 66.431C247.918 66.2878 248.133 66.076 248.294 65.7899C248.455 65.5034 248.592 65.1037 248.708 64.5848H249.904V67.2305C249.266 67.3826 248.678 67.493 248.15 67.5645C247.619 67.6332 247.068 67.6689 246.498 67.6689C245.287 67.6689 244.296 67.4514 243.53 67.0128C242.763 66.5771 242.199 65.915 241.835 65.0351C241.472 64.152 241.29 63.0335 241.29 61.6822C241.29 60.4174 241.504 59.3197 241.931 58.383C242.36 57.4493 242.99 56.7276 243.822 56.2206C244.657 55.7134 245.653 55.46 246.811 55.46C247.402 55.46 247.932 55.4927 248.41 55.5554C248.89 55.6209 249.388 55.7254 249.904 55.8716H249.905ZM254.865 67.5289V66.9532C255.109 66.9115 255.303 66.8576 255.447 66.789C255.59 66.7233 255.697 66.6282 255.766 66.5059C255.837 66.3836 255.879 66.2283 255.897 66.0374C255.915 65.8494 255.924 65.6137 255.924 65.3365V56.6235H255.217C254.865 56.6235 254.599 56.662 254.411 56.7457C254.226 56.8263 254.062 56.9544 253.925 57.1305C253.791 57.3034 253.672 57.539 253.573 57.8314C253.475 58.1266 253.391 58.4041 253.329 58.6667H252.13V55.6002H262.418V58.6667H261.219C261.108 58.2699 261.022 57.9805 260.956 57.7927C260.893 57.6076 260.822 57.4496 260.744 57.3184C260.664 57.1873 260.58 57.0767 260.494 56.9902C260.407 56.9037 260.315 56.8321 260.213 56.7784C260.115 56.7279 259.993 56.6888 259.843 56.662C259.694 56.6354 259.5 56.6235 259.262 56.6235H258.632V65.3365C258.632 65.6438 258.641 65.8795 258.659 66.0374C258.677 66.1985 258.707 66.3296 258.755 66.4283C258.802 66.5267 258.859 66.6074 258.925 66.6667C258.993 66.7297 259.086 66.7831 259.205 66.8339C259.324 66.8844 259.485 66.9232 259.691 66.9532V67.5289H254.865ZM275.217 65.3365C275.217 65.9242 275.268 66.3149 275.369 66.5117C275.47 66.7058 275.73 66.8518 276.141 66.9533V67.5291H271.581V66.9533C272.001 66.8518 272.261 66.7177 272.359 66.5446C272.458 66.3746 272.508 65.9691 272.508 65.3367V61.9181C272.508 60.886 272.535 60.1046 272.586 59.5677H272.535L268.383 65.3367C268.383 65.9124 268.437 66.2999 268.544 66.503C268.651 66.7027 268.914 66.852 269.326 66.9534V67.5292H264.738V66.9534C265.14 66.852 265.397 66.7059 265.507 66.5118C265.618 66.315 265.674 65.9243 265.674 65.3367V57.8018C265.674 57.2022 265.621 56.8085 265.516 56.6236C265.412 56.4356 265.152 56.2864 264.738 56.1761V55.6003H269.325V56.1761C268.914 56.2923 268.651 56.4475 268.544 56.6413C268.437 56.8322 268.383 57.2232 268.383 57.8107V61.6557C268.383 62.3836 268.362 62.9593 268.32 63.3766H268.374L272.508 57.6018C272.508 57.1125 272.454 56.7784 272.35 56.5995C272.246 56.4236 271.989 56.2802 271.581 56.176V55.6002H276.141V56.176C275.736 56.2863 275.479 56.4383 275.375 56.6264C275.271 56.8173 275.217 57.2111 275.217 57.8105V65.3365ZM288.777 66.4283H290.343V70.685H289.179C288.976 69.3664 288.741 68.5133 288.475 68.1195C288.213 67.7258 287.825 67.5289 287.318 67.5289H278.676V66.9532C279.094 66.8429 279.359 66.6906 279.467 66.4968C279.574 66.3059 279.628 65.9122 279.628 65.3183V57.8016C279.628 57.208 279.574 56.8143 279.467 56.6234C279.359 56.4293 279.094 56.2831 278.676 56.1847V55.6089H283.36V56.1847C282.939 56.2831 282.682 56.4203 282.581 56.5904C282.482 56.7632 282.435 57.1662 282.435 57.8014V66.4189H286.041V57.8014C286.041 57.2255 285.987 56.838 285.88 56.6351C285.773 56.4352 285.513 56.283 285.098 56.1846V55.6088H289.713V56.1846C289.31 56.283 289.054 56.4322 288.944 56.6261C288.833 56.823 288.777 57.2136 288.777 57.8014V66.4282L288.777 66.4283ZM303.011 65.3365C303.011 65.9242 303.061 66.3149 303.163 66.5117C303.264 66.7058 303.524 66.8518 303.935 66.9533V67.5291H299.375V66.9533C299.795 66.8518 300.055 66.7177 300.153 66.5446C300.252 66.3746 300.302 65.9691 300.302 65.3367V61.9181C300.302 60.886 300.329 60.1046 300.38 59.5677H300.329L296.177 65.3367C296.177 65.9124 296.231 66.2999 296.338 66.503C296.445 66.7027 296.708 66.852 297.12 66.9534V67.5292H292.532V66.9534C292.935 66.852 293.191 66.7059 293.301 66.5118C293.412 66.315 293.468 65.9243 293.468 65.3367V57.8018C293.468 57.2022 293.415 56.8085 293.31 56.6236C293.206 56.4356 292.946 56.2864 292.532 56.1761V55.6003H297.119V56.1761C296.708 56.2923 296.445 56.4475 296.338 56.6413C296.231 56.8322 296.177 57.2232 296.177 57.8107V61.6557C296.177 62.3836 296.156 62.9593 296.114 63.3766H296.168L300.302 57.6018C300.302 57.1125 300.248 56.7784 300.144 56.5995C300.04 56.4236 299.783 56.2802 299.375 56.176V55.6002H303.935V56.176C303.53 56.2863 303.273 56.4383 303.169 56.6264C303.065 56.8173 303.011 57.2111 303.011 57.8105V65.3365ZM317.009 65.3365C317.009 65.9242 317.06 66.3149 317.161 66.5117C317.263 66.7058 317.522 66.8518 317.934 66.9533V67.5291H313.373V66.9533C313.794 66.8518 314.053 66.7177 314.152 66.5446C314.25 66.3746 314.301 65.9691 314.301 65.3367V61.9181C314.301 60.886 314.327 60.1046 314.378 59.5677H314.328L310.175 65.3367C310.175 65.9124 310.229 66.2999 310.336 66.503C310.444 66.7027 310.706 66.852 311.118 66.9534V67.5292H306.53V66.9534C306.933 66.852 307.19 66.7059 307.3 66.5118C307.41 66.315 307.467 65.9243 307.467 65.3367V57.8018C307.467 57.2022 307.413 56.8085 307.309 56.6236C307.204 56.4356 306.945 56.2864 306.53 56.1761V55.6003H311.118V56.1761C310.706 56.2923 310.444 56.4475 310.336 56.6413C310.229 56.8322 310.175 57.2232 310.175 57.8107V61.6557C310.175 62.3836 310.154 62.9593 310.113 63.3766H310.166L314.301 57.6018C314.301 57.1125 314.247 56.7784 314.143 56.5995C314.038 56.4236 313.782 56.2802 313.373 56.176V55.6002H317.934V56.176C317.528 56.2863 317.272 56.4383 317.167 56.6264C317.063 56.8173 317.009 57.2111 317.009 57.8105V65.3365Z" fill="black" stroke="black" stroke-width="0.3" stroke-miterlimit="22.9256"/>
<path fill-rule="evenodd" clip-rule="evenodd" d="M181.112 50.6455C183.509 50.6455 185.451 51.6573 185.451 52.9052C185.451 54.153 183.509 55.1648 181.112 55.1648C178.716 55.1648 176.773 54.153 176.773 52.9052C176.773 51.6573 178.716 50.6455 181.112 50.6455Z" fill="black"/>
<defs>
<radialGradient id="paint0_radial_1_220" cx="0" cy="0" r="1" gradientUnits="userSpaceOnUse" gradientTransform="translate(40.4738 39.3548) scale(59.2183 59.2184)">
<stop stop-color="#499E3E"/>
<stop offset="0.4" stop-color="#398543"/>
<stop offset="1" stop-color="#2A6C47"/>
</radialGradient>
</defs>
</svg>
