<svg width="21" height="21" viewBox="0 0 21 21" fill="none" xmlns="http://www.w3.org/2000/svg">
<g clip-path="url(#clip0_216_76501)">
<path d="M10.0667 20.5083C15.5918 20.5083 20.0708 16.0293 20.0708 10.5042C20.0708 4.97902 15.5918 0.5 10.0667 0.5C4.54152 0.5 0.0625 4.97902 0.0625 10.5042C0.0625 16.0293 4.54152 20.5083 10.0667 20.5083Z" fill="currentColor"/>
<path fill-rule="evenodd" clip-rule="evenodd" d="M4.58753 10.3959C7.50299 9.12974 9.44384 8.28842 10.4184 7.88026C13.1923 6.72241 13.7754 6.52249 14.1502 6.51416C14.2335 6.51416 14.4168 6.53082 14.5417 6.63078C14.6417 6.71408 14.6667 6.82237 14.6833 6.90566C14.7 6.98896 14.7166 7.16389 14.7 7.29717C14.55 8.87984 13.9003 12.7199 13.5671 14.4858C13.4255 15.2355 13.1506 15.4854 12.8841 15.5104C12.301 15.5604 11.8595 15.1272 11.3014 14.7607C10.4184 14.186 9.92698 13.8278 9.069 13.2613C8.07775 12.6116 8.71915 12.2534 9.28558 11.6703C9.43551 11.5204 11.9928 9.18805 12.0428 8.9798C12.0511 8.95481 12.0511 8.85485 11.9928 8.80487C11.9345 8.75489 11.8512 8.77155 11.7845 8.78821C11.6929 8.80487 10.2935 9.73782 7.56963 11.5787C7.16979 11.8536 6.81161 11.9869 6.48674 11.9786C6.12856 11.9702 5.44551 11.7786 4.92906 11.612C4.30432 11.4121 3.80453 11.3038 3.84618 10.954C3.87117 10.7707 4.12106 10.5875 4.58753 10.3959Z" fill="white"/>
</g>
<defs>
<clipPath id="clip0_216_76501">
<rect width="20" height="20" fill="white" transform="translate(0.0625 0.5)"/>
</clipPath>
</defs>
</svg>
