<svg width="20" height="19" viewBox="0 0 20 19" fill="none" xmlns="http://www.w3.org/2000/svg">
<path fill-rule="evenodd" clip-rule="evenodd" d="M15.2715 0.0267554C13.7322 0.186367 12.3151 1.31608 11.7973 2.79641C11.4548 3.77554 11.4688 4.76564 11.8388 5.71943C12.8349 8.28753 16.0799 9.24144 18.3025 7.6195C18.5886 7.4106 19.1537 6.83096 19.1467 6.75342C19.1447 6.73203 18.9015 6.53253 18.6062 6.31005L18.0692 5.9056L17.7713 6.20742C17.174 6.81259 16.1767 7.13787 15.3571 6.99481C14.0043 6.75876 13.1136 5.65045 13.1136 4.20339C13.1136 3.32495 13.3827 2.64801 13.9591 2.07631C14.7478 1.29401 15.961 1.08742 17.109 1.53988L17.4734 1.68349L17.4906 2.39559L17.5077 3.10763H18.207H18.9063V2.08055V1.05353L18.4337 0.744978C17.5633 0.176729 16.3917 -0.089392 15.2715 0.0267554ZM2.2122 0.879857L2.22945 1.56183L2.93738 1.57886L3.64537 1.59584L3.73317 1.82134C3.7814 1.94531 4.3272 3.45789 4.94592 5.18258L6.07092 8.31832L6.74165 8.31881L7.41238 8.31923L8.66659 4.97084L9.9208 1.62245L10.5873 1.59214L11.2538 1.56183L11.2711 0.879857L11.2884 0.197885H10.0799H8.87153L7.87324 3.09248C7.32415 4.68453 6.8586 6.00616 6.83872 6.02956C6.81879 6.0529 6.34982 4.75073 5.79647 3.13576L4.79043 0.199461L3.49269 0.198673L2.19494 0.197885L2.2122 0.879857ZM2.80872 10.6548V11.2913H3.47945H4.15019V13.9889V16.6865H3.47945H2.80872V17.3533V18.0201H5.91848H9.02824V17.3533V16.6865H7.31763H5.60702L5.62555 14.8527L5.64409 13.019L5.84311 12.6144C5.95263 12.392 6.16598 12.0833 6.31726 11.9286C6.62714 11.6116 7.22421 11.3088 7.59531 11.2804L7.83921 11.2618L7.8172 11.8525L7.79519 12.4431H8.50318H9.21117V11.2307V10.0183H8.39342C7.46568 10.0183 7.04342 10.114 6.53238 10.44C6.21677 10.6413 5.73909 11.0997 5.55653 11.3763L5.44915 11.539L5.40982 11.0363C5.38811 10.7598 5.37025 10.4176 5.37006 10.2759L5.3697 10.0183H4.08921H2.80872V10.6548ZM10.7147 10.0637C10.6992 10.0887 10.6907 10.3956 10.6958 10.7457L10.7051 11.3822L11.2933 11.3995L11.8815 11.4168L11.9107 13.5818C11.9428 15.9576 11.9657 16.1318 12.3363 16.8259C12.7701 17.6381 13.5244 18.1167 14.5507 18.2307C15.5264 18.3393 16.5937 17.8441 17.077 17.0587C17.1609 16.9224 17.2457 16.8102 17.2657 16.8093C17.2856 16.8084 17.3404 17.0736 17.3876 17.3987L17.4734 17.9898L18.5862 18.0063L19.699 18.0228V17.357V16.6912L19.1654 16.6737L18.6319 16.6561L18.6161 13.3372L18.6004 10.0183H17.1679H15.7356V10.7134V11.4085L16.4099 11.4257L17.0842 11.4428L17.079 13.2736C17.0734 15.2312 17.0602 15.3331 16.744 15.8696C16.5489 16.2006 16.097 16.6068 15.7463 16.7663C15.5369 16.8616 15.3396 16.8964 15.0039 16.8973C14.2067 16.8995 13.7479 16.5548 13.5163 15.7796C13.4329 15.5002 13.4185 15.0524 13.4185 12.7351V10.0183H12.0806C11.3448 10.0183 10.7301 10.0388 10.7147 10.0637ZM0.0171342 17.3381L0.0343293 18.0504H0.735549H1.43677L1.45396 17.3381L1.4711 16.6258H0.735549H0L0.0171342 17.3381Z" fill="currentColor"/>
</svg>
