<svg width="21" height="21" viewBox="0 0 21 21" fill="none" xmlns="http://www.w3.org/2000/svg">
<g clip-path="url(#clip0_216_76518)">
<path d="M20.2044 5.65258C19.9747 4.78766 19.298 4.10649 18.4386 3.87532C16.881 3.4552 10.6351 3.4552 10.6351 3.4552C10.6351 3.4552 4.38927 3.4552 2.83169 3.87532C1.9723 4.10649 1.29547 4.78766 1.06584 5.65258C0.648438 7.22038 0.648438 10.4913 0.648438 10.4913C0.648438 10.4913 0.648438 13.7622 1.06584 15.33C1.29547 16.1949 1.9723 16.876 2.83169 17.1073C4.38927 17.5273 10.6351 17.5273 10.6351 17.5273C10.6351 17.5273 16.881 17.5273 18.4386 17.1073C19.298 16.876 19.9747 16.1949 20.2044 15.3301C20.6218 13.7621 20.6218 10.4913 20.6218 10.4913C20.6218 10.4913 20.6218 7.22038 20.2044 5.65258Z" fill="currentColor"/>
<path d="M8.59375 13.461L13.8141 10.4914L8.59375 7.52148V13.461Z" fill="white"/>
</g>
<defs>
<clipPath id="clip0_216_76518">
<rect width="20" height="20" fill="white" transform="translate(0.632812 0.5)"/>
</clipPath>
</defs>
</svg>
